ISO-10303-21;
HEADER;
FILE_DESCRIPTION (( 'STEP AP214' ),
    '1' );
FILE_NAME ('XAL4040103ME.STEP',
    '2023-09-24T21:11:55',
    ( '' ),
    ( '' ),
    'SwSTEP 2.0',
    'SolidWorks 2021',
    '' );
FILE_SCHEMA (( 'AUTOMOTIVE_DESIGN' ));
ENDSEC;

DATA;
#1 = CARTESIAN_POINT ( 'NONE',  ( 2.000000000000000000, 0.1000000000000000056, 1.899999999999999911 ) ) ;
#2 = DIRECTION ( 'NONE',  ( -1.000000000000000000, 0.000000000000000000, 0.000000000000000000 ) ) ;
#3 = VERTEX_POINT ( 'NONE', #260 ) ;
#4 = FACE_OUTER_BOUND ( 'NONE', #768, .T. ) ;
#5 = CARTESIAN_POINT ( 'NONE',  ( -1.450000000000000178, 4.099999999999999645, -1.699999999999999956 ) ) ;
#6 = PRESENTATION_LAYER_ASSIGNMENT (  '', '', ( #280 ) ) ;
#7 = CARTESIAN_POINT ( 'NONE',  ( -1.899999999999999911, 3.999999999999999112, 1.899999999999999911 ) ) ;
#8 = EDGE_LOOP ( 'NONE', ( #1017, #374, #1098, #838 ) ) ;
#9 = LINE ( 'NONE', #708, #450 ) ;
#10 = EDGE_LOOP ( 'NONE', ( #227, #718, #797, #288 ) ) ;
#11 = CYLINDRICAL_SURFACE ( 'NONE', #56, 0.1000000000000000472 ) ;
#12 = SURFACE_SIDE_STYLE ('',( #164 ) ) ;
#13 = PLANE ( 'NONE',  #955 ) ;
#14 = VERTEX_POINT ( 'NONE', #944 ) ;
#15 = ORIENTED_EDGE ( 'NONE', *, *, #232, .F. ) ;
#16 = DIRECTION ( 'NONE',  ( -0.000000000000000000, -1.000000000000000000, -0.000000000000000000 ) ) ;
#17 = LINE ( 'NONE', #120, #192 ) ;
#18 = DIRECTION ( 'NONE',  ( 1.000000000000000000, 0.000000000000000000, 0.000000000000000000 ) ) ;
#19 = EDGE_CURVE ( 'NONE', #163, #47, #427, .T. ) ;
#20 = PLANE ( 'NONE',  #846 ) ;
#21 = FACE_OUTER_BOUND ( 'NONE', #798, .T. ) ;
#22 = AXIS2_PLACEMENT_3D ( 'NONE', #385, #806, #1078 ) ;
#23 = DIRECTION ( 'NONE',  ( -0.000000000000000000, -1.000000000000000000, -0.000000000000000000 ) ) ;
#24 = AXIS2_PLACEMENT_3D ( 'NONE', #480, #458, #39 ) ;
#25 = ORIENTED_EDGE ( 'NONE', *, *, #478, .T. ) ;
#26 = DIRECTION ( 'NONE',  ( -0.000000000000000000, -1.000000000000000000, -0.000000000000000000 ) ) ;
#27 = CARTESIAN_POINT ( 'NONE',  ( -1.899999999999999911, 3.999999999999999112, -2.000000000000000000 ) ) ;
#28 = CARTESIAN_POINT ( 'NONE',  ( 0.000000000000000000, 3.999999999999999112, 0.000000000000000000 ) ) ;
#29 = VERTEX_POINT ( 'NONE', #165 ) ;
#30 = FACE_OUTER_BOUND ( 'NONE', #179, .T. ) ;
#31 = ADVANCED_FACE ( 'NONE', ( #683 ), #1131, .T. ) ;
#32 = LINE ( 'NONE', #325, #724 ) ;
#33 = ORIENTED_EDGE ( 'NONE', *, *, #304, .T. ) ;
#34 = ORIENTED_EDGE ( 'NONE', *, *, #1047, .T. ) ;
#35 = DIRECTION ( 'NONE',  ( -0.000000000000000000, -1.000000000000000000, -0.000000000000000000 ) ) ;
#36 = EDGE_CURVE ( 'NONE', #29, #396, #509, .T. ) ;
#37 = VECTOR ( 'NONE', #129, 1000.000000000000000 ) ;
#38 = VERTEX_POINT ( 'NONE', #781 ) ;
#39 = DIRECTION ( 'NONE',  ( 1.000000000000000000, 0.000000000000000000, -2.644395542647571766E-16 ) ) ;
#40 = DIRECTION ( 'NONE',  ( -1.000000000000000000, -0.000000000000000000, -0.000000000000000000 ) ) ;
#41 = ORIENTED_EDGE ( 'NONE', *, *, #321, .T. ) ;
#42 = DIRECTION ( 'NONE',  ( 0.000000000000000000, 0.000000000000000000, -1.000000000000000000 ) ) ;
#43 = VECTOR ( 'NONE', #35, 1000.000000000000000 ) ;
#44 = CARTESIAN_POINT ( 'NONE',  ( 2.000000000000000000, 13.85685424949238076, 1.899999999999999911 ) ) ;
#45 = ORIENTED_EDGE ( 'NONE', *, *, #888, .T. ) ;
#46 = EDGE_CURVE ( 'NONE', #822, #452, #859, .T. ) ;
#47 = VERTEX_POINT ( 'NONE', #1118 ) ;
#48 = LINE ( 'NONE', #1029, #580 ) ;
#49 = ORIENTED_EDGE ( 'NONE', *, *, #773, .T. ) ;
#50 =( NAMED_UNIT ( * ) SI_UNIT ( $, .STERADIAN. ) SOLID_ANGLE_UNIT ( ) );
#51 = DIRECTION ( 'NONE',  ( -0.000000000000000000, -1.000000000000000000, -0.000000000000000000 ) ) ;
#52 = ADVANCED_FACE ( 'NONE', ( #1038 ), #930, .F. ) ;
#53 = ORIENTED_EDGE ( 'NONE', *, *, #1054, .T. ) ;
#54 = PLANE ( 'NONE',  #237 ) ;
#55 = ORIENTED_EDGE ( 'NONE', *, *, #334, .F. ) ;
#56 = AXIS2_PLACEMENT_3D ( 'NONE', #81, #779, #630 ) ;
#57 = CARTESIAN_POINT ( 'NONE',  ( 1.899999999999999911, 13.85685424949238076, -2.000000000000000888 ) ) ;
#58 = AXIS2_PLACEMENT_3D ( 'NONE', #1058, #1102, #560 ) ;
#59 = EDGE_CURVE ( 'NONE', #265, #815, #344, .T. ) ;
#60 = DIRECTION ( 'NONE',  ( 1.000000000000000000, 0.000000000000000000, 2.644395542647571766E-16 ) ) ;
#61 = DIRECTION ( 'NONE',  ( 0.000000000000000000, 0.000000000000000000, 1.000000000000000000 ) ) ;
#62 = FACE_OUTER_BOUND ( 'NONE', #908, .T. ) ;
#63 = FACE_OUTER_BOUND ( 'NONE', #778, .T. ) ;
#64 = CARTESIAN_POINT ( 'NONE',  ( 1.899999999999999911, 4.099999999999999645, -1.900000000000000799 ) ) ;
#65 = EDGE_CURVE ( 'NONE', #941, #1103, #1021, .T. ) ;
#66 = CARTESIAN_POINT ( 'NONE',  ( -1.450000000000000178, 3.999999999999999112, 1.699999999999999956 ) ) ;
#67 = CARTESIAN_POINT ( 'NONE',  ( 0.7849999999999999201, 0.000000000000000000, -1.625000000000000222 ) ) ;
#68 = DIRECTION ( 'NONE',  ( -0.000000000000000000, 1.000000000000000000, -0.000000000000000000 ) ) ;
#69 = ORIENTED_EDGE ( 'NONE', *, *, #777, .T. ) ;
#70 = PLANE ( 'NONE',  #789 ) ;
#71 = AXIS2_PLACEMENT_3D ( 'NONE', #444, #2, #860 ) ;
#72 = ORIENTED_EDGE ( 'NONE', *, *, #1040, .T. ) ;
#73 = SURFACE_STYLE_USAGE ( .BOTH. , #12 ) ;
#74 = AXIS2_PLACEMENT_3D ( 'NONE', #195, #525, #546 ) ;
#75 = VECTOR ( 'NONE', #948, 1000.000000000000000 ) ;
#76 = VECTOR ( 'NONE', #585, 1000.000000000000000 ) ;
#77 = ORIENTED_EDGE ( 'NONE', *, *, #618, .T. ) ;
#78 = DIRECTION ( 'NONE',  ( -5.288791085295143532E-16, 0.000000000000000000, -1.000000000000000000 ) ) ;
#79 = EDGE_CURVE ( 'NONE', #185, #856, #1110, .T. ) ;
#80 = ORIENTED_EDGE ( 'NONE', *, *, #924, .T. ) ;
#81 = CARTESIAN_POINT ( 'NONE',  ( -1.899999999999999911, 3.999999999999999112, 0.000000000000000000 ) ) ;
#82 = CARTESIAN_POINT ( 'NONE',  ( -1.450000000000000178, 0.5985297296610095907, 1.699999999999999956 ) ) ;
#83 = ADVANCED_FACE ( 'NONE', ( #151 ), #527, .T. ) ;
#84 = VERTEX_POINT ( 'NONE', #434 ) ;
#85 = DIRECTION ( 'NONE',  ( -0.000000000000000000, -1.000000000000000000, -0.000000000000000000 ) ) ;
#86 = DIRECTION ( 'NONE',  ( 0.000000000000000000, -0.000000000000000000, 1.000000000000000000 ) ) ;
#87 = CARTESIAN_POINT ( 'NONE',  ( 0.000000000000000000, 4.099999999999999645, 0.000000000000000000 ) ) ;
#88 = ORIENTED_EDGE ( 'NONE', *, *, #140, .T. ) ;
#89 = DIRECTION ( 'NONE',  ( 0.000000000000000000, 0.000000000000000000, -1.000000000000000000 ) ) ;
#90 = DIRECTION ( 'NONE',  ( 0.000000000000000000, -0.000000000000000000, 1.000000000000000000 ) ) ;
#91 = ADVANCED_FACE ( 'NONE', ( #849 ), #70, .T. ) ;
#92 = DIRECTION ( 'NONE',  ( -0.000000000000000000, -0.000000000000000000, 1.000000000000000000 ) ) ;
#93 = VECTOR ( 'NONE', #899, 1000.000000000000000 ) ;
#94 = APPLICATION_CONTEXT ( 'automotive_design' ) ;
#95 = ORIENTED_EDGE ( 'NONE', *, *, #818, .F. ) ;
#96 = CARTESIAN_POINT ( 'NONE',  ( 1.899999999999999911, 3.999999999999999112, 1.899999999999999911 ) ) ;
#97 = CARTESIAN_POINT ( 'NONE',  ( 0.000000000000000000, 0.1000000000000000056, 0.000000000000000000 ) ) ;
#98 = EDGE_CURVE ( 'NONE', #712, #496, #1043, .T. ) ;
#99 = LINE ( 'NONE', #462, #467 ) ;
#100 = ORIENTED_EDGE ( 'NONE', *, *, #1059, .T. ) ;
#101 = PRESENTATION_STYLE_ASSIGNMENT (( #643 ) ) ;
#102 = PLANE ( 'NONE',  #770 ) ;
#103 = VERTEX_POINT ( 'NONE', #66 ) ;
#104 = DIRECTION ( 'NONE',  ( 1.000000000000000000, 0.000000000000000000, 0.000000000000000000 ) ) ;
#105 = CARTESIAN_POINT ( 'NONE',  ( -1.350000000000000089, 4.099999999999999645, 1.699999999999999956 ) ) ;
#106 = DIRECTION ( 'NONE',  ( 1.000000000000000000, 0.000000000000000000, -2.168404344971009115E-16 ) ) ;
#107 = PRODUCT_DEFINITION ( 'UNKNOWN', '', #653, #1025 ) ;
#108 = ORIENTED_EDGE ( 'NONE', *, *, #514, .F. ) ;
#109 = CARTESIAN_POINT ( 'NONE',  ( -1.450000000000000178, 4.099999999999999645, -1.699999999999999956 ) ) ;
#110 = CARTESIAN_POINT ( 'NONE',  ( -1.450000000000000178, 3.999999999999999112, -1.699999999999999956 ) ) ;
#111 = EDGE_LOOP ( 'NONE', ( #693, #972, #851, #255 ) ) ;
#112 = PLANE ( 'NONE',  #157 ) ;
#113 = VECTOR ( 'NONE', #327, 1000.000000000000000 ) ;
#114 = FACE_OUTER_BOUND ( 'NONE', #489, .T. ) ;
#115 = PRESENTATION_LAYER_ASSIGNMENT (  '', '', ( #1109 ) ) ;
#116 = AXIS2_PLACEMENT_3D ( 'NONE', #725, #882, #106 ) ;
#117 = VERTEX_POINT ( 'NONE', #597 ) ;
#118 = EDGE_CURVE ( 'NONE', #569, #712, #248, .T. ) ;
#119 = EDGE_LOOP ( 'NONE', ( #506, #706, #660, #246 ) ) ;
#120 = CARTESIAN_POINT ( 'NONE',  ( -2.000000000000000000, 4.099999999999999645, -1.899999999999999911 ) ) ;
#121 = DIRECTION ( 'NONE',  ( 0.000000000000000000, -0.000000000000000000, -1.000000000000000000 ) ) ;
#122 = ORIENTED_EDGE ( 'NONE', *, *, #398, .F. ) ;
#123 = FACE_OUTER_BOUND ( 'NONE', #111, .T. ) ;
#124 = ORIENTED_EDGE ( 'NONE', *, *, #216, .T. ) ;
#125 = DIRECTION ( 'NONE',  ( 1.000000000000000000, -0.000000000000000000, -5.288791085295143532E-16 ) ) ;
#126 = ORIENTED_EDGE ( 'NONE', *, *, #667, .F. ) ;
#127 = CARTESIAN_POINT ( 'NONE',  ( -1.899999999999999689, 13.85685424949238076, 1.899999999999999911 ) ) ;
#128 = ORIENTED_EDGE ( 'NONE', *, *, #555, .T. ) ;
#129 = DIRECTION ( 'NONE',  ( -0.000000000000000000, -0.000000000000000000, 1.000000000000000000 ) ) ;
#130 = ADVANCED_FACE ( 'NONE', ( #766 ), #1122, .T. ) ;
#131 = LINE ( 'NONE', #923, #542 ) ;
#132 = MECHANICAL_DESIGN_GEOMETRIC_PRESENTATION_REPRESENTATION (  '', ( #666 ), #421 ) ;
#133 = ORIENTED_EDGE ( 'NONE', *, *, #548, .T. ) ;
#134 = CIRCLE ( 'NONE', #466, 0.1000000000000000472 ) ;
#135 = VECTOR ( 'NONE', #830, 1000.000000000000000 ) ;
#136 = CARTESIAN_POINT ( 'NONE',  ( -1.450000000000000178, 3.999999999999999112, -1.699999999999999956 ) ) ;
#137 = VECTOR ( 'NONE', #727, 1000.000000000000000 ) ;
#138 = APPLICATION_CONTEXT ( 'automotive_design' ) ;
#139 = LINE ( 'NONE', #835, #349 ) ;
#140 = EDGE_CURVE ( 'NONE', #243, #496, #900, .T. ) ;
#141 = EDGE_LOOP ( 'NONE', ( #1032, #1001, #307, #581 ) ) ;
#142 = DIRECTION ( 'NONE',  ( 1.000000000000000000, 0.000000000000000000, 0.000000000000000000 ) ) ;
#143 = EDGE_LOOP ( 'NONE', ( #917, #1045, #442, #979 ) ) ;
#144 = DIRECTION ( 'NONE',  ( 0.000000000000000000, -0.000000000000000000, 1.000000000000000000 ) ) ;
#145 = CARTESIAN_POINT ( 'NONE',  ( -1.450000000000000178, 3.999999999999999112, -1.699999999999999956 ) ) ;
#146 = LINE ( 'NONE', #1018, #1072 ) ;
#147 = EDGE_CURVE ( 'NONE', #1027, #933, #700, .T. ) ;
#148 = EDGE_LOOP ( 'NONE', ( #769, #605, #670, #25 ) ) ;
#149 =( NAMED_UNIT ( * ) SI_UNIT ( $, .STERADIAN. ) SOLID_ANGLE_UNIT ( ) );
#150 = ADVANCED_FACE ( 'NONE', ( #177 ), #1071, .F. ) ;
#151 = FACE_OUTER_BOUND ( 'NONE', #832, .T. ) ;
#152 = PLANE ( 'NONE',  #1093 ) ;
#153 = PRESENTATION_LAYER_ASSIGNMENT (  '', '', ( #613 ) ) ;
#154 = VECTOR ( 'NONE', #733, 1000.000000000000000 ) ;
#155 = ORIENTED_EDGE ( 'NONE', *, *, #422, .T. ) ;
#156 = EDGE_CURVE ( 'NONE', #231, #657, #534, .T. ) ;
#157 = AXIS2_PLACEMENT_3D ( 'NONE', #367, #723, #300 ) ;
#158 = CARTESIAN_POINT ( 'NONE',  ( -1.450000000000000178, 3.999999999999999112, 1.699999999999999956 ) ) ;
#159 = PRODUCT_CONTEXT ( 'NONE', #138, 'mechanical' ) ;
#160 = CARTESIAN_POINT ( 'NONE',  ( -1.899999999999999689, 13.85685424949238076, -2.000000000000000000 ) ) ;
#161 = ADVANCED_FACE ( 'NONE', ( #114 ), #554, .F. ) ;
#162 = DIRECTION ( 'NONE',  ( -0.000000000000000000, 1.000000000000000000, 0.000000000000000000 ) ) ;
#163 = VERTEX_POINT ( 'NONE', #456 ) ;
#164 = SURFACE_STYLE_FILL_AREA ( #187 ) ;
#165 = CARTESIAN_POINT ( 'NONE',  ( -1.350000000000000089, 3.999999999999999112, -1.699999999999999956 ) ) ;
#166 = CARTESIAN_POINT ( 'NONE',  ( 1.899999999999999911, 3.999999999999999112, -1.900000000000000799 ) ) ;
#167 = UNCERTAINTY_MEASURE_WITH_UNIT (LENGTH_MEASURE( 1.000000000000000082E-05 ), #472, 'distance_accuracy_value', 'NONE');
#168 = VECTOR ( 'NONE', #852, 1000.000000000000000 ) ;
#169 = ORIENTED_EDGE ( 'NONE', *, *, #197, .F. ) ;
#170 = CARTESIAN_POINT ( 'NONE',  ( -0.7849999999999999201, 0.000000000000000000, 1.625000000000000666 ) ) ;
#171 = FILL_AREA_STYLE_COLOUR ( '', #848 ) ;
#172 = VECTOR ( 'NONE', #16, 1000.000000000000000 ) ;
#173 = DIRECTION ( 'NONE',  ( -1.000000000000000000, 0.000000000000000000, 0.000000000000000000 ) ) ;
#174 = ADVANCED_FACE ( 'NONE', ( #990, #356 ), #1084, .T. ) ;
#175 = CARTESIAN_POINT ( 'NONE',  ( -1.899999999999999911, 3.999999999999999112, -1.899999999999999911 ) ) ;
#176 = ORIENTED_EDGE ( 'NONE', *, *, #634, .F. ) ;
#177 = FACE_OUTER_BOUND ( 'NONE', #663, .T. ) ;
#178 = EDGE_CURVE ( 'NONE', #218, #233, #715, .T. ) ;
#179 = EDGE_LOOP ( 'NONE', ( #524, #620, #1028, #95 ) ) ;
#180 = DIRECTION ( 'NONE',  ( -0.000000000000000000, -2.168404344971003346E-15, -1.000000000000000000 ) ) ;
#181 = DIRECTION ( 'NONE',  ( 0.000000000000000000, 0.000000000000000000, -1.000000000000000000 ) ) ;
#182 = CARTESIAN_POINT ( 'NONE',  ( 2.000000000000000000, 13.85685424949238076, 2.000000000000000000 ) ) ;
#183 = EDGE_LOOP ( 'NONE', ( #539, #420, #1074, #884 ) ) ;
#184 = LINE ( 'NONE', #980, #226 ) ;
#185 = VERTEX_POINT ( 'NONE', #202 ) ;
#186 = FACE_OUTER_BOUND ( 'NONE', #736, .T. ) ;
#187 = FILL_AREA_STYLE ('',( #171 ) ) ;
#188 = ADVANCED_FACE ( 'NONE', ( #711 ), #13, .F. ) ;
#189 = AXIS2_PLACEMENT_3D ( 'NONE', #969, #180, #454 ) ;
#190 = VECTOR ( 'NONE', #235, 1000.000000000000000 ) ;
#191 = DIRECTION ( 'NONE',  ( 0.000000000000000000, 0.000000000000000000, -1.000000000000000000 ) ) ;
#192 = VECTOR ( 'NONE', #361, 1000.000000000000000 ) ;
#193 = ORIENTED_EDGE ( 'NONE', *, *, #389, .T. ) ;
#194 = ORIENTED_EDGE ( 'NONE', *, *, #831, .F. ) ;
#195 = CARTESIAN_POINT ( 'NONE',  ( 1.899999999999999911, 3.999999999999999112, 1.899999999999999911 ) ) ;
#196 = CARTESIAN_POINT ( 'NONE',  ( 0.7849999999999999201, 0.000000000000000000, 1.624999999999997113 ) ) ;
#197 = EDGE_CURVE ( 'NONE', #927, #103, #985, .T. ) ;
#198 = CARTESIAN_POINT ( 'NONE',  ( -1.450000000000000178, 3.999999999999999112, 1.699999999999999956 ) ) ;
#199 = EDGE_LOOP ( 'NONE', ( #77, #968, #991, #41 ) ) ;
#200 = ORIENTED_EDGE ( 'NONE', *, *, #478, .F. ) ;
#201 = CARTESIAN_POINT ( 'NONE',  ( -1.450000000000000178, 3.999999999999999112, 1.699999999999999956 ) ) ;
#202 = CARTESIAN_POINT ( 'NONE',  ( 1.899999999999999911, 0.1000000000000000056, -2.000000000000000888 ) ) ;
#203 = EDGE_CURVE ( 'NONE', #3, #437, #617, .T. ) ;
#204 = VERTEX_POINT ( 'NONE', #544 ) ;
#205 = LINE ( 'NONE', #110, #423 ) ;
#206 = LINE ( 'NONE', #375, #488 ) ;
#207 = AXIS2_PLACEMENT_3D ( 'NONE', #1137, #959, #266 ) ;
#208 = DIRECTION ( 'NONE',  ( 0.000000000000000000, 0.000000000000000000, 1.000000000000000000 ) ) ;
#209 = VECTOR ( 'NONE', #173, 1000.000000000000000 ) ;
#210 = EDGE_LOOP ( 'NONE', ( #313, #589, #108, #956 ) ) ;
#211 = LINE ( 'NONE', #661, #921 ) ;
#212 = ORIENTED_EDGE ( 'NONE', *, *, #495, .F. ) ;
#213 = DIRECTION ( 'NONE',  ( -0.000000000000000000, -0.000000000000000000, -1.000000000000000000 ) ) ;
#214 = ORIENTED_EDGE ( 'NONE', *, *, #586, .F. ) ;
#215 = DIRECTION ( 'NONE',  ( 2.168404344971012812E-15, -1.000000000000000000, 0.000000000000000000 ) ) ;
#216 = EDGE_CURVE ( 'NONE', #103, #231, #971, .T. ) ;
#217 = CYLINDRICAL_SURFACE ( 'NONE', #469, 0.1000000000000000472 ) ;
#218 = VERTEX_POINT ( 'NONE', #889 ) ;
#219 = SURFACE_STYLE_FILL_AREA ( #289 ) ;
#220 = ORIENTED_EDGE ( 'NONE', *, *, #147, .T. ) ;
#221 = EDGE_CURVE ( 'NONE', #665, #218, #99, .T. ) ;
#222 = SURFACE_STYLE_FILL_AREA ( #1035 ) ;
#223 = VECTOR ( 'NONE', #627, 1000.000000000000000 ) ;
#224 = ORIENTED_EDGE ( 'NONE', *, *, #500, .F. ) ;
#225 = SHAPE_DEFINITION_REPRESENTATION ( #721, #687 ) ;
#226 = VECTOR ( 'NONE', #891, 1000.000000000000000 ) ;
#227 = ORIENTED_EDGE ( 'NONE', *, *, #543, .T. ) ;
#228 = CARTESIAN_POINT ( 'NONE',  ( -1.604999999999999982, 0.000000000000000000, 1.625000000000000222 ) ) ;
#229 = DIRECTION ( 'NONE',  ( 0.000000000000000000, 0.000000000000000000, -1.000000000000000000 ) ) ;
#230 = CARTESIAN_POINT ( 'NONE',  ( -1.350000000000000089, 3.999999999999999112, 1.699999999999999956 ) ) ;
#231 = VERTEX_POINT ( 'NONE', #362 ) ;
#232 = EDGE_CURVE ( 'NONE', #1049, #822, #295, .T. ) ;
#233 = VERTEX_POINT ( 'NONE', #1080 ) ;
#234 = SURFACE_STYLE_USAGE ( .BOTH. , #753 ) ;
#235 = DIRECTION ( 'NONE',  ( 0.000000000000000000, 1.000000000000000000, 0.000000000000000000 ) ) ;
#236 = CARTESIAN_POINT ( 'NONE',  ( -1.350000000000000089, 4.099999999999999645, 1.699999999999999956 ) ) ;
#237 = AXIS2_PLACEMENT_3D ( 'NONE', #1026, #600, #144 ) ;
#238 = VECTOR ( 'NONE', #939, 1000.000000000000000 ) ;
#239 = CLOSED_SHELL ( 'NONE', ( #742, #1090, #299, #786, #508, #647 ) ) ;
#240 = DIRECTION ( 'NONE',  ( -0.000000000000000000, -1.000000000000000000, -0.000000000000000000 ) ) ;
#241 = CARTESIAN_POINT ( 'NONE',  ( -1.450000000000000178, 4.099999999999999645, -1.699999999999999956 ) ) ;
#242 = AXIS2_PLACEMENT_3D ( 'NONE', #703, #86, #1141 ) ;
#243 = VERTEX_POINT ( 'NONE', #814 ) ;
#244 = UNCERTAINTY_MEASURE_WITH_UNIT (LENGTH_MEASURE( 1.000000000000000082E-05 ), #394, 'distance_accuracy_value', 'NONE');
#245 = DIRECTION ( 'NONE',  ( 0.000000000000000000, 0.000000000000000000, -1.000000000000000000 ) ) ;
#246 = ORIENTED_EDGE ( 'NONE', *, *, #761, .F. ) ;
#247 = FACE_OUTER_BOUND ( 'NONE', #471, .T. ) ;
#248 = LINE ( 'NONE', #158, #652 ) ;
#249 = CARTESIAN_POINT ( 'NONE',  ( 0.000000000000000000, 0.000000000000000000, 0.000000000000000000 ) ) ;
#250 = ORIENTED_EDGE ( 'NONE', *, *, #156, .F. ) ;
#251 = CARTESIAN_POINT ( 'NONE',  ( -1.450000000000000178, 0.5985297296610095907, 1.699999999999999956 ) ) ;
#252 = LINE ( 'NONE', #5, #1037 ) ;
#253 = EDGE_CURVE ( 'NONE', #731, #929, #441, .T. ) ;
#254 = DIRECTION ( 'NONE',  ( 0.000000000000000000, 0.000000000000000000, 1.000000000000000000 ) ) ;
#255 = ORIENTED_EDGE ( 'NONE', *, *, #1054, .F. ) ;
#256 = DIRECTION ( 'NONE',  ( 1.000000000000000000, -0.000000000000000000, -2.168404344971009115E-16 ) ) ;
#257 = VECTOR ( 'NONE', #89, 1000.000000000000000 ) ;
#258 = ORIENTED_EDGE ( 'NONE', *, *, #924, .F. ) ;
#259 = FACE_OUTER_BOUND ( 'NONE', #836, .T. ) ;
#260 = CARTESIAN_POINT ( 'NONE',  ( 1.604999999999999982, 0.09999999999999982514, -1.625000000000000444 ) ) ;
#261 = ADVANCED_FACE ( 'NONE', ( #351 ), #704, .T. ) ;
#262 = ORIENTED_EDGE ( 'NONE', *, *, #928, .F. ) ;
#263 = DIRECTION ( 'NONE',  ( 1.000000000000000000, 0.000000000000000000, 0.000000000000000000 ) ) ;
#264 = DIRECTION ( 'NONE',  ( 0.000000000000000000, -0.000000000000000000, -1.000000000000000000 ) ) ;
#265 = VERTEX_POINT ( 'NONE', #571 ) ;
#266 = DIRECTION ( 'NONE',  ( 0.000000000000000000, 0.000000000000000000, -1.000000000000000000 ) ) ;
#267 = DIRECTION ( 'NONE',  ( 0.000000000000000000, 0.000000000000000000, -1.000000000000000000 ) ) ;
#268 = EDGE_CURVE ( 'NONE', #38, #163, #381, .T. ) ;
#269 = VERTEX_POINT ( 'NONE', #994 ) ;
#270 = CARTESIAN_POINT ( 'NONE',  ( -1.899999999999999689, 0.09999999999999939493, 1.899999999999999911 ) ) ;
#271 = CYLINDRICAL_SURFACE ( 'NONE', #242, 0.1000000000000000472 ) ;
#272 = CARTESIAN_POINT ( 'NONE',  ( -1.604999999999999982, 0.09999999999999982514, 1.625000000000000222 ) ) ;
#273 = EDGE_CURVE ( 'NONE', #644, #843, #646, .T. ) ;
#274 = CARTESIAN_POINT ( 'NONE',  ( -2.000000000000000000, 13.85685424949238076, 1.899999999999999911 ) ) ;
#275 = DIRECTION ( 'NONE',  ( 0.000000000000000000, 1.000000000000000000, 0.000000000000000000 ) ) ;
#276 = PRESENTATION_LAYER_ASSIGNMENT (  '', '', ( #666 ) ) ;
#277 = VECTOR ( 'NONE', #951, 1000.000000000000000 ) ;
#278 = AXIS2_PLACEMENT_3D ( 'NONE', #579, #474, #388 ) ;
#279 = AXIS2_PLACEMENT_3D ( 'NONE', #490, #61, #142 ) ;
#280 = STYLED_ITEM ( 'NONE', ( #942 ), #355 ) ;
#281 = DIRECTION ( 'NONE',  ( 0.000000000000000000, 1.000000000000000000, 0.000000000000000000 ) ) ;
#282 = AXIS2_PLACEMENT_3D ( 'NONE', #640, #275, #633 ) ;
#283 = ORIENTED_EDGE ( 'NONE', *, *, #873, .T. ) ;
#284 = DIRECTION ( 'NONE',  ( 0.000000000000000000, -0.000000000000000000, -1.000000000000000000 ) ) ;
#285 = PLANE ( 'NONE',  #282 ) ;
#286 = ADVANCED_FACE ( 'NONE', ( #493 ), #662, .T. ) ;
#287 = CARTESIAN_POINT ( 'NONE',  ( 1.604999999999999982, 3.451850235317801996, 1.624999999999996669 ) ) ;
#288 = ORIENTED_EDGE ( 'NONE', *, *, #845, .F. ) ;
#289 = FILL_AREA_STYLE ('',( #907 ) ) ;
#290 = ORIENTED_EDGE ( 'NONE', *, *, #334, .T. ) ;
#291 = CARTESIAN_POINT ( 'NONE',  ( 1.604999999999999982, 0.000000000000000000, 1.624999999999996669 ) ) ;
#292 = DIRECTION ( 'NONE',  ( -1.000000000000000000, 0.000000000000000000, 0.000000000000000000 ) ) ;
#293 = DIRECTION ( 'NONE',  ( -1.000000000000000000, 0.000000000000000000, 0.000000000000000000 ) ) ;
#294 = VECTOR ( 'NONE', #229, 1000.000000000000000 ) ;
#295 = CIRCLE ( 'NONE', #559, 0.1000000000000000472 ) ;
#296 = PLANE ( 'NONE',  #278 ) ;
#297 = ORIENTED_EDGE ( 'NONE', *, *, #904, .F. ) ;
#298 = SURFACE_SIDE_STYLE ('',( #219 ) ) ;
#299 = ADVANCED_FACE ( 'NONE', ( #654 ), #296, .F. ) ;
#300 = DIRECTION ( 'NONE',  ( 0.000000000000000000, -0.000000000000000000, 1.000000000000000000 ) ) ;
#301 = DIRECTION ( 'NONE',  ( 0.000000000000000000, 0.000000000000000000, 1.000000000000000000 ) ) ;
#302 = ORIENTED_EDGE ( 'NONE', *, *, #401, .T. ) ;
#303 = CYLINDRICAL_SURFACE ( 'NONE', #997, 0.1000000000000000472 ) ;
#304 = EDGE_CURVE ( 'NONE', #614, #1049, #906, .T. ) ;
#305 = FACE_OUTER_BOUND ( 'NONE', #987, .T. ) ;
#306 = DIRECTION ( 'NONE',  ( 0.000000000000000000, -1.000000000000000000, 0.000000000000000000 ) ) ;
#307 = ORIENTED_EDGE ( 'NONE', *, *, #595, .F. ) ;
#308 = ORIENTED_EDGE ( 'NONE', *, *, #601, .T. ) ;
#309 = DIRECTION ( 'NONE',  ( -0.000000000000000000, -0.000000000000000000, 1.000000000000000000 ) ) ;
#310 = EDGE_CURVE ( 'NONE', #1049, #856, #32, .T. ) ;
#311 = ADVANCED_FACE ( 'NONE', ( #395 ), #1097, .T. ) ;
#312 = AXIS2_PLACEMENT_3D ( 'NONE', #912, #561, #1092 ) ;
#313 = ORIENTED_EDGE ( 'NONE', *, *, #873, .F. ) ;
#314 = DIRECTION ( 'NONE',  ( 1.000000000000000000, 0.000000000000000000, 0.000000000000000000 ) ) ;
#315 = AXIS2_PLACEMENT_3D ( 'NONE', #87, #281, #876 ) ;
#316 = ADVANCED_FACE ( 'NONE', ( #1089 ), #565, .F. ) ;
#317 = ORIENTED_EDGE ( 'NONE', *, *, #896, .T. ) ;
#318 = DIRECTION ( 'NONE',  ( -1.000000000000000000, 0.000000000000000000, -0.000000000000000000 ) ) ;
#319 = ORIENTED_EDGE ( 'NONE', *, *, #896, .F. ) ;
#320 = FACE_OUTER_BOUND ( 'NONE', #391, .T. ) ;
#321 = EDGE_CURVE ( 'NONE', #437, #475, #139, .T. ) ;
#322 = CARTESIAN_POINT ( 'NONE',  ( -2.000000000000000000, 0.1000000000000000056, 2.000000000000000000 ) ) ;
#323 = SPHERICAL_SURFACE ( 'NONE', #577, 0.1000000000000000056 ) ;
#324 = LINE ( 'NONE', #839, #76 ) ;
#325 = CARTESIAN_POINT ( 'NONE',  ( 2.000000000000000000, 0.1000000000000000056, 2.000000000000000000 ) ) ;
#326 = DIRECTION ( 'NONE',  ( -1.000000000000000000, -0.000000000000000000, -2.644395542647571766E-16 ) ) ;
#327 = DIRECTION ( 'NONE',  ( -0.000000000000000000, 1.000000000000000000, -0.000000000000000000 ) ) ;
#328 = VECTOR ( 'NONE', #828, 1000.000000000000000 ) ;
#329 = AXIS2_PLACEMENT_3D ( 'NONE', #145, #850, #582 ) ;
#330 = AXIS2_PLACEMENT_3D ( 'NONE', #938, #333, #612 ) ;
#331 =( GEOMETRIC_REPRESENTATION_CONTEXT ( 3 ) GLOBAL_UNCERTAINTY_ASSIGNED_CONTEXT ( ( #1124 ) ) GLOBAL_UNIT_ASSIGNED_CONTEXT ( ( #857, #879, #439 ) ) REPRESENTATION_CONTEXT ( 'NONE', 'WORKASPACE' ) );
#332 = ORIENTED_EDGE ( 'NONE', *, *, #19, .T. ) ;
#333 = DIRECTION ( 'NONE',  ( -0.000000000000000000, -1.000000000000000000, -0.000000000000000000 ) ) ;
#334 = EDGE_CURVE ( 'NONE', #843, #243, #131, .T. ) ;
#335 = VERTEX_POINT ( 'NONE', #64 ) ;
#336 = CARTESIAN_POINT ( 'NONE',  ( 0.000000000000000000, 4.099999999999999645, 0.000000000000000000 ) ) ;
#337 = DIRECTION ( 'NONE',  ( 0.000000000000000000, 1.000000000000000000, -0.000000000000000000 ) ) ;
#338 = ORIENTED_EDGE ( 'NONE', *, *, #65, .T. ) ;
#339 = CARTESIAN_POINT ( 'NONE',  ( -2.000000000000000000, 3.999999999999999112, 1.899999999999999911 ) ) ;
#340 = ORIENTED_EDGE ( 'NONE', *, *, #1105, .F. ) ;
#341 = DIRECTION ( 'NONE',  ( 0.000000000000000000, 0.000000000000000000, -1.000000000000000000 ) ) ;
#342 = FACE_OUTER_BOUND ( 'NONE', #119, .T. ) ;
#343 = PRODUCT_RELATED_PRODUCT_CATEGORY ( 'part', '', ( #801 ) ) ;
#344 = LINE ( 'NONE', #1048, #596 ) ;
#345 = LINE ( 'NONE', #619, #668 ) ;
#346 = AXIS2_PLACEMENT_3D ( 'NONE', #805, #104, #1050 ) ;
#347 = ORIENTED_EDGE ( 'NONE', *, *, #999, .T. ) ;
#348 = DIRECTION ( 'NONE',  ( -0.000000000000000000, 0.000000000000000000, 1.000000000000000000 ) ) ;
#349 = VECTOR ( 'NONE', #659, 1000.000000000000000 ) ;
#350 = ADVANCED_FACE ( 'NONE', ( #1010 ), #217, .T. ) ;
#351 = FACE_OUTER_BOUND ( 'NONE', #918, .T. ) ;
#352 = DIRECTION ( 'NONE',  ( 0.000000000000000000, -0.000000000000000000, -1.000000000000000000 ) ) ;
#353 = ORIENTED_EDGE ( 'NONE', *, *, #500, .T. ) ;
#354 = LINE ( 'NONE', #963, #223 ) ;
#355 = MANIFOLD_SOLID_BREP ( 'Cut-Extrude1', #578 ) ;
#356 = FACE_OUTER_BOUND ( 'NONE', #827, .T. ) ;
#357 = CARTESIAN_POINT ( 'NONE',  ( -1.899999999999999689, 13.85685424949238076, 2.000000000000000000 ) ) ;
#358 = UNCERTAINTY_MEASURE_WITH_UNIT (LENGTH_MEASURE( 1.000000000000000082E-05 ), #433, 'distance_accuracy_value', 'NONE');
#359 = ADVANCED_FACE ( 'NONE', ( #517 ), #744, .F. ) ;
#360 = LINE ( 'NONE', #878, #277 ) ;
#361 = DIRECTION ( 'NONE',  ( -1.000000000000000000, 0.000000000000000000, 2.168404344971009115E-16 ) ) ;
#362 = CARTESIAN_POINT ( 'NONE',  ( -1.350000000000000089, 3.999999999999999112, 1.699999999999999956 ) ) ;
#363 = VERTEX_POINT ( 'NONE', #862 ) ;
#364 = DIRECTION ( 'NONE',  ( 5.288791085295143532E-16, 0.000000000000000000, -1.000000000000000000 ) ) ;
#365 = MANIFOLD_SOLID_BREP ( 'Boss-Extrude2[2]', #239 ) ;
#366 = DIRECTION ( 'NONE',  ( -1.000000000000000000, 0.000000000000000000, -0.000000000000000000 ) ) ;
#367 = CARTESIAN_POINT ( 'NONE',  ( 0.000000000000000000, 0.000000000000000000, 0.000000000000000000 ) ) ;
#368 = VECTOR ( 'NONE', #1133, 1000.000000000000000 ) ;
#369 = VECTOR ( 'NONE', #1140, 1000.000000000000000 ) ;
#370 = AXIS2_PLACEMENT_3D ( 'NONE', #410, #1136, #60 ) ;
#371 = DIRECTION ( 'NONE',  ( 0.000000000000000000, 0.000000000000000000, 1.000000000000000000 ) ) ;
#372 = ORIENTED_EDGE ( 'NONE', *, *, #65, .F. ) ;
#373 = CARTESIAN_POINT ( 'NONE',  ( -0.7849999999999999201, 3.451850235317801996, 1.625000000000000666 ) ) ;
#374 = ORIENTED_EDGE ( 'NONE', *, *, #747, .F. ) ;
#375 = CARTESIAN_POINT ( 'NONE',  ( 0.7849999999999999201, 3.451850235317801996, 1.624999999999997113 ) ) ;
#376 = ADVANCED_FACE ( 'NONE', ( #342 ), #271, .T. ) ;
#377 = CARTESIAN_POINT ( 'NONE',  ( -1.350000000000000089, 3.999999999999999112, 1.699999999999999956 ) ) ;
#378 = EDGE_LOOP ( 'NONE', ( #602, #961, #491 ) ) ;
#379 =( NAMED_UNIT ( * ) SI_UNIT ( $, .STERADIAN. ) SOLID_ANGLE_UNIT ( ) );
#380 = DIRECTION ( 'NONE',  ( 0.000000000000000000, 0.000000000000000000, 1.000000000000000000 ) ) ;
#381 = LINE ( 'NONE', #824, #154 ) ;
#382 = ORIENTED_EDGE ( 'NONE', *, *, #785, .T. ) ;
#383 = DIRECTION ( 'NONE',  ( 1.000000000000000000, 0.000000000000000000, 0.000000000000000000 ) ) ;
#384 = ORIENTED_EDGE ( 'NONE', *, *, #967, .T. ) ;
#385 = CARTESIAN_POINT ( 'NONE',  ( -1.604999999999999982, 3.451850235317801996, 1.625000000000000222 ) ) ;
#386 = CIRCLE ( 'NONE', #975, 0.1000000000000000472 ) ;
#387 = CIRCLE ( 'NONE', #189, 0.1000000000000002554 ) ;
#388 = DIRECTION ( 'NONE',  ( 0.000000000000000000, 0.000000000000000000, -1.000000000000000000 ) ) ;
#389 = EDGE_CURVE ( 'NONE', #496, #644, #970, .T. ) ;
#390 = VECTOR ( 'NONE', #449, 1000.000000000000000 ) ;
#391 = EDGE_LOOP ( 'NONE', ( #100, #419, #332, #639 ) ) ;
#392 = CARTESIAN_POINT ( 'NONE',  ( 1.899999999999999911, 0.1000000000000000056, 2.000000000000000000 ) ) ;
#393 = ORIENTED_EDGE ( 'NONE', *, *, #310, .F. ) ;
#394 =( LENGTH_UNIT ( ) NAMED_UNIT ( * ) SI_UNIT ( .MILLI., .METRE. ) );
#395 = FACE_OUTER_BOUND ( 'NONE', #625, .T. ) ;
#396 = VERTEX_POINT ( 'NONE', #1135 ) ;
#397 = SURFACE_STYLE_FILL_AREA ( #587 ) ;
#398 = EDGE_CURVE ( 'NONE', #231, #14, #689, .T. ) ;
#399 = ORIENTED_EDGE ( 'NONE', *, *, #785, .F. ) ;
#400 = CARTESIAN_POINT ( 'NONE',  ( -1.604999999999999982, 3.451850235317801996, -1.624999999999999556 ) ) ;
#401 = EDGE_CURVE ( 'NONE', #856, #941, #526, .T. ) ;
#402 = ORIENTED_EDGE ( 'NONE', *, *, #904, .T. ) ;
#403 =( LENGTH_UNIT ( ) NAMED_UNIT ( * ) SI_UNIT ( .MILLI., .METRE. ) );
#404 = CARTESIAN_POINT ( 'NONE',  ( -2.000000000000000000, 13.85685424949238076, 2.000000000000000000 ) ) ;
#405 = EDGE_CURVE ( 'NONE', #712, #29, #354, .T. ) ;
#406 = CIRCLE ( 'NONE', #699, 0.1000000000000000472 ) ;
#407 = ORIENTED_EDGE ( 'NONE', *, *, #999, .F. ) ;
#408 = VECTOR ( 'NONE', #531, 1000.000000000000000 ) ;
#409 = DIRECTION ( 'NONE',  ( 0.000000000000000000, 0.000000000000000000, -1.000000000000000000 ) ) ;
#410 = CARTESIAN_POINT ( 'NONE',  ( -1.604999999999999982, 3.451850235317801996, -1.624999999999999556 ) ) ;
#411 =( NAMED_UNIT ( * ) PLANE_ANGLE_UNIT ( ) SI_UNIT ( $, .RADIAN. ) );
#412 = ORIENTED_EDGE ( 'NONE', *, *, #428, .T. ) ;
#413 = PLANE ( 'NONE',  #1070 ) ;
#414 = DIRECTION ( 'NONE',  ( -0.000000000000000000, -0.000000000000000000, 1.000000000000000000 ) ) ;
#415 = ADVANCED_FACE ( 'NONE', ( #247 ), #606, .F. ) ;
#416 = DIRECTION ( 'NONE',  ( 1.000000000000000000, 0.000000000000000000, -0.000000000000000000 ) ) ;
#417 = SURFACE_SIDE_STYLE ('',( #397 ) ) ;
#418 = DIRECTION ( 'NONE',  ( 0.000000000000000000, 1.000000000000000000, 0.000000000000000000 ) ) ;
#419 = ORIENTED_EDGE ( 'NONE', *, *, #268, .T. ) ;
#420 = ORIENTED_EDGE ( 'NONE', *, *, #118, .T. ) ;
#421 =( GEOMETRIC_REPRESENTATION_CONTEXT ( 3 ) GLOBAL_UNCERTAINTY_ASSIGNED_CONTEXT ( ( #244 ) ) GLOBAL_UNIT_ASSIGNED_CONTEXT ( ( #394, #1019, #149 ) ) REPRESENTATION_CONTEXT ( 'NONE', 'WORKASPACE' ) );
#422 = EDGE_CURVE ( 'NONE', #563, #945, #826, .T. ) ;
#423 = VECTOR ( 'NONE', #40, 1000.000000000000000 ) ;
#424 = DIRECTION ( 'NONE',  ( 0.000000000000000000, 1.000000000000000000, 0.000000000000000000 ) ) ;
#425 = CARTESIAN_POINT ( 'NONE',  ( 2.000000000000000000, 0.1000000000000000056, 2.000000000000000000 ) ) ;
#426 = VECTOR ( 'NONE', #914, 1000.000000000000000 ) ;
#427 = LINE ( 'NONE', #322, #75 ) ;
#428 = EDGE_CURVE ( 'NONE', #204, #822, #870, .T. ) ;
#429 = DIRECTION ( 'NONE',  ( 1.000000000000000000, 0.000000000000000000, 5.288791085295143532E-16 ) ) ;
#430 = EDGE_CURVE ( 'NONE', #84, #1055, #252, .T. ) ;
#431 = ORIENTED_EDGE ( 'NONE', *, *, #457, .T. ) ;
#432 = LINE ( 'NONE', #170, #257 ) ;
#433 =( LENGTH_UNIT ( ) NAMED_UNIT ( * ) SI_UNIT ( .MILLI., .METRE. ) );
#434 = CARTESIAN_POINT ( 'NONE',  ( -1.350000000000000089, 4.099999999999999645, -1.699999999999999956 ) ) ;
#435 = DIRECTION ( 'NONE',  ( -1.000000000000000000, 0.000000000000000000, 0.000000000000000000 ) ) ;
#436 = LINE ( 'NONE', #966, #368 ) ;
#437 = VERTEX_POINT ( 'NONE', #1051 ) ;
#438 = CARTESIAN_POINT ( 'NONE',  ( 1.899999999999999911, 13.85685424949238076, -1.900000000000000799 ) ) ;
#439 =( NAMED_UNIT ( * ) SI_UNIT ( $, .STERADIAN. ) SOLID_ANGLE_UNIT ( ) );
#440 = ADVANCED_FACE ( 'NONE', ( #259 ), #570, .F. ) ;
#441 = LINE ( 'NONE', #287, #998 ) ;
#442 = ORIENTED_EDGE ( 'NONE', *, *, #634, .T. ) ;
#443 = CYLINDRICAL_SURFACE ( 'NONE', #207, 0.1000000000000000472 ) ;
#444 = CARTESIAN_POINT ( 'NONE',  ( 1.604999999999999982, 3.451850235317801996, 1.624999999999996669 ) ) ;
#445 = CIRCLE ( 'NONE', #521, 0.1000000000000000472 ) ;
#446 = AXIS2_PLACEMENT_3D ( 'NONE', #774, #337, #519 ) ;
#447 = EDGE_LOOP ( 'NONE', ( #308, #33, #1081, #302 ) ) ;
#448 = LINE ( 'NONE', #251, #883 ) ;
#449 = DIRECTION ( 'NONE',  ( -0.000000000000000000, 1.000000000000000000, -0.000000000000000000 ) ) ;
#450 = VECTOR ( 'NONE', #245, 1000.000000000000000 ) ;
#451 = CARTESIAN_POINT ( 'NONE',  ( -1.450000000000000178, 3.999999999999999112, 1.699999999999999956 ) ) ;
#452 = VERTEX_POINT ( 'NONE', #983 ) ;
#453 = ORIENTED_EDGE ( 'NONE', *, *, #989, .F. ) ;
#454 = DIRECTION ( 'NONE',  ( 0.000000000000000000, 1.000000000000000000, -2.168404344971003346E-15 ) ) ;
#455 =( NAMED_UNIT ( * ) PLANE_ANGLE_UNIT ( ) SI_UNIT ( $, .RADIAN. ) );
#456 = CARTESIAN_POINT ( 'NONE',  ( -2.000000000000000000, 0.1000000000000000056, -1.899999999999999689 ) ) ;
#457 = EDGE_CURVE ( 'NONE', #886, #868, #988, .T. ) ;
#458 = DIRECTION ( 'NONE',  ( 2.644395542647571766E-16, -0.000000000000000000, 1.000000000000000000 ) ) ;
#459 = ORIENTED_EDGE ( 'NONE', *, *, #777, .F. ) ;
#460 = CARTESIAN_POINT ( 'NONE',  ( -1.899999999999999911, 4.099999999999999645, -1.899999999999999911 ) ) ;
#461 = LINE ( 'NONE', #291, #792 ) ;
#462 = CARTESIAN_POINT ( 'NONE',  ( -1.604999999999999982, 0.09999999999999982514, 1.625000000000000222 ) ) ;
#463 = ORIENTED_EDGE ( 'NONE', *, *, #543, .F. ) ;
#464 = EDGE_CURVE ( 'NONE', #1104, #1027, #386, .T. ) ;
#465 = LINE ( 'NONE', #823, #43 ) ;
#466 = AXIS2_PLACEMENT_3D ( 'NONE', #799, #1062, #341 ) ;
#467 = VECTOR ( 'NONE', #807, 1000.000000000000000 ) ;
#468 = COLOUR_RGB ( '',0.7960784313725489669, 0.8235294117647058432, 0.9372549019607843146 ) ;
#469 = AXIS2_PLACEMENT_3D ( 'NONE', #764, #916, #486 ) ;
#470 = DIRECTION ( 'NONE',  ( 0.000000000000000000, -1.000000000000000000, 0.000000000000000000 ) ) ;
#471 = EDGE_LOOP ( 'NONE', ( #193, #745, #290, #88 ) ) ;
#472 =( LENGTH_UNIT ( ) NAMED_UNIT ( * ) SI_UNIT ( .MILLI., .METRE. ) );
#473 = CARTESIAN_POINT ( 'NONE',  ( -1.450000000000000178, 3.999999999999999112, 1.699999999999999956 ) ) ;
#474 = DIRECTION ( 'NONE',  ( 1.000000000000000000, -0.000000000000000000, 0.000000000000000000 ) ) ;
#475 = VERTEX_POINT ( 'NONE', #909 ) ;
#476 = ORIENTED_EDGE ( 'NONE', *, *, #304, .F. ) ;
#477 = DIRECTION ( 'NONE',  ( 0.000000000000000000, -0.000000000000000000, 1.000000000000000000 ) ) ;
#478 = EDGE_CURVE ( 'NONE', #14, #84, #658, .T. ) ;
#479 = ORIENTED_EDGE ( 'NONE', *, *, #958, .F. ) ;
#480 = CARTESIAN_POINT ( 'NONE',  ( 1.604999999999999982, 3.451850235317801996, -1.625000000000000444 ) ) ;
#481 = ORIENTED_EDGE ( 'NONE', *, *, #928, .T. ) ;
#482 = LINE ( 'NONE', #400, #1034 ) ;
#483 = VECTOR ( 'NONE', #1002, 1000.000000000000000 ) ;
#484 = CIRCLE ( 'NONE', #829, 0.1000000000000000472 ) ;
#485 = AXIS2_PLACEMENT_3D ( 'NONE', #182, #191, #642 ) ;
#486 = DIRECTION ( 'NONE',  ( -2.168404344971005170E-16, 0.000000000000000000, -1.000000000000000000 ) ) ;
#487 = MECHANICAL_DESIGN_GEOMETRIC_PRESENTATION_REPRESENTATION (  '', ( #1109 ), #936 ) ;
#488 = VECTOR ( 'NONE', #1083, 1000.000000000000000 ) ;
#489 = EDGE_LOOP ( 'NONE', ( #382, #1139, #591, #49 ) ) ;
#490 = CARTESIAN_POINT ( 'NONE',  ( 0.000000000000000000, 0.000000000000000000, 0.000000000000000000 ) ) ;
#491 = ORIENTED_EDGE ( 'NONE', *, *, #1079, .F. ) ;
#492 = LINE ( 'NONE', #575, #328 ) ;
#493 = FACE_OUTER_BOUND ( 'NONE', #10, .T. ) ;
#494 = ORIENTED_EDGE ( 'NONE', *, *, #677, .F. ) ;
#495 = EDGE_CURVE ( 'NONE', #185, #117, #894, .T. ) ;
#496 = VERTEX_POINT ( 'NONE', #105 ) ;
#497 = LINE ( 'NONE', #919, #881 ) ;
#498 = ORIENTED_EDGE ( 'NONE', *, *, #618, .F. ) ;
#499 = DIRECTION ( 'NONE',  ( 1.000000000000000000, -0.000000000000000000, 0.000000000000000000 ) ) ;
#500 = EDGE_CURVE ( 'NONE', #3, #269, #465, .T. ) ;
#501 = VECTOR ( 'NONE', #418, 1000.000000000000000 ) ;
#502 = AXIS2_PLACEMENT_3D ( 'NONE', #871, #162, #254 ) ;
#503 = DIRECTION ( 'NONE',  ( -1.000000000000000000, 0.000000000000000000, 0.000000000000000000 ) ) ;
#504 = SPHERICAL_SURFACE ( 'NONE', #934, 0.1000000000000000056 ) ;
#505 = VECTOR ( 'NONE', #18, 1000.000000000000000 ) ;
#506 = ORIENTED_EDGE ( 'NONE', *, *, #1079, .T. ) ;
#507 = FILL_AREA_STYLE ('',( #678 ) ) ;
#508 = ADVANCED_FACE ( 'NONE', ( #564 ), #112, .F. ) ;
#509 = LINE ( 'NONE', #698, #209 ) ;
#510 = LINE ( 'NONE', #854, #501 ) ;
#511 = CARTESIAN_POINT ( 'NONE',  ( -1.899999999999999911, 4.099999999999999645, 2.000000000000000000 ) ) ;
#512 = ORIENTED_EDGE ( 'NONE', *, *, #46, .T. ) ;
#513 = SURFACE_SIDE_STYLE ('',( #222 ) ) ;
#514 = EDGE_CURVE ( 'NONE', #1055, #1011, #547, .T. ) ;
#515 = DIRECTION ( 'NONE',  ( 0.000000000000000000, 0.000000000000000000, 1.000000000000000000 ) ) ;
#516 = ORIENTED_EDGE ( 'NONE', *, *, #1040, .F. ) ;
#517 = FACE_OUTER_BOUND ( 'NONE', #1005, .T. ) ;
#518 = EDGE_CURVE ( 'NONE', #868, #929, #461, .T. ) ;
#519 = DIRECTION ( 'NONE',  ( 2.168404344971008079E-15, 0.000000000000000000, 1.000000000000000000 ) ) ;
#520 = VECTOR ( 'NONE', #181, 1000.000000000000000 ) ;
#521 = AXIS2_PLACEMENT_3D ( 'NONE', #638, #213, #383 ) ;
#522 = ORIENTED_EDGE ( 'NONE', *, *, #514, .T. ) ;
#523 = FACE_OUTER_BOUND ( 'NONE', #758, .T. ) ;
#524 = ORIENTED_EDGE ( 'NONE', *, *, #221, .F. ) ;
#525 = DIRECTION ( 'NONE',  ( 0.000000000000000000, 1.000000000000000000, 0.000000000000000000 ) ) ;
#526 = LINE ( 'NONE', #1046, #390 ) ;
#527 = PLANE ( 'NONE',  #978 ) ;
#528 = ADVANCED_FACE ( 'NONE', ( #30 ), #813, .F. ) ;
#529 = ORIENTED_EDGE ( 'NONE', *, *, #464, .F. ) ;
#530 = PLANE ( 'NONE',  #346 ) ;
#531 = DIRECTION ( 'NONE',  ( 1.000000000000000000, 0.000000000000000000, 0.000000000000000000 ) ) ;
#532 = CARTESIAN_POINT ( 'NONE',  ( 1.604999999999999982, 0.000000000000000000, 1.624999999999996669 ) ) ;
#533 = DIRECTION ( 'NONE',  ( 0.000000000000000000, -1.000000000000000000, 0.000000000000000000 ) ) ;
#534 = LINE ( 'NONE', #377, #847 ) ;
#535 = ORIENTED_EDGE ( 'NONE', *, *, #880, .T. ) ;
#536 = CIRCLE ( 'NONE', #686, 0.09999999999999982514 ) ;
#537 = AXIS2_PLACEMENT_3D ( 'NONE', #867, #78, #776 ) ;
#538 = AXIS2_PLACEMENT_3D ( 'NONE', #28, #470, #264 ) ;
#539 = ORIENTED_EDGE ( 'NONE', *, *, #1007, .F. ) ;
#540 = DIRECTION ( 'NONE',  ( 0.000000000000000000, 0.000000000000000000, -1.000000000000000000 ) ) ;
#541 =( GEOMETRIC_REPRESENTATION_CONTEXT ( 3 ) GLOBAL_UNCERTAINTY_ASSIGNED_CONTEXT ( ( #705 ) ) GLOBAL_UNIT_ASSIGNED_CONTEXT ( ( #1039, #411, #50 ) ) REPRESENTATION_CONTEXT ( 'NONE', 'WORKASPACE' ) );
#542 = VECTOR ( 'NONE', #414, 1000.000000000000000 ) ;
#543 = EDGE_CURVE ( 'NONE', #1104, #933, #536, .T. ) ;
#544 = CARTESIAN_POINT ( 'NONE',  ( -1.899999999999999689, 0.1000000000000000056, 2.000000000000000000 ) ) ;
#545 = ORIENTED_EDGE ( 'NONE', *, *, #518, .F. ) ;
#546 = DIRECTION ( 'NONE',  ( 0.000000000000000000, 0.000000000000000000, 1.000000000000000000 ) ) ;
#547 = LINE ( 'NONE', #800, #37 ) ;
#548 = EDGE_CURVE ( 'NONE', #335, #945, #17, .T. ) ;
#549 = DIRECTION ( 'NONE',  ( 0.000000000000000000, 0.000000000000000000, 1.000000000000000000 ) ) ;
#550 = ORIENTED_EDGE ( 'NONE', *, *, #765, .T. ) ;
#551 = PLANE ( 'NONE',  #24 ) ;
#552 = ORIENTED_EDGE ( 'NONE', *, *, #98, .F. ) ;
#553 = CARTESIAN_POINT ( 'NONE',  ( -2.000000000000000000, 3.999999999999999112, 2.000000000000000000 ) ) ;
#554 = PLANE ( 'NONE',  #116 ) ;
#555 = EDGE_CURVE ( 'NONE', #452, #933, #1069, .T. ) ;
#556 = LINE ( 'NONE', #1075, #1020 ) ;
#557 = LINE ( 'NONE', #473, #1130 ) ;
#558 = CIRCLE ( 'NONE', #74, 0.1000000000000000472 ) ;
#559 = AXIS2_PLACEMENT_3D ( 'NONE', #964, #23, #371 ) ;
#560 = DIRECTION ( 'NONE',  ( 0.000000000000000000, 0.000000000000000000, -1.000000000000000000 ) ) ;
#561 = DIRECTION ( 'NONE',  ( -0.000000000000000000, -1.000000000000000000, -0.000000000000000000 ) ) ;
#562 = ADVANCED_FACE ( 'NONE', ( #21 ), #285, .T. ) ;
#563 = VERTEX_POINT ( 'NONE', #27 ) ;
#564 = FACE_OUTER_BOUND ( 'NONE', #696, .T. ) ;
#565 = PLANE ( 'NONE',  #1022 ) ;
#566 = ORIENTED_EDGE ( 'NONE', *, *, #197, .T. ) ;
#567 = DIRECTION ( 'NONE',  ( -1.000000000000000000, 0.000000000000000000, 0.000000000000000000 ) ) ;
#568 = CARTESIAN_POINT ( 'NONE',  ( -1.604999999999999982, 0.000000000000000000, -1.624999999999999556 ) ) ;
#569 = VERTEX_POINT ( 'NONE', #201 ) ;
#570 = PLANE ( 'NONE',  #1076 ) ;
#571 = CARTESIAN_POINT ( 'NONE',  ( -0.7849999999999999201, 0.000000000000000000, -1.624999999999999334 ) ) ;
#572 = ORIENTED_EDGE ( 'NONE', *, *, #773, .F. ) ;
#573 = DIRECTION ( 'NONE',  ( 0.000000000000000000, 0.000000000000000000, -1.000000000000000000 ) ) ;
#574 = EDGE_LOOP ( 'NONE', ( #155, #1067, #297, #399 ) ) ;
#575 = CARTESIAN_POINT ( 'NONE',  ( 1.604999999999999982, 0.09999999999999982514, 1.624999999999996669 ) ) ;
#576 = VECTOR ( 'NONE', #1108, 1000.000000000000000 ) ;
#577 = AXIS2_PLACEMENT_3D ( 'NONE', #166, #957, #435 ) ;
#578 = CLOSED_SHELL ( 'NONE', ( #697, #150, #188, #161, #359, #174, #1066, #1015, #261, #311, #31, #1023, #286, #350, #943, #840, #866, #376, #915, #795, #947, #1142, #316 ) ) ;
#579 = CARTESIAN_POINT ( 'NONE',  ( 0.7849999999999999201, 3.451850235317801996, 1.624999999999997113 ) ) ;
#580 = VECTOR ( 'NONE', #760, 1000.000000000000000 ) ;
#581 = ORIENTED_EDGE ( 'NONE', *, *, #36, .F. ) ;
#582 = DIRECTION ( 'NONE',  ( -1.000000000000000000, 0.000000000000000000, -0.000000000000000000 ) ) ;
#583 = CARTESIAN_POINT ( 'NONE',  ( 1.604999999999999982, 0.000000000000000000, 1.624999999999996669 ) ) ;
#584 = EDGE_LOOP ( 'NONE', ( #15, #476, #453, #637 ) ) ;
#585 = DIRECTION ( 'NONE',  ( 0.000000000000000000, 1.000000000000000000, 0.000000000000000000 ) ) ;
#586 = EDGE_CURVE ( 'NONE', #475, #868, #206, .T. ) ;
#587 = FILL_AREA_STYLE ('',( #931 ) ) ;
#588 = LINE ( 'NONE', #592, #903 ) ;
#589 = ORIENTED_EDGE ( 'NONE', *, *, #1047, .F. ) ;
#590 = LINE ( 'NONE', #136, #576 ) ;
#591 = ORIENTED_EDGE ( 'NONE', *, *, #495, .T. ) ;
#592 = CARTESIAN_POINT ( 'NONE',  ( 2.000000000000000000, 4.099999999999999645, 1.899999999999999911 ) ) ;
#593 = ORIENTED_EDGE ( 'NONE', *, *, #422, .F. ) ;
#594 = CARTESIAN_POINT ( 'NONE',  ( -1.604999999999999982, 0.09999999999999982514, -1.624999999999999556 ) ) ;
#595 = EDGE_CURVE ( 'NONE', #396, #569, #557, .T. ) ;
#596 = VECTOR ( 'NONE', #326, 1000.000000000000000 ) ;
#597 = CARTESIAN_POINT ( 'NONE',  ( -1.899999999999999689, 0.1000000000000000056, -2.000000000000000000 ) ) ;
#598 = APPLICATION_PROTOCOL_DEFINITION ( 'draft international standard', 'automotive_design', 1998, #138 ) ;
#599 = AXIS2_PLACEMENT_3D ( 'NONE', #784, #952, #946 ) ;
#600 = DIRECTION ( 'NONE',  ( 0.000000000000000000, 1.000000000000000000, 0.000000000000000000 ) ) ;
#601 = EDGE_CURVE ( 'NONE', #941, #614, #1088, .T. ) ;
#602 = ORIENTED_EDGE ( 'NONE', *, *, #984, .T. ) ;
#603 = SURFACE_STYLE_USAGE ( .BOTH. , #513 ) ;
#604 = CARTESIAN_POINT ( 'NONE',  ( -1.450000000000000178, 0.5985297296610095907, 1.699999999999999956 ) ) ;
#605 = ORIENTED_EDGE ( 'NONE', *, *, #672, .F. ) ;
#606 = PLANE ( 'NONE',  #631 ) ;
#607 = LINE ( 'NONE', #949, #1129 ) ;
#608 = ORIENTED_EDGE ( 'NONE', *, *, #405, .T. ) ;
#609 = CARTESIAN_POINT ( 'NONE',  ( -1.450000000000000178, 3.999999999999999112, 1.699999999999999956 ) ) ;
#610 = DIRECTION ( 'NONE',  ( -1.000000000000000000, -0.000000000000000000, -0.000000000000000000 ) ) ;
#611 = EDGE_CURVE ( 'NONE', #815, #669, #211, .T. ) ;
#612 = DIRECTION ( 'NONE',  ( 0.000000000000000000, 0.000000000000000000, 1.000000000000000000 ) ) ;
#613 = STYLED_ITEM ( 'NONE', ( #101 ), #1119 ) ;
#614 = VERTEX_POINT ( 'NONE', #940 ) ;
#615 = CARTESIAN_POINT ( 'NONE',  ( -1.450000000000000178, 3.999999999999999112, -1.699999999999999956 ) ) ;
#616 = PRESENTATION_STYLE_ASSIGNMENT (( #73 ) ) ;
#617 = LINE ( 'NONE', #895, #771 ) ;
#618 = EDGE_CURVE ( 'NONE', #475, #731, #48, .T. ) ;
#619 = CARTESIAN_POINT ( 'NONE',  ( -0.7849999999999999201, 0.09999999999999982514, 1.625000000000000666 ) ) ;
#620 = ORIENTED_EDGE ( 'NONE', *, *, #677, .T. ) ;
#621 = DIRECTION ( 'NONE',  ( 0.000000000000000000, 0.000000000000000000, -1.000000000000000000 ) ) ;
#622 = DIRECTION ( 'NONE',  ( -1.000000000000000000, 0.000000000000000000, 0.000000000000000000 ) ) ;
#623 = ORIENTED_EDGE ( 'NONE', *, *, #667, .T. ) ;
#624 = LINE ( 'NONE', #160, #953 ) ;
#625 = EDGE_LOOP ( 'NONE', ( #950, #220, #463 ) ) ;
#626 = CARTESIAN_POINT ( 'NONE',  ( -1.899999999999999689, 3.999999999999999112, 2.000000000000000000 ) ) ;
#627 = DIRECTION ( 'NONE',  ( 0.000000000000000000, 0.000000000000000000, -1.000000000000000000 ) ) ;
#628 = DIRECTION ( 'NONE',  ( 0.000000000000000000, 0.000000000000000000, 1.000000000000000000 ) ) ;
#629 = ORIENTED_EDGE ( 'NONE', *, *, #79, .T. ) ;
#630 = DIRECTION ( 'NONE',  ( -1.000000000000000000, 0.000000000000000000, 0.000000000000000000 ) ) ;
#631 = AXIS2_PLACEMENT_3D ( 'NONE', #336, #533, #710 ) ;
#632 = CYLINDRICAL_SURFACE ( 'NONE', #920, 0.1000000000000000472 ) ;
#633 = DIRECTION ( 'NONE',  ( 0.000000000000000000, -0.000000000000000000, 1.000000000000000000 ) ) ;
#634 = EDGE_CURVE ( 'NONE', #396, #843, #324, .T. ) ;
#635 = STYLED_ITEM ( 'NONE', ( #616 ), #365 ) ;
#636 = CARTESIAN_POINT ( 'NONE',  ( 2.000000000000000000, 13.85685424949238076, 2.000000000000000000 ) ) ;
#637 = ORIENTED_EDGE ( 'NONE', *, *, #46, .F. ) ;
#638 = CARTESIAN_POINT ( 'NONE',  ( 1.899999999999999911, 3.999999999999999112, 1.899999999999999911 ) ) ;
#639 = ORIENTED_EDGE ( 'NONE', *, *, #922, .T. ) ;
#640 = CARTESIAN_POINT ( 'NONE',  ( 0.000000000000000000, 0.1000000000000000056, 0.000000000000000000 ) ) ;
#641 = EDGE_CURVE ( 'NONE', #1103, #185, #926, .T. ) ;
#642 = DIRECTION ( 'NONE',  ( -1.000000000000000000, 0.000000000000000000, -0.000000000000000000 ) ) ;
#643 = SURFACE_STYLE_USAGE ( .BOTH. , #298 ) ;
#644 = VERTEX_POINT ( 'NONE', #674 ) ;
#645 = DIRECTION ( 'NONE',  ( 1.000000000000000000, 2.168404344971003346E-15, -0.000000000000000000 ) ) ;
#646 = LINE ( 'NONE', #241, #135 ) ;
#647 = ADVANCED_FACE ( 'NONE', ( #671 ), #54, .T. ) ;
#648 = CARTESIAN_POINT ( 'NONE',  ( -0.7849999999999999201, 0.09999999999999982514, -1.624999999999999334 ) ) ;
#649 = DIRECTION ( 'NONE',  ( -0.000000000000000000, 0.000000000000000000, 1.000000000000000000 ) ) ;
#650 = CARTESIAN_POINT ( 'NONE',  ( 2.000000000000000000, 3.999999999999999112, 2.000000000000000000 ) ) ;
#651 = CIRCLE ( 'NONE', #312, 0.1000000000000000472 ) ;
#652 = VECTOR ( 'NONE', #416, 1000.000000000000000 ) ;
#653 = PRODUCT_DEFINITION_FORMATION_WITH_SPECIFIED_SOURCE ( 'ANY', '', #801, .NOT_KNOWN. ) ;
#654 = FACE_OUTER_BOUND ( 'NONE', #1132, .T. ) ;
#655 = EDGE_LOOP ( 'NONE', ( #407, #726, #529, #459 ) ) ;
#656 = DIRECTION ( 'NONE',  ( 0.000000000000000000, 1.000000000000000000, 0.000000000000000000 ) ) ;
#657 = VERTEX_POINT ( 'NONE', #1014 ) ;
#658 = LINE ( 'NONE', #993, #426 ) ;
#659 = DIRECTION ( 'NONE',  ( -0.000000000000000000, 0.000000000000000000, 1.000000000000000000 ) ) ;
#660 = ORIENTED_EDGE ( 'NONE', *, *, #1105, .T. ) ;
#661 = CARTESIAN_POINT ( 'NONE',  ( -1.604999999999999982, 0.000000000000000000, 1.625000000000000222 ) ) ;
#662 = CYLINDRICAL_SURFACE ( 'NONE', #682, 0.1000000000000000472 ) ;
#663 = EDGE_LOOP ( 'NONE', ( #412, #512, #128, #317 ) ) ;
#664 = PLANE ( 'NONE',  #329 ) ;
#665 = VERTEX_POINT ( 'NONE', #594 ) ;
#666 = STYLED_ITEM ( 'NONE', ( #834 ), #717 ) ;
#667 = EDGE_CURVE ( 'NONE', #269, #886, #497, .T. ) ;
#668 = VECTOR ( 'NONE', #267, 1000.000000000000000 ) ;
#669 = VERTEX_POINT ( 'NONE', #228 ) ;
#670 = ORIENTED_EDGE ( 'NONE', *, *, #812, .F. ) ;
#671 = FACE_OUTER_BOUND ( 'NONE', #199, .T. ) ;
#672 = EDGE_CURVE ( 'NONE', #927, #1055, #590, .T. ) ;
#673 = ORIENTED_EDGE ( 'NONE', *, *, #232, .T. ) ;
#674 = CARTESIAN_POINT ( 'NONE',  ( -1.350000000000000089, 4.099999999999999645, -1.699999999999999956 ) ) ;
#675 = CARTESIAN_POINT ( 'NONE',  ( 1.899999999999999911, 13.85685424949238076, 2.000000000000000000 ) ) ;
#676 = CARTESIAN_POINT ( 'NONE',  ( 0.7849999999999999201, 0.000000000000000000, 1.624999999999997113 ) ) ;
#677 = EDGE_CURVE ( 'NONE', #665, #815, #482, .T. ) ;
#678 = FILL_AREA_STYLE_COLOUR ( '', #1126 ) ;
#679 = DIRECTION ( 'NONE',  ( 0.000000000000000000, -1.000000000000000000, 0.000000000000000000 ) ) ;
#680 = AXIS2_PLACEMENT_3D ( 'NONE', #404, #749, #409 ) ;
#681 = AXIS2_PLACEMENT_3D ( 'NONE', #804, #364, #1086 ) ;
#682 = AXIS2_PLACEMENT_3D ( 'NONE', #819, #292, #208 ) ;
#683 = FACE_OUTER_BOUND ( 'NONE', #803, .T. ) ;
#684 = SURFACE_STYLE_USAGE ( .BOTH. , #417 ) ;
#685 = LINE ( 'NONE', #357, #755 ) ;
#686 = AXIS2_PLACEMENT_3D ( 'NONE', #737, #645, #215 ) ;
#687 = ADVANCED_BREP_SHAPE_REPRESENTATION ( 'XAL4040103ME', ( #717, #365, #355, #1119, #279 ), #541 ) ;
#688 = EDGE_LOOP ( 'NONE', ( #34, #250, #911, #45 ) ) ;
#689 = LINE ( 'NONE', #694, #937 ) ;
#690 = DIRECTION ( 'NONE',  ( 0.000000000000000000, 0.000000000000000000, 1.000000000000000000 ) ) ;
#691 = DIRECTION ( 'NONE',  ( 0.000000000000000000, 0.000000000000000000, 1.000000000000000000 ) ) ;
#692 = DIRECTION ( 'NONE',  ( -0.000000000000000000, 0.000000000000000000, 1.000000000000000000 ) ) ;
#693 = ORIENTED_EDGE ( 'NONE', *, *, #178, .F. ) ;
#694 = CARTESIAN_POINT ( 'NONE',  ( -1.350000000000000089, 3.999999999999999112, 1.699999999999999956 ) ) ;
#695 = PLANE ( 'NONE',  #71 ) ;
#696 = EDGE_LOOP ( 'NONE', ( #194, #545, #841, #126 ) ) ;
#697 = ADVANCED_FACE ( 'NONE', ( #320 ), #844, .F. ) ;
#698 = CARTESIAN_POINT ( 'NONE',  ( -1.450000000000000178, 3.999999999999999112, -1.699999999999999956 ) ) ;
#699 = AXIS2_PLACEMENT_3D ( 'NONE', #96, #263, #621 ) ;
#700 = CIRCLE ( 'NONE', #811, 0.1000000000000000472 ) ;
#701 = AXIS2_PLACEMENT_3D ( 'NONE', #97, #1063, #90 ) ;
#702 = LINE ( 'NONE', #974, #172 ) ;
#703 = CARTESIAN_POINT ( 'NONE',  ( 1.899999999999999911, 3.999999999999999112, 0.000000000000000000 ) ) ;
#704 = CYLINDRICAL_SURFACE ( 'NONE', #58, 0.09999999999999982514 ) ;
#705 = UNCERTAINTY_MEASURE_WITH_UNIT (LENGTH_MEASURE( 1.000000000000000082E-05 ), #1039, 'distance_accuracy_value', 'NONE');
#706 = ORIENTED_EDGE ( 'NONE', *, *, #601, .F. ) ;
#707 = FACE_OUTER_BOUND ( 'NONE', #584, .T. ) ;
#708 = CARTESIAN_POINT ( 'NONE',  ( 1.899999999999999911, 4.099999999999999645, -2.000000000000000888 ) ) ;
#709 = ORIENTED_EDGE ( 'NONE', *, *, #845, .T. ) ;
#710 = DIRECTION ( 'NONE',  ( 0.000000000000000000, -0.000000000000000000, -1.000000000000000000 ) ) ;
#711 = FACE_OUTER_BOUND ( 'NONE', #447, .T. ) ;
#712 = VERTEX_POINT ( 'NONE', #230 ) ;
#713 = EDGE_CURVE ( 'NONE', #731, #3, #492, .T. ) ;
#714 = DIRECTION ( 'NONE',  ( 1.000000000000000000, 0.000000000000000000, 0.000000000000000000 ) ) ;
#715 = LINE ( 'NONE', #272, #757 ) ;
#716 = DIRECTION ( 'NONE',  ( 0.000000000000000000, -1.000000000000000000, 0.000000000000000000 ) ) ;
#717 = MANIFOLD_SOLID_BREP ( 'Boss-Extrude2[1]', #935 ) ;
#718 = ORIENTED_EDGE ( 'NONE', *, *, #555, .F. ) ;
#719 = CARTESIAN_POINT ( 'NONE',  ( -1.450000000000000178, 3.999999999999999112, 1.699999999999999956 ) ) ;
#720 = VECTOR ( 'NONE', #429, 1000.000000000000000 ) ;
#721 = PRODUCT_DEFINITION_SHAPE ( 'NONE', 'NONE',  #107 ) ;
#722 = ORIENTED_EDGE ( 'NONE', *, *, #79, .F. ) ;
#723 = DIRECTION ( 'NONE',  ( 0.000000000000000000, 1.000000000000000000, 0.000000000000000000 ) ) ;
#724 = VECTOR ( 'NONE', #740, 1000.000000000000000 ) ;
#725 = CARTESIAN_POINT ( 'NONE',  ( 2.000000000000000000, 13.85685424949238076, -2.000000000000000888 ) ) ;
#726 = ORIENTED_EDGE ( 'NONE', *, *, #1059, .F. ) ;
#727 = DIRECTION ( 'NONE',  ( -0.000000000000000000, -0.000000000000000000, 1.000000000000000000 ) ) ;
#728 = ADVANCED_FACE ( 'NONE', ( #63 ), #413, .T. ) ;
#729 = DIRECTION ( 'NONE',  ( 0.000000000000000000, 1.000000000000000000, -0.000000000000000000 ) ) ;
#730 = DIRECTION ( 'NONE',  ( 0.000000000000000000, -1.000000000000000000, 0.000000000000000000 ) ) ;
#731 = VERTEX_POINT ( 'NONE', #1101 ) ;
#732 = DIRECTION ( 'NONE',  ( 0.000000000000000000, 0.000000000000000000, 1.000000000000000000 ) ) ;
#733 = DIRECTION ( 'NONE',  ( -0.000000000000000000, -1.000000000000000000, 0.000000000000000000 ) ) ;
#734 = FACE_OUTER_BOUND ( 'NONE', #995, .T. ) ;
#735 =( GEOMETRIC_REPRESENTATION_CONTEXT ( 3 ) GLOBAL_UNCERTAINTY_ASSIGNED_CONTEXT ( ( #358 ) ) GLOBAL_UNIT_ASSIGNED_CONTEXT ( ( #433, #455, #1128 ) ) REPRESENTATION_CONTEXT ( 'NONE', 'WORKASPACE' ) );
#736 = EDGE_LOOP ( 'NONE', ( #722, #861, #372, #783 ) ) ;
#737 = CARTESIAN_POINT ( 'NONE',  ( -1.899999999999999689, 3.999999999999999112, 1.899999999999999911 ) ) ;
#738 =( GEOMETRIC_REPRESENTATION_CONTEXT ( 3 ) GLOBAL_UNCERTAINTY_ASSIGNED_CONTEXT ( ( #167 ) ) GLOBAL_UNIT_ASSIGNED_CONTEXT ( ( #472, #897, #379 ) ) REPRESENTATION_CONTEXT ( 'NONE', 'WORKASPACE' ) );
#739 = VECTOR ( 'NONE', #92, 1000.000000000000000 ) ;
#740 = DIRECTION ( 'NONE',  ( 0.000000000000000000, 0.000000000000000000, -1.000000000000000000 ) ) ;
#741 = ORIENTED_EDGE ( 'NONE', *, *, #586, .T. ) ;
#742 = ADVANCED_FACE ( 'NONE', ( #305 ), #695, .F. ) ;
#743 = ORIENTED_EDGE ( 'NONE', *, *, #268, .F. ) ;
#744 = PLANE ( 'NONE',  #701 ) ;
#745 = ORIENTED_EDGE ( 'NONE', *, *, #273, .T. ) ;
#746 =( NAMED_UNIT ( * ) SI_UNIT ( $, .STERADIAN. ) SOLID_ANGLE_UNIT ( ) );
#747 = EDGE_CURVE ( 'NONE', #669, #1061, #960, .T. ) ;
#748 = ORIENTED_EDGE ( 'NONE', *, *, #672, .T. ) ;
#749 = DIRECTION ( 'NONE',  ( 1.000000000000000000, -0.000000000000000000, 0.000000000000000000 ) ) ;
#750 = EDGE_LOOP ( 'NONE', ( #1127, #992, #566, #124 ) ) ;
#751 = APPLICATION_PROTOCOL_DEFINITION ( 'draft international standard', 'automotive_design', 1998, #94 ) ;
#752 = FACE_OUTER_BOUND ( 'NONE', #378, .T. ) ;
#753 = SURFACE_SIDE_STYLE ('',( #1117 ) ) ;
#754 = ADVANCED_FACE ( 'NONE', ( #782 ), #791, .T. ) ;
#755 = VECTOR ( 'NONE', #716, 1000.000000000000000 ) ;
#756 = EDGE_CURVE ( 'NONE', #437, #886, #436, .T. ) ;
#757 = VECTOR ( 'NONE', #796, 1000.000000000000000 ) ;
#758 = EDGE_LOOP ( 'NONE', ( #498, #741, #820, #1116 ) ) ;
#759 = CARTESIAN_POINT ( 'NONE',  ( -1.450000000000000178, 0.5985297296610095907, -1.699999999999999956 ) ) ;
#760 = DIRECTION ( 'NONE',  ( 1.000000000000000000, 0.000000000000000000, -5.288791085295143532E-16 ) ) ;
#761 = EDGE_CURVE ( 'NONE', #363, #335, #9, .T. ) ;
#762 = CARTESIAN_POINT ( 'NONE',  ( -1.350000000000000089, 0.5985297296610095907, 1.699999999999999956 ) ) ;
#763 = CARTESIAN_POINT ( 'NONE',  ( -1.350000000000000089, 0.5985297296610095907, 1.699999999999999956 ) ) ;
#764 = CARTESIAN_POINT ( 'NONE',  ( -4.119968255444918328E-16, 3.999999999999999112, -1.900000000000000355 ) ) ;
#765 = EDGE_CURVE ( 'NONE', #233, #1056, #345, .T. ) ;
#766 = FACE_OUTER_BOUND ( 'NONE', #141, .T. ) ;
#767 = LINE ( 'NONE', #1123, #113 ) ;
#768 = EDGE_LOOP ( 'NONE', ( #283, #200, #122, #1008 ) ) ;
#769 = ORIENTED_EDGE ( 'NONE', *, *, #430, .T. ) ;
#770 = AXIS2_PLACEMENT_3D ( 'NONE', #719, #649, #996 ) ;
#771 = VECTOR ( 'NONE', #802, 1000.000000000000000 ) ;
#772 = ORIENTED_EDGE ( 'NONE', *, *, #595, .T. ) ;
#773 = EDGE_CURVE ( 'NONE', #117, #563, #624, .T. ) ;
#774 = CARTESIAN_POINT ( 'NONE',  ( -1.899999999999999911, 3.999999999999999112, -1.899999999999999911 ) ) ;
#775 = ORIENTED_EDGE ( 'NONE', *, *, #59, .T. ) ;
#776 = DIRECTION ( 'NONE',  ( -1.000000000000000000, 0.000000000000000000, 5.288791085295143532E-16 ) ) ;
#777 = EDGE_CURVE ( 'NONE', #945, #1104, #872, .T. ) ;
#778 = EDGE_LOOP ( 'NONE', ( #552, #608, #535, #986 ) ) ;
#779 = DIRECTION ( 'NONE',  ( 0.000000000000000000, 0.000000000000000000, -1.000000000000000000 ) ) ;
#780 = DIRECTION ( 'NONE',  ( 1.000000000000000000, -0.000000000000000000, -0.000000000000000000 ) ) ;
#781 = CARTESIAN_POINT ( 'NONE',  ( -2.000000000000000000, 3.999999999999999112, -1.899999999999999689 ) ) ;
#782 = FACE_OUTER_BOUND ( 'NONE', #8, .T. ) ;
#783 = ORIENTED_EDGE ( 'NONE', *, *, #401, .F. ) ;
#784 = CARTESIAN_POINT ( 'NONE',  ( -1.899999999999999911, 3.999999999999999112, -1.899999999999999911 ) ) ;
#785 = EDGE_CURVE ( 'NONE', #563, #1103, #607, .T. ) ;
#786 = ADVANCED_FACE ( 'NONE', ( #523 ), #855, .F. ) ;
#787 = DIRECTION ( 'NONE',  ( -0.000000000000000000, -1.000000000000000000, -0.000000000000000000 ) ) ;
#788 = MECHANICAL_DESIGN_GEOMETRIC_PRESENTATION_REPRESENTATION (  '', ( #613 ), #738 ) ;
#789 = AXIS2_PLACEMENT_3D ( 'NONE', #604, #515, #853 ) ;
#790 = ORIENTED_EDGE ( 'NONE', *, *, #765, .F. ) ;
#791 = PLANE ( 'NONE',  #863 ) ;
#792 = VECTOR ( 'NONE', #125, 1000.000000000000000 ) ;
#793 = ORIENTED_EDGE ( 'NONE', *, *, #428, .F. ) ;
#794 = DIRECTION ( 'NONE',  ( 0.000000000000000000, 1.000000000000000000, 0.000000000000000000 ) ) ;
#795 = ADVANCED_FACE ( 'NONE', ( #1138 ), #102, .F. ) ;
#796 = DIRECTION ( 'NONE',  ( 1.000000000000000000, -0.000000000000000000, 5.288791085295143532E-16 ) ) ;
#797 = ORIENTED_EDGE ( 'NONE', *, *, #984, .F. ) ;
#798 = EDGE_LOOP ( 'NONE', ( #1065, #550, #80, #1024 ) ) ;
#799 = CARTESIAN_POINT ( 'NONE',  ( 1.899999999999999911, 3.999999999999999112, -1.900000000000000799 ) ) ;
#800 = CARTESIAN_POINT ( 'NONE',  ( -1.450000000000000178, 4.099999999999999645, 1.699999999999999956 ) ) ;
#801 = PRODUCT ( 'XAL4040103ME', 'XAL4040103ME', '', ( #159 ) ) ;
#802 = DIRECTION ( 'NONE',  ( -1.000000000000000000, 0.000000000000000000, 2.644395542647571766E-16 ) ) ;
#803 = EDGE_LOOP ( 'NONE', ( #72, #347, #593 ) ) ;
#804 = CARTESIAN_POINT ( 'NONE',  ( -1.604999999999999982, 3.451850235317801996, 1.625000000000000222 ) ) ;
#805 = CARTESIAN_POINT ( 'NONE',  ( -1.350000000000000089, 3.999999999999999112, 1.699999999999999956 ) ) ;
#806 = DIRECTION ( 'NONE',  ( 1.000000000000000000, -0.000000000000000000, 0.000000000000000000 ) ) ;
#807 = DIRECTION ( 'NONE',  ( -0.000000000000000000, 0.000000000000000000, 1.000000000000000000 ) ) ;
#808 = DIRECTION ( 'NONE',  ( -0.000000000000000000, -0.000000000000000000, 1.000000000000000000 ) ) ;
#809 = PRESENTATION_LAYER_ASSIGNMENT (  '', '', ( #635 ) ) ;
#810 = CIRCLE ( 'NONE', #954, 0.1000000000000000472 ) ;
#811 = AXIS2_PLACEMENT_3D ( 'NONE', #7, #729, #549 ) ;
#812 = EDGE_CURVE ( 'NONE', #14, #927, #205, .T. ) ;
#813 = PLANE ( 'NONE',  #22 ) ;
#814 = CARTESIAN_POINT ( 'NONE',  ( -1.450000000000000178, 4.099999999999999645, 1.699999999999999956 ) ) ;
#815 = VERTEX_POINT ( 'NONE', #568 ) ;
#816 = CARTESIAN_POINT ( 'NONE',  ( 1.899999999999999911, 3.999999999999999112, -2.000000000000000888 ) ) ;
#817 = CARTESIAN_POINT ( 'NONE',  ( 2.000000000000000000, 0.1000000000000000056, -2.000000000000000888 ) ) ;
#818 = EDGE_CURVE ( 'NONE', #218, #669, #146, .T. ) ;
#819 = CARTESIAN_POINT ( 'NONE',  ( 0.000000000000000000, 3.999999999999999112, 1.899999999999999911 ) ) ;
#820 = ORIENTED_EDGE ( 'NONE', *, *, #518, .T. ) ;
#821 = CARTESIAN_POINT ( 'NONE',  ( -1.899999999999999911, 4.099999999999999645, 1.899999999999999911 ) ) ;
#822 = VERTEX_POINT ( 'NONE', #392 ) ;
#823 = CARTESIAN_POINT ( 'NONE',  ( 1.604999999999999982, 3.451850235317801996, -1.625000000000000444 ) ) ;
#824 = CARTESIAN_POINT ( 'NONE',  ( -2.000000000000000000, 13.85685424949238076, -1.899999999999999689 ) ) ;
#825 = ORIENTED_EDGE ( 'NONE', *, *, #147, .F. ) ;
#826 = CIRCLE ( 'NONE', #599, 0.1000000000000000472 ) ;
#827 = EDGE_LOOP ( 'NONE', ( #709, #1087, #133, #69 ) ) ;
#828 = DIRECTION ( 'NONE',  ( 0.000000000000000000, 0.000000000000000000, -1.000000000000000000 ) ) ;
#829 = AXIS2_PLACEMENT_3D ( 'NONE', #175, #424, #691 ) ;
#830 = DIRECTION ( 'NONE',  ( -1.000000000000000000, -0.000000000000000000, -0.000000000000000000 ) ) ;
#831 = EDGE_CURVE ( 'NONE', #929, #269, #1013, .T. ) ;
#832 = EDGE_LOOP ( 'NONE', ( #176, #772, #913, #55 ) ) ;
#833 = CARTESIAN_POINT ( 'NONE',  ( 1.899999999999999911, 3.999999999999999112, 1.899999999999999911 ) ) ;
#834 = PRESENTATION_STYLE_ASSIGNMENT (( #234 ) ) ;
#835 = CARTESIAN_POINT ( 'NONE',  ( 0.7849999999999999201, 0.09999999999999982514, 1.624999999999997113 ) ) ;
#836 = EDGE_LOOP ( 'NONE', ( #790, #53, #384, #479 ) ) ;
#837 = PRESENTATION_STYLE_ASSIGNMENT (( #684 ) ) ;
#838 = ORIENTED_EDGE ( 'NONE', *, *, #59, .F. ) ;
#839 = CARTESIAN_POINT ( 'NONE',  ( -1.450000000000000178, 0.5985297296610095907, -1.699999999999999956 ) ) ;
#840 = ADVANCED_FACE ( 'NONE', ( #752 ), #504, .T. ) ;
#841 = ORIENTED_EDGE ( 'NONE', *, *, #457, .F. ) ;
#842 = CARTESIAN_POINT ( 'NONE',  ( 2.000000000000000000, 0.1000000000000000056, -1.900000000000000577 ) ) ;
#843 = VERTEX_POINT ( 'NONE', #1099 ) ;
#844 = PLANE ( 'NONE',  #680 ) ;
#845 = EDGE_CURVE ( 'NONE', #1104, #363, #588, .T. ) ;
#846 = AXIS2_PLACEMENT_3D ( 'NONE', #609, #366, #348 ) ;
#847 = VECTOR ( 'NONE', #976, 1000.000000000000000 ) ;
#848 = COLOUR_RGB ( '',0.7960784313725489669, 0.8235294117647058432, 0.9372549019607843146 ) ;
#849 = FACE_OUTER_BOUND ( 'NONE', #183, .T. ) ;
#850 = DIRECTION ( 'NONE',  ( 0.000000000000000000, 0.000000000000000000, -1.000000000000000000 ) ) ;
#851 = ORIENTED_EDGE ( 'NONE', *, *, #747, .T. ) ;
#852 = DIRECTION ( 'NONE',  ( 0.000000000000000000, -1.000000000000000000, 0.000000000000000000 ) ) ;
#853 = DIRECTION ( 'NONE',  ( 1.000000000000000000, 0.000000000000000000, -0.000000000000000000 ) ) ;
#854 = CARTESIAN_POINT ( 'NONE',  ( -1.350000000000000089, 0.5985297296610095907, -1.699999999999999956 ) ) ;
#855 = PLANE ( 'NONE',  #537 ) ;
#856 = VERTEX_POINT ( 'NONE', #842 ) ;
#857 =( LENGTH_UNIT ( ) NAMED_UNIT ( * ) SI_UNIT ( .MILLI., .METRE. ) );
#858 = ADVANCED_FACE ( 'NONE', ( #932 ), #152, .T. ) ;
#859 = LINE ( 'NONE', #675, #1000 ) ;
#860 = DIRECTION ( 'NONE',  ( 0.000000000000000000, 0.000000000000000000, 1.000000000000000000 ) ) ;
#861 = ORIENTED_EDGE ( 'NONE', *, *, #641, .F. ) ;
#862 = CARTESIAN_POINT ( 'NONE',  ( 1.899999999999999911, 4.099999999999999645, 1.899999999999999911 ) ) ;
#863 = AXIS2_PLACEMENT_3D ( 'NONE', #249, #1060, #352 ) ;
#864 = VECTOR ( 'NONE', #26, 1000.000000000000000 ) ;
#865 = UNCERTAINTY_MEASURE_WITH_UNIT (LENGTH_MEASURE( 1.000000000000000082E-05 ), #403, 'distance_accuracy_value', 'NONE');
#866 = ADVANCED_FACE ( 'NONE', ( #62 ), #323, .T. ) ;
#867 = CARTESIAN_POINT ( 'NONE',  ( 1.604999999999999982, 3.451850235317801996, 1.624999999999996669 ) ) ;
#868 = VERTEX_POINT ( 'NONE', #676 ) ;
#869 = FACE_OUTER_BOUND ( 'NONE', #655, .T. ) ;
#870 = LINE ( 'NONE', #425, #885 ) ;
#871 = CARTESIAN_POINT ( 'NONE',  ( 1.899999999999999911, 3.999999999999999112, -1.900000000000000799 ) ) ;
#872 = LINE ( 'NONE', #511, #1052 ) ;
#873 = EDGE_CURVE ( 'NONE', #657, #84, #1031, .T. ) ;
#874 = EDGE_LOOP ( 'NONE', ( #258, #1134, #775, #494 ) ) ;
#875 = CARTESIAN_POINT ( 'NONE',  ( 2.000000000000000000, 3.999999999999999112, -1.900000000000000799 ) ) ;
#876 = DIRECTION ( 'NONE',  ( 0.000000000000000000, -0.000000000000000000, 1.000000000000000000 ) ) ;
#877 = ORIENTED_EDGE ( 'NONE', *, *, #1112, .T. ) ;
#878 = CARTESIAN_POINT ( 'NONE',  ( -1.604999999999999982, 0.09999999999999982514, -1.624999999999999556 ) ) ;
#879 =( NAMED_UNIT ( * ) PLANE_ANGLE_UNIT ( ) SI_UNIT ( $, .RADIAN. ) );
#880 = EDGE_CURVE ( 'NONE', #29, #644, #510, .T. ) ;
#881 = VECTOR ( 'NONE', #1033, 1000.000000000000000 ) ;
#882 = DIRECTION ( 'NONE',  ( 2.168404344971009115E-16, -0.000000000000000000, 1.000000000000000000 ) ) ;
#883 = VECTOR ( 'NONE', #794, 1000.000000000000000 ) ;
#884 = ORIENTED_EDGE ( 'NONE', *, *, #140, .F. ) ;
#885 = VECTOR ( 'NONE', #780, 1000.000000000000000 ) ;
#886 = VERTEX_POINT ( 'NONE', #67 ) ;
#887 = DIRECTION ( 'NONE',  ( 0.000000000000000000, -1.000000000000000000, 0.000000000000000000 ) ) ;
#888 = EDGE_CURVE ( 'NONE', #103, #1011, #767, .T. ) ;
#889 = CARTESIAN_POINT ( 'NONE',  ( -1.604999999999999982, 0.09999999999999982514, 1.625000000000000222 ) ) ;
#890 = ORIENTED_EDGE ( 'NONE', *, *, #19, .F. ) ;
#891 = DIRECTION ( 'NONE',  ( 1.000000000000000000, 0.000000000000000000, 0.000000000000000000 ) ) ;
#892 = EDGE_LOOP ( 'NONE', ( #262, #319, #825, #1100 ) ) ;
#893 = CARTESIAN_POINT ( 'NONE',  ( -1.450000000000000178, 4.099999999999999645, 1.699999999999999956 ) ) ;
#894 = LINE ( 'NONE', #817, #93 ) ;
#895 = CARTESIAN_POINT ( 'NONE',  ( 1.604999999999999982, 0.09999999999999982514, -1.625000000000000444 ) ) ;
#896 = EDGE_CURVE ( 'NONE', #933, #204, #685, .T. ) ;
#897 =( NAMED_UNIT ( * ) PLANE_ANGLE_UNIT ( ) SI_UNIT ( $, .RADIAN. ) );
#898 = ORIENTED_EDGE ( 'NONE', *, *, #713, .F. ) ;
#899 = DIRECTION ( 'NONE',  ( -1.000000000000000000, 0.000000000000000000, 2.168404344971008868E-16 ) ) ;
#900 = LINE ( 'NONE', #1064, #408 ) ;
#901 = ORIENTED_EDGE ( 'NONE', *, *, #756, .F. ) ;
#902 = CARTESIAN_POINT ( 'NONE',  ( 1.899999999999999911, 3.999999999999999112, -1.900000000000000799 ) ) ;
#903 = VECTOR ( 'NONE', #499, 1000.000000000000000 ) ;
#904 = EDGE_CURVE ( 'NONE', #1103, #335, #134, .T. ) ;
#905 = DIRECTION ( 'NONE',  ( -1.000000000000000000, -0.000000000000000000, -0.000000000000000000 ) ) ;
#906 = LINE ( 'NONE', #44, #1094 ) ;
#907 = FILL_AREA_STYLE_COLOUR ( '', #1107 ) ;
#908 = EDGE_LOOP ( 'NONE', ( #338, #402, #340 ) ) ;
#909 = CARTESIAN_POINT ( 'NONE',  ( 0.7849999999999999201, 0.09999999999999982514, 1.624999999999997113 ) ) ;
#910 = CARTESIAN_POINT ( 'NONE',  ( 0.000000000000000000, 3.999999999999999112, 0.000000000000000000 ) ) ;
#911 = ORIENTED_EDGE ( 'NONE', *, *, #216, .F. ) ;
#912 = CARTESIAN_POINT ( 'NONE',  ( -1.899999999999999911, 0.09999999999999939493, -1.899999999999999689 ) ) ;
#913 = ORIENTED_EDGE ( 'NONE', *, *, #1007, .T. ) ;
#914 = DIRECTION ( 'NONE',  ( -0.000000000000000000, 1.000000000000000000, -0.000000000000000000 ) ) ;
#915 = ADVANCED_FACE ( 'NONE', ( #4 ), #530, .F. ) ;
#916 = DIRECTION ( 'NONE',  ( 1.000000000000000000, 0.000000000000000000, -2.168404344971009115E-16 ) ) ;
#917 = ORIENTED_EDGE ( 'NONE', *, *, #880, .F. ) ;
#918 = EDGE_LOOP ( 'NONE', ( #1091, #743, #516, #572 ) ) ;
#919 = CARTESIAN_POINT ( 'NONE',  ( 1.604999999999999982, 0.000000000000000000, -1.625000000000000444 ) ) ;
#920 = AXIS2_PLACEMENT_3D ( 'NONE', #438, #887, #540 ) ;
#921 = VECTOR ( 'NONE', #309, 1000.000000000000000 ) ;
#922 = EDGE_CURVE ( 'NONE', #47, #1027, #1068, .T. ) ;
#923 = CARTESIAN_POINT ( 'NONE',  ( -1.450000000000000178, 4.099999999999999645, 1.699999999999999956 ) ) ;
#924 = EDGE_CURVE ( 'NONE', #1056, #665, #360, .T. ) ;
#925 = ORIENTED_EDGE ( 'NONE', *, *, #253, .T. ) ;
#926 = LINE ( 'NONE', #57, #168 ) ;
#927 = VERTEX_POINT ( 'NONE', #615 ) ;
#928 = EDGE_CURVE ( 'NONE', #204, #47, #1036, .T. ) ;
#929 = VERTEX_POINT ( 'NONE', #532 ) ;
#930 = PLANE ( 'NONE',  #370 ) ;
#931 = FILL_AREA_STYLE_COLOUR ( '', #468 ) ;
#932 = FACE_OUTER_BOUND ( 'NONE', #143, .T. ) ;
#933 = VERTEX_POINT ( 'NONE', #626 ) ;
#934 = AXIS2_PLACEMENT_3D ( 'NONE', #833, #656, #314 ) ;
#935 = CLOSED_SHELL ( 'NONE', ( #440, #52, #528, #1125, #754, #562 ) ) ;
#936 =( GEOMETRIC_REPRESENTATION_CONTEXT ( 3 ) GLOBAL_UNCERTAINTY_ASSIGNED_CONTEXT ( ( #865 ) ) GLOBAL_UNIT_ASSIGNED_CONTEXT ( ( #403, #1106, #746 ) ) REPRESENTATION_CONTEXT ( 'NONE', 'WORKASPACE' ) );
#937 = VECTOR ( 'NONE', #1042, 1000.000000000000000 ) ;
#938 = CARTESIAN_POINT ( 'NONE',  ( 1.899999999999999911, 0.09999999999999939493, -1.900000000000000799 ) ) ;
#939 = DIRECTION ( 'NONE',  ( 0.000000000000000000, 0.000000000000000000, -1.000000000000000000 ) ) ;
#940 = CARTESIAN_POINT ( 'NONE',  ( 2.000000000000000000, 3.999999999999999112, 1.899999999999999911 ) ) ;
#941 = VERTEX_POINT ( 'NONE', #875 ) ;
#942 = PRESENTATION_STYLE_ASSIGNMENT (( #603 ) ) ;
#943 = ADVANCED_FACE ( 'NONE', ( #186 ), #632, .T. ) ;
#944 = CARTESIAN_POINT ( 'NONE',  ( -1.350000000000000089, 3.999999999999999112, -1.699999999999999956 ) ) ;
#945 = VERTEX_POINT ( 'NONE', #460 ) ;
#946 = DIRECTION ( 'NONE',  ( 0.000000000000000000, 0.000000000000000000, 1.000000000000000000 ) ) ;
#947 = ADVANCED_FACE ( 'NONE', ( #982 ), #20, .F. ) ;
#948 = DIRECTION ( 'NONE',  ( -0.000000000000000000, -0.000000000000000000, 1.000000000000000000 ) ) ;
#949 = CARTESIAN_POINT ( 'NONE',  ( 2.000000000000000000, 3.999999999999999112, -2.000000000000000888 ) ) ;
#950 = ORIENTED_EDGE ( 'NONE', *, *, #464, .T. ) ;
#951 = DIRECTION ( 'NONE',  ( -1.000000000000000000, 0.000000000000000000, -2.644395542647571766E-16 ) ) ;
#952 = DIRECTION ( 'NONE',  ( 1.000000000000000000, -0.000000000000000000, -0.000000000000000000 ) ) ;
#953 = VECTOR ( 'NONE', #68, 1000.000000000000000 ) ;
#954 = AXIS2_PLACEMENT_3D ( 'NONE', #902, #808, #567 ) ;
#955 = AXIS2_PLACEMENT_3D ( 'NONE', #636, #622, #628 ) ;
#956 = ORIENTED_EDGE ( 'NONE', *, *, #430, .F. ) ;
#957 = DIRECTION ( 'NONE',  ( 0.000000000000000000, 1.000000000000000000, 0.000000000000000000 ) ) ;
#958 = EDGE_CURVE ( 'NONE', #1056, #265, #702, .T. ) ;
#959 = DIRECTION ( 'NONE',  ( 0.000000000000000000, -1.000000000000000000, 0.000000000000000000 ) ) ;
#960 = LINE ( 'NONE', #1044, #720 ) ;
#961 = ORIENTED_EDGE ( 'NONE', *, *, #989, .T. ) ;
#962 = DIRECTION ( 'NONE',  ( 0.000000000000000000, 0.000000000000000000, 1.000000000000000000 ) ) ;
#963 = CARTESIAN_POINT ( 'NONE',  ( -1.350000000000000089, 3.999999999999999112, 1.699999999999999956 ) ) ;
#964 = CARTESIAN_POINT ( 'NONE',  ( 1.899999999999999911, 0.09999999999999939493, 1.899999999999999911 ) ) ;
#965 = LINE ( 'NONE', #373, #864 ) ;
#966 = CARTESIAN_POINT ( 'NONE',  ( 0.7849999999999999201, 3.451850235317801996, -1.625000000000000222 ) ) ;
#967 = EDGE_CURVE ( 'NONE', #1061, #265, #432, .T. ) ;
#968 = ORIENTED_EDGE ( 'NONE', *, *, #713, .T. ) ;
#969 = CARTESIAN_POINT ( 'NONE',  ( -1.899999999999999911, 3.999999999999999112, -1.899999999999999689 ) ) ;
#970 = LINE ( 'NONE', #1057, #520 ) ;
#971 = LINE ( 'NONE', #451, #505 ) ;
#972 = ORIENTED_EDGE ( 'NONE', *, *, #818, .T. ) ;
#973 = ORIENTED_EDGE ( 'NONE', *, *, #756, .T. ) ;
#974 = CARTESIAN_POINT ( 'NONE',  ( -0.7849999999999999201, 3.451850235317801996, -1.624999999999999334 ) ) ;
#975 = AXIS2_PLACEMENT_3D ( 'NONE', #1095, #477, #714 ) ;
#976 = DIRECTION ( 'NONE',  ( -0.000000000000000000, 1.000000000000000000, -0.000000000000000000 ) ) ;
#977 = AXIS2_PLACEMENT_3D ( 'NONE', #270, #85, #962 ) ;
#978 = AXIS2_PLACEMENT_3D ( 'NONE', #82, #503, #690 ) ;
#979 = ORIENTED_EDGE ( 'NONE', *, *, #273, .F. ) ;
#980 = CARTESIAN_POINT ( 'NONE',  ( -1.450000000000000178, 4.099999999999999645, 1.699999999999999956 ) ) ;
#981 = VECTOR ( 'NONE', #905, 1000.000000000000000 ) ;
#982 = FACE_OUTER_BOUND ( 'NONE', #1113, .T. ) ;
#983 = CARTESIAN_POINT ( 'NONE',  ( 1.899999999999999911, 3.999999999999999112, 2.000000000000000000 ) ) ;
#984 = EDGE_CURVE ( 'NONE', #363, #452, #406, .T. ) ;
#985 = LINE ( 'NONE', #198, #739 ) ;
#986 = ORIENTED_EDGE ( 'NONE', *, *, #389, .F. ) ;
#987 = EDGE_LOOP ( 'NONE', ( #898, #925, #1143, #224 ) ) ;
#988 = LINE ( 'NONE', #196, #137 ) ;
#989 = EDGE_CURVE ( 'NONE', #452, #614, #558, .T. ) ;
#990 = FACE_BOUND ( 'NONE', #210, .T. ) ;
#991 = ORIENTED_EDGE ( 'NONE', *, *, #203, .T. ) ;
#992 = ORIENTED_EDGE ( 'NONE', *, *, #812, .T. ) ;
#993 = CARTESIAN_POINT ( 'NONE',  ( -1.350000000000000089, 3.999999999999999112, -1.699999999999999956 ) ) ;
#994 = CARTESIAN_POINT ( 'NONE',  ( 1.604999999999999982, 0.000000000000000000, -1.625000000000000444 ) ) ;
#995 = EDGE_LOOP ( 'NONE', ( #1041, #353, #623, #901 ) ) ;
#996 = DIRECTION ( 'NONE',  ( 1.000000000000000000, 0.000000000000000000, 0.000000000000000000 ) ) ;
#997 = AXIS2_PLACEMENT_3D ( 'NONE', #127, #730, #573 ) ;
#998 = VECTOR ( 'NONE', #787, 1000.000000000000000 ) ;
#999 = EDGE_CURVE ( 'NONE', #38, #945, #387, .T. ) ;
#1000 = VECTOR ( 'NONE', #1030, 1000.000000000000000 ) ;
#1001 = ORIENTED_EDGE ( 'NONE', *, *, #118, .F. ) ;
#1002 = DIRECTION ( 'NONE',  ( -0.000000000000000000, -0.000000000000000000, 1.000000000000000000 ) ) ;
#1003 = MECHANICAL_DESIGN_GEOMETRIC_PRESENTATION_REPRESENTATION (  '', ( #280 ), #331 ) ;
#1004 = DIRECTION ( 'NONE',  ( 0.000000000000000000, 1.000000000000000000, -0.000000000000000000 ) ) ;
#1005 = EDGE_LOOP ( 'NONE', ( #393, #673, #793, #481, #890, #877, #212, #629 ) ) ;
#1006 = CARTESIAN_POINT ( 'NONE',  ( -0.7849999999999999201, 0.000000000000000000, 1.625000000000000666 ) ) ;
#1007 = EDGE_CURVE ( 'NONE', #569, #243, #448, .T. ) ;
#1008 = ORIENTED_EDGE ( 'NONE', *, *, #156, .T. ) ;
#1009 = CARTESIAN_POINT ( 'NONE',  ( -0.7849999999999999201, 3.451850235317801996, 1.625000000000000666 ) ) ;
#1010 = FACE_OUTER_BOUND ( 'NONE', #574, .T. ) ;
#1011 = VERTEX_POINT ( 'NONE', #893 ) ;
#1012 = PLANE ( 'NONE',  #681 ) ;
#1013 = LINE ( 'NONE', #583, #294 ) ;
#1014 = CARTESIAN_POINT ( 'NONE',  ( -1.350000000000000089, 4.099999999999999645, 1.699999999999999956 ) ) ;
#1015 = ADVANCED_FACE ( 'NONE', ( #869 ), #11, .T. ) ;
#1016 = CARTESIAN_POINT ( 'NONE',  ( -1.899999999999999911, 3.999999999999999112, 1.899999999999999911 ) ) ;
#1017 = ORIENTED_EDGE ( 'NONE', *, *, #967, .F. ) ;
#1018 = CARTESIAN_POINT ( 'NONE',  ( -1.604999999999999982, 3.451850235317801996, 1.625000000000000222 ) ) ;
#1019 =( NAMED_UNIT ( * ) PLANE_ANGLE_UNIT ( ) SI_UNIT ( $, .RADIAN. ) );
#1020 = VECTOR ( 'NONE', #284, 1000.000000000000000 ) ;
#1021 = CIRCLE ( 'NONE', #502, 0.1000000000000000472 ) ;
#1022 = AXIS2_PLACEMENT_3D ( 'NONE', #910, #679, #121 ) ;
#1023 = ADVANCED_FACE ( 'NONE', ( #707 ), #443, .T. ) ;
#1024 = ORIENTED_EDGE ( 'NONE', *, *, #221, .T. ) ;
#1025 = PRODUCT_DEFINITION_CONTEXT ( 'detailed design', #94, 'design' ) ;
#1026 = CARTESIAN_POINT ( 'NONE',  ( 0.000000000000000000, 0.1000000000000000056, 0.000000000000000000 ) ) ;
#1027 = VERTEX_POINT ( 'NONE', #339 ) ;
#1028 = ORIENTED_EDGE ( 'NONE', *, *, #611, .T. ) ;
#1029 = CARTESIAN_POINT ( 'NONE',  ( 1.604999999999999982, 0.09999999999999982514, 1.624999999999996669 ) ) ;
#1030 = DIRECTION ( 'NONE',  ( -0.000000000000000000, 1.000000000000000000, -0.000000000000000000 ) ) ;
#1031 = LINE ( 'NONE', #236, #238 ) ;
#1032 = ORIENTED_EDGE ( 'NONE', *, *, #405, .F. ) ;
#1033 = DIRECTION ( 'NONE',  ( -1.000000000000000000, 0.000000000000000000, 2.644395542647571766E-16 ) ) ;
#1034 = VECTOR ( 'NONE', #240, 1000.000000000000000 ) ;
#1035 = FILL_AREA_STYLE ('',( #1121 ) ) ;
#1036 = CIRCLE ( 'NONE', #977, 0.1000000000000000472 ) ;
#1037 = VECTOR ( 'NONE', #610, 1000.000000000000000 ) ;
#1038 = FACE_OUTER_BOUND ( 'NONE', #874, .T. ) ;
#1039 =( LENGTH_UNIT ( ) NAMED_UNIT ( * ) SI_UNIT ( .MILLI., .METRE. ) );
#1040 = EDGE_CURVE ( 'NONE', #563, #38, #484, .T. ) ;
#1041 = ORIENTED_EDGE ( 'NONE', *, *, #203, .F. ) ;
#1042 = DIRECTION ( 'NONE',  ( 0.000000000000000000, 0.000000000000000000, -1.000000000000000000 ) ) ;
#1043 = LINE ( 'NONE', #762, #190 ) ;
#1044 = CARTESIAN_POINT ( 'NONE',  ( -1.604999999999999982, 0.000000000000000000, 1.625000000000000222 ) ) ;
#1045 = ORIENTED_EDGE ( 'NONE', *, *, #36, .T. ) ;
#1046 = CARTESIAN_POINT ( 'NONE',  ( 2.000000000000000000, 13.85685424949238076, -1.900000000000000577 ) ) ;
#1047 = EDGE_CURVE ( 'NONE', #1011, #657, #184, .T. ) ;
#1048 = CARTESIAN_POINT ( 'NONE',  ( -1.604999999999999982, 0.000000000000000000, -1.624999999999999556 ) ) ;
#1049 = VERTEX_POINT ( 'NONE', #1 ) ;
#1050 = DIRECTION ( 'NONE',  ( 0.000000000000000000, 0.000000000000000000, -1.000000000000000000 ) ) ;
#1051 = CARTESIAN_POINT ( 'NONE',  ( 0.7849999999999999201, 0.09999999999999982514, -1.625000000000000222 ) ) ;
#1052 = VECTOR ( 'NONE', #692, 1000.000000000000000 ) ;
#1053 = CLOSED_SHELL ( 'NONE', ( #130, #415, #858, #83, #91, #728 ) ) ;
#1054 = EDGE_CURVE ( 'NONE', #233, #1061, #965, .T. ) ;
#1055 = VERTEX_POINT ( 'NONE', #109 ) ;
#1056 = VERTEX_POINT ( 'NONE', #648 ) ;
#1057 = CARTESIAN_POINT ( 'NONE',  ( -1.350000000000000089, 4.099999999999999645, 1.699999999999999956 ) ) ;
#1058 = CARTESIAN_POINT ( 'NONE',  ( -1.899999999999999911, 13.85685424949238076, -1.899999999999999689 ) ) ;
#1059 = EDGE_CURVE ( 'NONE', #1027, #38, #556, .T. ) ;
#1060 = DIRECTION ( 'NONE',  ( 0.000000000000000000, -1.000000000000000000, 0.000000000000000000 ) ) ;
#1061 = VERTEX_POINT ( 'NONE', #1006 ) ;
#1062 = DIRECTION ( 'NONE',  ( 1.000000000000000000, -0.000000000000000000, 0.000000000000000000 ) ) ;
#1063 = DIRECTION ( 'NONE',  ( 0.000000000000000000, 1.000000000000000000, 0.000000000000000000 ) ) ;
#1064 = CARTESIAN_POINT ( 'NONE',  ( -1.450000000000000178, 4.099999999999999645, 1.699999999999999956 ) ) ;
#1065 = ORIENTED_EDGE ( 'NONE', *, *, #178, .T. ) ;
#1066 = ADVANCED_FACE ( 'NONE', ( #1082 ), #303, .T. ) ;
#1067 = ORIENTED_EDGE ( 'NONE', *, *, #548, .F. ) ;
#1068 = LINE ( 'NONE', #274, #369 ) ;
#1069 = LINE ( 'NONE', #553, #981 ) ;
#1070 = AXIS2_PLACEMENT_3D ( 'NONE', #763, #1120, #42 ) ;
#1071 = PLANE ( 'NONE',  #485 ) ;
#1072 = VECTOR ( 'NONE', #51, 1000.000000000000000 ) ;
#1073 = AXIS2_PLACEMENT_3D ( 'NONE', #1016, #1004, #301 ) ;
#1074 = ORIENTED_EDGE ( 'NONE', *, *, #98, .T. ) ;
#1075 = CARTESIAN_POINT ( 'NONE',  ( -2.000000000000000000, 3.999999999999999112, -2.000000000000000000 ) ) ;
#1076 = AXIS2_PLACEMENT_3D ( 'NONE', #1009, #293, #732 ) ;
#1077 = ORIENTED_EDGE ( 'NONE', *, *, #321, .F. ) ;
#1078 = DIRECTION ( 'NONE',  ( 0.000000000000000000, 0.000000000000000000, -1.000000000000000000 ) ) ;
#1079 = EDGE_CURVE ( 'NONE', #363, #614, #445, .T. ) ;
#1080 = CARTESIAN_POINT ( 'NONE',  ( -0.7849999999999999201, 0.09999999999999982514, 1.625000000000000666 ) ) ;
#1081 = ORIENTED_EDGE ( 'NONE', *, *, #310, .T. ) ;
#1082 = FACE_OUTER_BOUND ( 'NONE', #892, .T. ) ;
#1083 = DIRECTION ( 'NONE',  ( -0.000000000000000000, -1.000000000000000000, -0.000000000000000000 ) ) ;
#1084 = PLANE ( 'NONE',  #315 ) ;
#1085 = ORIENTED_EDGE ( 'NONE', *, *, #888, .F. ) ;
#1086 = DIRECTION ( 'NONE',  ( -1.000000000000000000, 0.000000000000000000, -5.288791085295143532E-16 ) ) ;
#1087 = ORIENTED_EDGE ( 'NONE', *, *, #761, .T. ) ;
#1088 = LINE ( 'NONE', #650, #483 ) ;
#1089 = FACE_OUTER_BOUND ( 'NONE', #750, .T. ) ;
#1090 = ADVANCED_FACE ( 'NONE', ( #734 ), #551, .F. ) ;
#1091 = ORIENTED_EDGE ( 'NONE', *, *, #1112, .F. ) ;
#1092 = DIRECTION ( 'NONE',  ( 0.000000000000000000, 0.000000000000000000, 1.000000000000000000 ) ) ;
#1093 = AXIS2_PLACEMENT_3D ( 'NONE', #759, #1115, #318 ) ;
#1094 = VECTOR ( 'NONE', #306, 1000.000000000000000 ) ;
#1095 = CARTESIAN_POINT ( 'NONE',  ( -1.899999999999999911, 3.999999999999999112, 1.899999999999999911 ) ) ;
#1096 = MECHANICAL_DESIGN_GEOMETRIC_PRESENTATION_REPRESENTATION (  '', ( #635 ), #735 ) ;
#1097 = SPHERICAL_SURFACE ( 'NONE', #1073, 0.1000000000000000056 ) ;
#1098 = ORIENTED_EDGE ( 'NONE', *, *, #611, .F. ) ;
#1099 = CARTESIAN_POINT ( 'NONE',  ( -1.450000000000000178, 4.099999999999999645, -1.699999999999999956 ) ) ;
#1100 = ORIENTED_EDGE ( 'NONE', *, *, #922, .F. ) ;
#1101 = CARTESIAN_POINT ( 'NONE',  ( 1.604999999999999982, 0.09999999999999982514, 1.624999999999996669 ) ) ;
#1102 = DIRECTION ( 'NONE',  ( 0.000000000000000000, -1.000000000000000000, 0.000000000000000000 ) ) ;
#1103 = VERTEX_POINT ( 'NONE', #816 ) ;
#1104 = VERTEX_POINT ( 'NONE', #821 ) ;
#1105 = EDGE_CURVE ( 'NONE', #941, #335, #810, .T. ) ;
#1106 =( NAMED_UNIT ( * ) PLANE_ANGLE_UNIT ( ) SI_UNIT ( $, .RADIAN. ) );
#1107 = COLOUR_RGB ( '',1.000000000000000000, 1.000000000000000000, 1.000000000000000000 ) ;
#1108 = DIRECTION ( 'NONE',  ( -0.000000000000000000, 1.000000000000000000, -0.000000000000000000 ) ) ;
#1109 = STYLED_ITEM ( 'NONE', ( #837 ), #687 ) ;
#1110 = CIRCLE ( 'NONE', #330, 0.1000000000000000472 ) ;
#1111 = COLOUR_RGB ( '',0.2509803921568627416, 0.2509803921568627416, 0.2509803921568627416 ) ;
#1112 = EDGE_CURVE ( 'NONE', #163, #117, #651, .T. ) ;
#1113 = EDGE_LOOP ( 'NONE', ( #522, #1085, #169, #748 ) ) ;
#1114 = FACE_OUTER_BOUND ( 'NONE', #148, .T. ) ;
#1115 = DIRECTION ( 'NONE',  ( 0.000000000000000000, 0.000000000000000000, -1.000000000000000000 ) ) ;
#1116 = ORIENTED_EDGE ( 'NONE', *, *, #253, .F. ) ;
#1117 = SURFACE_STYLE_FILL_AREA ( #507 ) ;
#1118 = CARTESIAN_POINT ( 'NONE',  ( -2.000000000000000000, 0.1000000000000000056, 1.899999999999999911 ) ) ;
#1119 = MANIFOLD_SOLID_BREP ( 'Boss-Extrude3', #1053 ) ;
#1120 = DIRECTION ( 'NONE',  ( 1.000000000000000000, -0.000000000000000000, 0.000000000000000000 ) ) ;
#1121 = FILL_AREA_STYLE_COLOUR ( '', #1111 ) ;
#1122 = PLANE ( 'NONE',  #538 ) ;
#1123 = CARTESIAN_POINT ( 'NONE',  ( -1.450000000000000178, 3.999999999999999112, 1.699999999999999956 ) ) ;
#1124 = UNCERTAINTY_MEASURE_WITH_UNIT (LENGTH_MEASURE( 1.000000000000000082E-05 ), #857, 'distance_accuracy_value', 'NONE');
#1125 = ADVANCED_FACE ( 'NONE', ( #123 ), #1012, .F. ) ;
#1126 = COLOUR_RGB ( '',0.7960784313725489669, 0.8235294117647058432, 0.9372549019607843146 ) ;
#1127 = ORIENTED_EDGE ( 'NONE', *, *, #398, .T. ) ;
#1128 =( NAMED_UNIT ( * ) SI_UNIT ( $, .STERADIAN. ) SOLID_ANGLE_UNIT ( ) );
#1129 = VECTOR ( 'NONE', #256, 1000.000000000000000 ) ;
#1130 = VECTOR ( 'NONE', #380, 1000.000000000000000 ) ;
#1131 = SPHERICAL_SURFACE ( 'NONE', #446, 0.1000000000000000056 ) ;
#1132 = EDGE_LOOP ( 'NONE', ( #1077, #973, #431, #214 ) ) ;
#1133 = DIRECTION ( 'NONE',  ( -0.000000000000000000, -1.000000000000000000, -0.000000000000000000 ) ) ;
#1134 = ORIENTED_EDGE ( 'NONE', *, *, #958, .T. ) ;
#1135 = CARTESIAN_POINT ( 'NONE',  ( -1.450000000000000178, 3.999999999999999112, -1.699999999999999956 ) ) ;
#1136 = DIRECTION ( 'NONE',  ( -2.644395542647571766E-16, 0.000000000000000000, 1.000000000000000000 ) ) ;
#1137 = CARTESIAN_POINT ( 'NONE',  ( 1.899999999999999911, 13.85685424949238076, 1.899999999999999911 ) ) ;
#1138 = FACE_OUTER_BOUND ( 'NONE', #688, .T. ) ;
#1139 = ORIENTED_EDGE ( 'NONE', *, *, #641, .T. ) ;
#1140 = DIRECTION ( 'NONE',  ( 0.000000000000000000, 1.000000000000000000, -0.000000000000000000 ) ) ;
#1141 = DIRECTION ( 'NONE',  ( 1.000000000000000000, 0.000000000000000000, 0.000000000000000000 ) ) ;
#1142 = ADVANCED_FACE ( 'NONE', ( #1114 ), #664, .F. ) ;
#1143 = ORIENTED_EDGE ( 'NONE', *, *, #831, .T. ) ;
ENDSEC;
END-ISO-10303-21;
