ISO-10303-21;
HEADER;
FILE_DESCRIPTION (( 'STEP AP214' ),
    '1' );
FILE_NAME ('RHC2512JT1K50.STEP',
    '2019-12-26T12:47:32',
    ( '' ),
    ( '' ),
    'SwSTEP 2.0',
    'SolidWorks 2018',
    '' );
FILE_SCHEMA (( 'AUTOMOTIVE_DESIGN' ));
ENDSEC;

DATA;
#1 = CARTESIAN_POINT ( 'NONE',  ( 2.449999999999998401, 0.6999999999999967359, -1.600000000000000089 ) ) ;
#2 = FACE_OUTER_BOUND ( 'NONE', #957, .T. ) ;
#3 = DIRECTION ( 'NONE',  ( 0.0000000000000000000, 0.0000000000000000000, 1.000000000000000000 ) ) ;
#4 = ORIENTED_EDGE ( 'NONE', *, *, #520, .T. ) ;
#5 = VECTOR ( 'NONE', #820, 1000.000000000000000 ) ;
#6 = ORIENTED_EDGE ( 'NONE', *, *, #861, .F. ) ;
#7 = ORIENTED_EDGE ( 'NONE', *, *, #9, .T. ) ;
#8 = ORIENTED_EDGE ( 'NONE', *, *, #61, .T. ) ;
#9 = EDGE_CURVE ( 'NONE', #456, #586, #554, .T. ) ;
#10 = CARTESIAN_POINT ( 'NONE',  ( -3.149999999999999467, 0.6999999999999995115, 1.600000000000000089 ) ) ;
#11 = LINE ( 'NONE', #705, #444 ) ;
#12 = DIRECTION ( 'NONE',  ( 1.612184395336183031E-16, 1.000000000000000000, 0.0000000000000000000 ) ) ;
#13 = LINE ( 'NONE', #364, #916 ) ;
#14 = DIRECTION ( 'NONE',  ( 0.0000000000000000000, 1.000000000000000000, 0.0000000000000000000 ) ) ;
#15 = EDGE_CURVE ( 'NONE', #97, #949, #640, .T. ) ;
#16 = EDGE_LOOP ( 'NONE', ( #958, #892, #929, #330, #666, #591, #905, #946 ) ) ;
#17 = CARTESIAN_POINT ( 'NONE',  ( -0.9499999999999994005, 0.0000000000000000000, 1.600000000000000089 ) ) ;
#18 = ORIENTED_EDGE ( 'NONE', *, *, #40, .T. ) ;
#19 = LINE ( 'NONE', #669, #792 ) ;
#20 = CARTESIAN_POINT ( 'NONE',  ( 3.114999999999999769, 0.03499999999999964251, -1.600000000000000089 ) ) ;
#21 = VECTOR ( 'NONE', #106, 1000.000000000000000 ) ;
#22 = ORIENTED_EDGE ( 'NONE', *, *, #61, .F. ) ;
#23 = DIRECTION ( 'NONE',  ( 0.0000000000000000000, 1.000000000000000000, 0.0000000000000000000 ) ) ;
#24 = DIRECTION ( 'NONE',  ( 0.0000000000000000000, 0.0000000000000000000, -1.000000000000000000 ) ) ;
#25 = CARTESIAN_POINT ( 'NONE',  ( -2.449999999999999289, 0.6649999999999989253, -1.600000000000000089 ) ) ;
#26 = ADVANCED_FACE ( 'NONE', ( #67 ), #285, .F. ) ;
#27 = CARTESIAN_POINT ( 'NONE',  ( 2.449999999999997957, -5.187349955359813691, -1.600000000000000089 ) ) ;
#28 = ORIENTED_EDGE ( 'NONE', *, *, #216, .F. ) ;
#29 = DIRECTION ( 'NONE',  ( -1.000000000000000000, 0.0000000000000000000, 0.0000000000000000000 ) ) ;
#30 = EDGE_LOOP ( 'NONE', ( #805, #424, #758, #672 ) ) ;
#31 = EDGE_CURVE ( 'NONE', #927, #552, #736, .T. ) ;
#32 = LINE ( 'NONE', #337, #219 ) ;
#33 = CARTESIAN_POINT ( 'NONE',  ( -2.449999999999999289, 0.6999999999999990674, -1.600000000000000089 ) ) ;
#34 = VERTEX_POINT ( 'NONE', #594 ) ;
#35 = CARTESIAN_POINT ( 'NONE',  ( 3.149999999999999467, -3.857637417314162196E-16, 1.600000000000000089 ) ) ;
#36 = DIRECTION ( 'NONE',  ( 1.000000000000000000, 1.630379206745118808E-16, 0.0000000000000000000 ) ) ;
#37 = VECTOR ( 'NONE', #920, 1000.000000000000000 ) ;
#38 = FACE_OUTER_BOUND ( 'NONE', #627, .T. ) ;
#39 = DIRECTION ( 'NONE',  ( 1.000000000000000000, -7.744301232039317668E-16, 0.0000000000000000000 ) ) ;
#40 = EDGE_CURVE ( 'NONE', #750, #570, #346, .T. ) ;
#41 = VERTEX_POINT ( 'NONE', #665 ) ;
#42 = AXIS2_PLACEMENT_3D ( 'NONE', #409, #701, #253 ) ;
#43 = VECTOR ( 'NONE', #393, 1000.000000000000000 ) ;
#44 = CARTESIAN_POINT ( 'NONE',  ( 0.0000000000000000000, 0.0000000000000000000, -1.600000000000000089 ) ) ;
#45 = AXIS2_PLACEMENT_3D ( 'NONE', #336, #24, #704 ) ;
#46 = CARTESIAN_POINT ( 'NONE',  ( -0.9499999999999994005, 0.0000000000000000000, -1.600000000000000089 ) ) ;
#47 = VECTOR ( 'NONE', #182, 1000.000000000000000 ) ;
#48 = DIRECTION ( 'NONE',  ( -1.000000000000000000, 0.0000000000000000000, 0.0000000000000000000 ) ) ;
#49 = ORIENTED_EDGE ( 'NONE', *, *, #270, .T. ) ;
#50 = PLANE ( 'NONE',  #171 ) ;
#51 = MANIFOLD_SOLID_BREP ( 'Boss-Extrude3', #821 ) ;
#52 = ORIENTED_EDGE ( 'NONE', *, *, #262, .T. ) ;
#53 = VECTOR ( 'NONE', #899, 1000.000000000000000 ) ;
#54 = FACE_OUTER_BOUND ( 'NONE', #654, .T. ) ;
#55 = ADVANCED_FACE ( 'NONE', ( #959 ), #144, .T. ) ;
#56 = DIRECTION ( 'NONE',  ( 1.000000000000000000, 0.0000000000000000000, 0.0000000000000000000 ) ) ;
#57 = MECHANICAL_DESIGN_GEOMETRIC_PRESENTATION_REPRESENTATION (  '', ( #811 ), #432 ) ;
#58 = ORIENTED_EDGE ( 'NONE', *, *, #745, .T. ) ;
#59 = DIRECTION ( 'NONE',  ( -0.0000000000000000000, 1.000000000000000000, -0.0000000000000000000 ) ) ;
#60 = DIRECTION ( 'NONE',  ( 0.0000000000000000000, 0.0000000000000000000, -1.000000000000000000 ) ) ;
#61 = EDGE_CURVE ( 'NONE', #613, #731, #19, .T. ) ;
#62 = LINE ( 'NONE', #951, #502 ) ;
#63 = DIRECTION ( 'NONE',  ( 0.0000000000000000000, -0.0000000000000000000, -1.000000000000000000 ) ) ;
#64 = EDGE_LOOP ( 'NONE', ( #735, #135, #799, #696 ) ) ;
#65 = VERTEX_POINT ( 'NONE', #819 ) ;
#66 = SURFACE_STYLE_USAGE ( .BOTH. , #738 ) ;
#67 = FACE_OUTER_BOUND ( 'NONE', #506, .T. ) ;
#68 = DIRECTION ( 'NONE',  ( 7.744301232039317668E-16, -1.000000000000000000, 0.0000000000000000000 ) ) ;
#69 = VECTOR ( 'NONE', #246, 1000.000000000000000 ) ;
#70 = ORIENTED_EDGE ( 'NONE', *, *, #422, .T. ) ;
#71 = EDGE_CURVE ( 'NONE', #698, #676, #403, .T. ) ;
#72 = CARTESIAN_POINT ( 'NONE',  ( -3.149999999999999467, 0.6999999999999995115, -1.600000000000000089 ) ) ;
#73 = MANIFOLD_SOLID_BREP ( 'Mirror2', #269 ) ;
#74 = EDGE_CURVE ( 'NONE', #698, #647, #79, .T. ) ;
#75 = FACE_OUTER_BOUND ( 'NONE', #746, .T. ) ;
#76 = CARTESIAN_POINT ( 'NONE',  ( 3.149999999999999467, 0.6999999999999995115, 1.600000000000000089 ) ) ;
#77 = VERTEX_POINT ( 'NONE', #584 ) ;
#78 = ORIENTED_EDGE ( 'NONE', *, *, #499, .F. ) ;
#79 = LINE ( 'NONE', #823, #5 ) ;
#80 = FACE_OUTER_BOUND ( 'NONE', #95, .T. ) ;
#81 = ORIENTED_EDGE ( 'NONE', *, *, #384, .T. ) ;
#82 = ORIENTED_EDGE ( 'NONE', *, *, #423, .F. ) ;
#83 = EDGE_CURVE ( 'NONE', #214, #613, #767, .T. ) ;
#84 = CARTESIAN_POINT ( 'NONE',  ( 2.449999999999999289, 0.6649999999999989253, 1.600000000000000089 ) ) ;
#85 = ORIENTED_EDGE ( 'NONE', *, *, #40, .F. ) ;
#86 = ORIENTED_EDGE ( 'NONE', *, *, #216, .T. ) ;
#87 = ORIENTED_EDGE ( 'NONE', *, *, #15, .T. ) ;
#88 = DIRECTION ( 'NONE',  ( 0.0000000000000000000, -0.0000000000000000000, -1.000000000000000000 ) ) ;
#89 = LINE ( 'NONE', #320, #69 ) ;
#90 = EDGE_CURVE ( 'NONE', #903, #868, #948, .T. ) ;
#91 = CARTESIAN_POINT ( 'NONE',  ( 2.449999999999999289, 0.6649999999999989253, 1.600000000000000089 ) ) ;
#92 = CARTESIAN_POINT ( 'NONE',  ( -2.449999999999999289, 0.6999999999999990674, 1.600000000000000089 ) ) ;
#93 = CARTESIAN_POINT ( 'NONE',  ( 3.149999999999999467, -3.857637417314162196E-16, 1.600000000000000089 ) ) ;
#94 = LINE ( 'NONE', #937, #397 ) ;
#95 = EDGE_LOOP ( 'NONE', ( #52, #18, #58, #391 ) ) ;
#96 = CARTESIAN_POINT ( 'NONE',  ( 3.149999999999999467, -3.857637417314162196E-16, 1.600000000000000089 ) ) ;
#97 = VERTEX_POINT ( 'NONE', #605 ) ;
#98 = DIRECTION ( 'NONE',  ( -1.000000000000000000, 7.744301232039316681E-16, 0.0000000000000000000 ) ) ;
#99 = EDGE_LOOP ( 'NONE', ( #441, #471, #190, #204 ) ) ;
#100 = LINE ( 'NONE', #158, #616 ) ;
#101 = CARTESIAN_POINT ( 'NONE',  ( -2.450000000000000178, 0.6649999999999989253, 1.600000000000000089 ) ) ;
#102 = CARTESIAN_POINT ( 'NONE',  ( -2.449999999999999289, 0.6999999999999990674, -1.600000000000000089 ) ) ;
#103 = DIRECTION ( 'NONE',  ( 0.0000000000000000000, 0.0000000000000000000, 1.000000000000000000 ) ) ;
#104 = DIRECTION ( 'NONE',  ( 0.0000000000000000000, -0.0000000000000000000, -1.000000000000000000 ) ) ;
#105 = VECTOR ( 'NONE', #482, 1000.000000000000000 ) ;
#106 = DIRECTION ( 'NONE',  ( -2.710505431213761085E-16, -0.0000000000000000000, -1.000000000000000000 ) ) ;
#107 = ADVANCED_FACE ( 'NONE', ( #734 ), #600, .T. ) ;
#108 = DIRECTION ( 'NONE',  ( 0.0000000000000000000, 0.0000000000000000000, 1.000000000000000000 ) ) ;
#109 = ORIENTED_EDGE ( 'NONE', *, *, #837, .T. ) ;
#110 = CARTESIAN_POINT ( 'NONE',  ( -3.114999999999999769, 0.03499999999999964251, 1.600000000000000089 ) ) ;
#111 = PRESENTATION_LAYER_ASSIGNMENT (  '', '', ( #208 ) ) ;
#112 = VERTEX_POINT ( 'NONE', #534 ) ;
#113 = LINE ( 'NONE', #308, #699 ) ;
#114 = ORIENTED_EDGE ( 'NONE', *, *, #429, .F. ) ;
#115 = FILL_AREA_STYLE_COLOUR ( '', #174 ) ;
#116 = EDGE_CURVE ( 'NONE', #903, #34, #652, .T. ) ;
#117 = CARTESIAN_POINT ( 'NONE',  ( 3.149999999999999467, -3.857637417314162196E-16, -1.600000000000000089 ) ) ;
#118 = PRODUCT ( 'RHC2512JT1K50', 'RHC2512JT1K50', '', ( #209 ) ) ;
#119 = DIRECTION ( 'NONE',  ( -1.000000000000000000, 0.0000000000000000000, -0.0000000000000000000 ) ) ;
#120 = VERTEX_POINT ( 'NONE', #224 ) ;
#121 = VERTEX_POINT ( 'NONE', #457 ) ;
#122 = DIRECTION ( 'NONE',  ( -0.0000000000000000000, -0.0000000000000000000, -1.000000000000000000 ) ) ;
#123 = LINE ( 'NONE', #539, #595 ) ;
#124 = CARTESIAN_POINT ( 'NONE',  ( 0.0000000000000000000, 0.0000000000000000000, 1.600000000000000089 ) ) ;
#125 = DIRECTION ( 'NONE',  ( 0.0000000000000000000, -0.0000000000000000000, -1.000000000000000000 ) ) ;
#126 = ADVANCED_FACE ( 'NONE', ( #710 ), #752, .F. ) ;
#127 = DIRECTION ( 'NONE',  ( 0.0000000000000000000, 0.0000000000000000000, -1.000000000000000000 ) ) ;
#128 = EDGE_CURVE ( 'NONE', #147, #456, #862, .T. ) ;
#129 = CARTESIAN_POINT ( 'NONE',  ( -0.9499999999999994005, 0.03499999999999990619, 1.600000000000000089 ) ) ;
#130 = LINE ( 'NONE', #351, #742 ) ;
#131 = DIRECTION ( 'NONE',  ( -0.0000000000000000000, -0.0000000000000000000, -1.000000000000000000 ) ) ;
#132 = EDGE_LOOP ( 'NONE', ( #590, #556, #830, #601 ) ) ;
#133 = DIRECTION ( 'NONE',  ( 0.0000000000000000000, 1.000000000000000000, 0.0000000000000000000 ) ) ;
#134 = EDGE_LOOP ( 'NONE', ( #447, #318, #332, #873 ) ) ;
#135 = ORIENTED_EDGE ( 'NONE', *, *, #90, .F. ) ;
#136 = EDGE_CURVE ( 'NONE', #656, #121, #113, .T. ) ;
#137 = FACE_OUTER_BOUND ( 'NONE', #756, .T. ) ;
#138 = CARTESIAN_POINT ( 'NONE',  ( -3.114999999999999769, 0.03499999999999964251, -1.599999999999999867 ) ) ;
#139 = ORIENTED_EDGE ( 'NONE', *, *, #31, .T. ) ;
#140 = ORIENTED_EDGE ( 'NONE', *, *, #71, .F. ) ;
#141 = CARTESIAN_POINT ( 'NONE',  ( 0.9499999999999994005, 0.0000000000000000000, 1.600000000000000089 ) ) ;
#142 = FILL_AREA_STYLE ('',( #878 ) ) ;
#143 = LINE ( 'NONE', #615, #451 ) ;
#144 = PLANE ( 'NONE',  #898 ) ;
#145 = UNCERTAINTY_MEASURE_WITH_UNIT (LENGTH_MEASURE( 1.000000000000000082E-05 ), #751, 'distance_accuracy_value', 'NONE');
#146 = VECTOR ( 'NONE', #14, 1000.000000000000000 ) ;
#147 = VERTEX_POINT ( 'NONE', #236 ) ;
#148 = DIRECTION ( 'NONE',  ( -1.000000000000000000, 1.630379206745118808E-16, 0.0000000000000000000 ) ) ;
#149 = VERTEX_POINT ( 'NONE', #305 ) ;
#150 = AXIS2_PLACEMENT_3D ( 'NONE', #755, #309, #3 ) ;
#151 = DIRECTION ( 'NONE',  ( 1.000000000000000000, 0.0000000000000000000, -0.0000000000000000000 ) ) ;
#152 = DIRECTION ( 'NONE',  ( 0.0000000000000000000, -1.000000000000000000, 0.0000000000000000000 ) ) ;
#153 = CARTESIAN_POINT ( 'NONE',  ( -2.449999999999999289, 0.6649999999999989253, 1.600000000000000089 ) ) ;
#154 = CARTESIAN_POINT ( 'NONE',  ( -2.450000000000000178, -5.187349955359812803, -1.600000000000000089 ) ) ;
#155 = LINE ( 'NONE', #264, #411 ) ;
#156 = DIRECTION ( 'NONE',  ( -0.0000000000000000000, -0.0000000000000000000, -1.000000000000000000 ) ) ;
#157 = EDGE_CURVE ( 'NONE', #121, #647, #459, .T. ) ;
#158 = CARTESIAN_POINT ( 'NONE',  ( 2.449999999999999289, 0.6999999999999990674, 1.600000000000000089 ) ) ;
#159 = ORIENTED_EDGE ( 'NONE', *, *, #593, .F. ) ;
#160 = CARTESIAN_POINT ( 'NONE',  ( -3.114999999999999769, 0.03499999999999964251, -7.861772911883662118 ) ) ;
#161 = ADVANCED_FACE ( 'NONE', ( #872 ), #386, .F. ) ;
#162 = CARTESIAN_POINT ( 'NONE',  ( 0.9499999999999994005, 0.0000000000000000000, 1.600000000000000089 ) ) ;
#163 = VERTEX_POINT ( 'NONE', #904 ) ;
#164 = SURFACE_STYLE_FILL_AREA ( #519 ) ;
#165 = DIRECTION ( 'NONE',  ( -0.0000000000000000000, -0.0000000000000000000, -1.000000000000000000 ) ) ;
#166 = FACE_OUTER_BOUND ( 'NONE', #517, .T. ) ;
#167 = ORIENTED_EDGE ( 'NONE', *, *, #663, .T. ) ;
#168 = DIRECTION ( 'NONE',  ( 1.000000000000000000, 1.630379206745118808E-16, 0.0000000000000000000 ) ) ;
#169 = EDGE_CURVE ( 'NONE', #936, #277, #123, .T. ) ;
#170 = ADVANCED_FACE ( 'NONE', ( #405 ), #620, .F. ) ;
#171 = AXIS2_PLACEMENT_3D ( 'NONE', #945, #283, #876 ) ;
#172 = CARTESIAN_POINT ( 'NONE',  ( 3.114999999999999769, 0.03499999999999964251, 1.600000000000000089 ) ) ;
#173 = DIRECTION ( 'NONE',  ( 0.0000000000000000000, 0.0000000000000000000, -1.000000000000000000 ) ) ;
#174 = COLOUR_RGB ( '',0.7921568627450980005, 0.8196078431372548767, 0.9333333333333333481 ) ;
#175 = CARTESIAN_POINT ( 'NONE',  ( -0.9499999999999994005, 0.03499999999999990619, -1.600000000000000089 ) ) ;
#176 = EDGE_CURVE ( 'NONE', #523, #893, #555, .T. ) ;
#177 = ORIENTED_EDGE ( 'NONE', *, *, #207, .T. ) ;
#178 = ADVANCED_FACE ( 'NONE', ( #80 ), #610, .F. ) ;
#179 = SURFACE_STYLE_FILL_AREA ( #142 ) ;
#180 = UNCERTAINTY_MEASURE_WITH_UNIT (LENGTH_MEASURE( 1.000000000000000082E-05 ), #607, 'distance_accuracy_value', 'NONE');
#181 = ORIENTED_EDGE ( 'NONE', *, *, #576, .T. ) ;
#182 = DIRECTION ( 'NONE',  ( -0.0000000000000000000, -1.000000000000000000, -0.0000000000000000000 ) ) ;
#183 = CARTESIAN_POINT ( 'NONE',  ( 0.9499999999999994005, 0.03499999999999990619, 1.600000000000000089 ) ) ;
#184 = FILL_AREA_STYLE ('',( #115 ) ) ;
#185 = VECTOR ( 'NONE', #788, 1000.000000000000000 ) ;
#186 = VECTOR ( 'NONE', #527, 1000.000000000000000 ) ;
#187 = EDGE_CURVE ( 'NONE', #662, #656, #473, .T. ) ;
#188 = EDGE_LOOP ( 'NONE', ( #7, #78, #538, #524 ) ) ;
#189 = PLANE ( 'NONE',  #578 ) ;
#190 = ORIENTED_EDGE ( 'NONE', *, *, #222, .T. ) ;
#191 = VECTOR ( 'NONE', #446, 1000.000000000000000 ) ;
#192 = VECTOR ( 'NONE', #103, 1000.000000000000000 ) ;
#193 = CARTESIAN_POINT ( 'NONE',  ( -0.9499999999999994005, 0.03499999999999990619, 1.600000000000000089 ) ) ;
#194 = EDGE_CURVE ( 'NONE', #950, #711, #653, .T. ) ;
#195 = PLANE ( 'NONE',  #777 ) ;
#196 = LINE ( 'NONE', #835, #185 ) ;
#197 = ADVANCED_FACE ( 'NONE', ( #54 ), #557, .T. ) ;
#198 = DIRECTION ( 'NONE',  ( 2.710505431213761085E-16, 0.0000000000000000000, 1.000000000000000000 ) ) ;
#199 = ORIENTED_EDGE ( 'NONE', *, *, #932, .T. ) ;
#200 = CARTESIAN_POINT ( 'NONE',  ( -0.9499999999999994005, 0.03499999999999990619, 1.600000000000000089 ) ) ;
#201 = ORIENTED_EDGE ( 'NONE', *, *, #529, .T. ) ;
#202 = DIRECTION ( 'NONE',  ( -1.000000000000000000, 1.630379206745118808E-16, 0.0000000000000000000 ) ) ;
#203 = AXIS2_PLACEMENT_3D ( 'NONE', #553, #850, #415 ) ;
#204 = ORIENTED_EDGE ( 'NONE', *, *, #944, .F. ) ;
#205 = EDGE_LOOP ( 'NONE', ( #235, #215, #481, #516 ) ) ;
#206 = DIRECTION ( 'NONE',  ( 0.0000000000000000000, 0.0000000000000000000, 1.000000000000000000 ) ) ;
#207 = EDGE_CURVE ( 'NONE', #676, #97, #100, .T. ) ;
#208 = STYLED_ITEM ( 'NONE', ( #782 ), #51 ) ;
#209 = PRODUCT_CONTEXT ( 'NONE', #300, 'mechanical' ) ;
#210 = FACE_OUTER_BOUND ( 'NONE', #30, .T. ) ;
#211 = UNCERTAINTY_MEASURE_WITH_UNIT (LENGTH_MEASURE( 1.000000000000000082E-05 ), #875, 'distance_accuracy_value', 'NONE');
#212 = VECTOR ( 'NONE', #373, 1000.000000000000000 ) ;
#213 = CARTESIAN_POINT ( 'NONE',  ( -3.114999999999999769, 0.6649999999999988143, 1.600000000000000089 ) ) ;
#214 = VERTEX_POINT ( 'NONE', #622 ) ;
#215 = ORIENTED_EDGE ( 'NONE', *, *, #31, .F. ) ;
#216 = EDGE_CURVE ( 'NONE', #683, #230, #497, .T. ) ;
#217 = VECTOR ( 'NONE', #273, 1000.000000000000000 ) ;
#218 = CARTESIAN_POINT ( 'NONE',  ( -3.149999999999999467, 0.6999999999999995115, 1.600000000000000089 ) ) ;
#219 = VECTOR ( 'NONE', #869, 1000.000000000000000 ) ;
#220 = CARTESIAN_POINT ( 'NONE',  ( -2.449999999999999289, 0.6649999999999989253, 1.600000000000000089 ) ) ;
#221 =( NAMED_UNIT ( * ) SI_UNIT ( $, .STERADIAN. ) SOLID_ANGLE_UNIT ( ) );
#222 = EDGE_CURVE ( 'NONE', #626, #790, #143, .T. ) ;
#223 =( NAMED_UNIT ( * ) PLANE_ANGLE_UNIT ( ) SI_UNIT ( $, .RADIAN. ) );
#224 = CARTESIAN_POINT ( 'NONE',  ( -3.114999999999999769, 0.03499999999999964251, 1.600000000000000089 ) ) ;
#225 = PRESENTATION_LAYER_ASSIGNMENT (  '', '', ( #658 ) ) ;
#226 = VECTOR ( 'NONE', #156, 1000.000000000000000 ) ;
#227 = DIRECTION ( 'NONE',  ( 0.0000000000000000000, 0.0000000000000000000, -1.000000000000000000 ) ) ;
#228 = ORIENTED_EDGE ( 'NONE', *, *, #703, .T. ) ;
#229 =( LENGTH_UNIT ( ) NAMED_UNIT ( * ) SI_UNIT ( .MILLI., .METRE. ) );
#230 = VERTEX_POINT ( 'NONE', #923 ) ;
#231 = VECTOR ( 'NONE', #238, 1000.000000000000000 ) ;
#232 = ORIENTED_EDGE ( 'NONE', *, *, #576, .F. ) ;
#233 = EDGE_CURVE ( 'NONE', #570, #936, #803, .T. ) ;
#234 = DIRECTION ( 'NONE',  ( 0.0000000000000000000, 1.000000000000000000, 0.0000000000000000000 ) ) ;
#235 = ORIENTED_EDGE ( 'NONE', *, *, #467, .T. ) ;
#236 = CARTESIAN_POINT ( 'NONE',  ( -2.449999999999999289, 0.6649999999999989253, 1.600000000000000089 ) ) ;
#237 = LINE ( 'NONE', #617, #786 ) ;
#238 = DIRECTION ( 'NONE',  ( 0.0000000000000000000, 0.0000000000000000000, 1.000000000000000000 ) ) ;
#239 = ORIENTED_EDGE ( 'NONE', *, *, #619, .F. ) ;
#240 = DIRECTION ( 'NONE',  ( 0.0000000000000000000, -0.0000000000000000000, 1.000000000000000000 ) ) ;
#241 = ORIENTED_EDGE ( 'NONE', *, *, #9, .F. ) ;
#242 = CARTESIAN_POINT ( 'NONE',  ( 0.0000000000000000000, 0.0000000000000000000, 1.600000000000000089 ) ) ;
#243 = EDGE_CURVE ( 'NONE', #97, #400, #438, .T. ) ;
#244 = COLOUR_RGB ( '',0.2509803921568627416, 0.2509803921568627416, 0.2509803921568627416 ) ;
#245 = LINE ( 'NONE', #778, #192 ) ;
#246 = DIRECTION ( 'NONE',  ( 0.0000000000000000000, -0.0000000000000000000, -1.000000000000000000 ) ) ;
#247 = DIRECTION ( 'NONE',  ( -0.0000000000000000000, -0.0000000000000000000, -1.000000000000000000 ) ) ;
#248 = CARTESIAN_POINT ( 'NONE',  ( 3.114999999999999769, 0.03499999999999964251, 1.600000000000000089 ) ) ;
#249 = PLANE ( 'NONE',  #725 ) ;
#250 = AXIS2_PLACEMENT_3D ( 'NONE', #602, #299, #901 ) ;
#251 = DIRECTION ( 'NONE',  ( 0.0000000000000000000, -0.0000000000000000000, -1.000000000000000000 ) ) ;
#252 = ORIENTED_EDGE ( 'NONE', *, *, #880, .T. ) ;
#253 = DIRECTION ( 'NONE',  ( -1.000000000000000000, 0.0000000000000000000, -0.0000000000000000000 ) ) ;
#254 = ORIENTED_EDGE ( 'NONE', *, *, #74, .F. ) ;
#255 = CARTESIAN_POINT ( 'NONE',  ( -0.9499999999999994005, 0.03499999999999990619, 1.600000000000000089 ) ) ;
#256 = VECTOR ( 'NONE', #648, 1000.000000000000000 ) ;
#257 = EDGE_LOOP ( 'NONE', ( #439, #549, #290, #712 ) ) ;
#258 = CARTESIAN_POINT ( 'NONE',  ( -3.149999999999999467, -3.857637417314162196E-16, 1.600000000000000089 ) ) ;
#259 = ORIENTED_EDGE ( 'NONE', *, *, #176, .F. ) ;
#260 = AXIS2_PLACEMENT_3D ( 'NONE', #343, #420, #108 ) ;
#261 = CARTESIAN_POINT ( 'NONE',  ( 0.9499999999999994005, 0.0000000000000000000, -1.600000000000000089 ) ) ;
#262 = EDGE_CURVE ( 'NONE', #266, #750, #335, .T. ) ;
#263 = VECTOR ( 'NONE', #772, 1000.000000000000000 ) ;
#264 = CARTESIAN_POINT ( 'NONE',  ( 2.449999999999999289, 0.6999999999999990674, 1.600000000000000089 ) ) ;
#265 = VECTOR ( 'NONE', #642, 1000.000000000000000 ) ;
#266 = VERTEX_POINT ( 'NONE', #101 ) ;
#267 = EDGE_LOOP ( 'NONE', ( #282, #70, #826, #201, #199, #109, #518, #494 ) ) ;
#268 = DIRECTION ( 'NONE',  ( 0.0000000000000000000, 0.0000000000000000000, -1.000000000000000000 ) ) ;
#269 = CLOSED_SHELL ( 'NONE', ( #657, #694, #126, #436, #161, #26, #606, #874, #421, #824 ) ) ;
#270 = EDGE_CURVE ( 'NONE', #458, #528, #306, .T. ) ;
#271 = DIRECTION ( 'NONE',  ( 0.0000000000000000000, -0.0000000000000000000, 1.000000000000000000 ) ) ;
#272 = FACE_OUTER_BOUND ( 'NONE', #16, .T. ) ;
#273 = DIRECTION ( 'NONE',  ( 1.000000000000000000, 1.753471553324619023E-16, -0.0000000000000000000 ) ) ;
#274 = EDGE_CURVE ( 'NONE', #277, #41, #886, .T. ) ;
#275 = ORIENTED_EDGE ( 'NONE', *, *, #477, .F. ) ;
#276 = FILL_AREA_STYLE_COLOUR ( '', #296 ) ;
#277 = VERTEX_POINT ( 'NONE', #544 ) ;
#278 = ADVANCED_FACE ( 'NONE', ( #834 ), #408, .F. ) ;
#279 = DIRECTION ( 'NONE',  ( 1.000000000000000000, 0.0000000000000000000, 0.0000000000000000000 ) ) ;
#280 = VECTOR ( 'NONE', #461, 1000.000000000000000 ) ;
#281 = VECTOR ( 'NONE', #59, 1000.000000000000000 ) ;
#282 = ORIENTED_EDGE ( 'NONE', *, *, #371, .T. ) ;
#283 = DIRECTION ( 'NONE',  ( -1.753471553324619270E-16, 1.000000000000000000, 0.0000000000000000000 ) ) ;
#284 = CARTESIAN_POINT ( 'NONE',  ( -3.114999999999999769, 0.6649999999999988143, -7.861772911883662118 ) ) ;
#285 = PLANE ( 'NONE',  #317 ) ;
#286 = VECTOR ( 'NONE', #36, 1000.000000000000000 ) ;
#287 = CARTESIAN_POINT ( 'NONE',  ( -0.9499999999999994005, 0.03499999999999990619, 1.600000000000000089 ) ) ;
#288 = ORIENTED_EDGE ( 'NONE', *, *, #384, .F. ) ;
#289 = CARTESIAN_POINT ( 'NONE',  ( 3.114999999999999769, 0.03499999999999964945, -1.599999999999999867 ) ) ;
#290 = ORIENTED_EDGE ( 'NONE', *, *, #116, .F. ) ;
#291 = VECTOR ( 'NONE', #12, 1000.000000000000000 ) ;
#292 = EDGE_LOOP ( 'NONE', ( #843, #700, #709, #719 ) ) ;
#293 = EDGE_CURVE ( 'NONE', #400, #65, #89, .T. ) ;
#294 = PRODUCT_RELATED_PRODUCT_CATEGORY ( 'part', '', ( #118 ) ) ;
#295 = CARTESIAN_POINT ( 'NONE',  ( -0.9499999999999994005, 0.03499999999999990619, 1.600000000000000089 ) ) ;
#296 = COLOUR_RGB ( '',1.000000000000000000, 1.000000000000000000, 1.000000000000000000 ) ;
#297 = CARTESIAN_POINT ( 'NONE',  ( -2.449999999999999289, 0.6649999999999989253, -1.600000000000000089 ) ) ;
#298 = LINE ( 'NONE', #46, #341 ) ;
#299 = DIRECTION ( 'NONE',  ( 1.000000000000000000, -1.612184395336183031E-16, -2.710505431213761085E-16 ) ) ;
#300 = APPLICATION_CONTEXT ( 'automotive_design' ) ;
#301 = EDGE_LOOP ( 'NONE', ( #563, #686, #569, #368 ) ) ;
#302 = EDGE_LOOP ( 'NONE', ( #630, #468, #252, #882 ) ) ;
#303 = FILL_AREA_STYLE_COLOUR ( '', #614 ) ;
#304 = PRESENTATION_LAYER_ASSIGNMENT (  '', '', ( #732 ) ) ;
#305 = CARTESIAN_POINT ( 'NONE',  ( 3.114999999999999769, 0.6649999999999988143, -1.599999999999999867 ) ) ;
#306 = LINE ( 'NONE', #762, #846 ) ;
#307 = ORIENTED_EDGE ( 'NONE', *, *, #891, .T. ) ;
#308 = CARTESIAN_POINT ( 'NONE',  ( 3.114999999999999769, 0.03499999999999964251, -1.600000000000000089 ) ) ;
#309 = DIRECTION ( 'NONE',  ( 1.000000000000000000, 0.0000000000000000000, -0.0000000000000000000 ) ) ;
#310 = AXIS2_PLACEMENT_3D ( 'NONE', #93, #714, #268 ) ;
#311 = ADVANCED_FACE ( 'NONE', ( #507 ), #580, .T. ) ;
#312 = FACE_OUTER_BOUND ( 'NONE', #392, .T. ) ;
#313 = DIRECTION ( 'NONE',  ( 0.0000000000000000000, 1.000000000000000000, 0.0000000000000000000 ) ) ;
#314 = ORIENTED_EDGE ( 'NONE', *, *, #169, .F. ) ;
#315 = ORIENTED_EDGE ( 'NONE', *, *, #909, .T. ) ;
#316 = VECTOR ( 'NONE', #740, 1000.000000000000000 ) ;
#317 = AXIS2_PLACEMENT_3D ( 'NONE', #515, #68, #366 ) ;
#318 = ORIENTED_EDGE ( 'NONE', *, *, #187, .F. ) ;
#319 = CARTESIAN_POINT ( 'NONE',  ( 3.114999999999999769, 0.03499999999999964945, -1.599999999999999867 ) ) ;
#320 = CARTESIAN_POINT ( 'NONE',  ( 3.149999999999999467, -3.857637417314162196E-16, 1.600000000000000089 ) ) ;
#321 = ADVANCED_BREP_SHAPE_REPRESENTATION ( 'RHC2512JT1K50', ( #707, #73, #739, #51, #352 ), #531 ) ;
#322 = DIRECTION ( 'NONE',  ( -1.000000000000000000, 1.612184395336183031E-16, 0.0000000000000000000 ) ) ;
#323 = ADVANCED_FACE ( 'NONE', ( #166 ), #363, .F. ) ;
#324 = EDGE_CURVE ( 'NONE', #112, #949, #486, .T. ) ;
#325 = PRESENTATION_STYLE_ASSIGNMENT (( #360 ) ) ;
#326 = DIRECTION ( 'NONE',  ( -1.630379206745118808E-16, 1.000000000000000000, 0.0000000000000000000 ) ) ;
#327 = LINE ( 'NONE', #871, #466 ) ;
#328 = DIRECTION ( 'NONE',  ( -1.612184395336183031E-16, -1.000000000000000000, 0.0000000000000000000 ) ) ;
#329 = DIRECTION ( 'NONE',  ( 0.0000000000000000000, 1.000000000000000000, 0.0000000000000000000 ) ) ;
#330 = ORIENTED_EDGE ( 'NONE', *, *, #157, .T. ) ;
#331 = DIRECTION ( 'NONE',  ( 0.0000000000000000000, 0.0000000000000000000, -1.000000000000000000 ) ) ;
#332 = ORIENTED_EDGE ( 'NONE', *, *, #477, .T. ) ;
#333 = DIRECTION ( 'NONE',  ( -1.000000000000000000, 0.0000000000000000000, -0.0000000000000000000 ) ) ;
#334 = EDGE_CURVE ( 'NONE', #647, #112, #32, .T. ) ;
#335 = LINE ( 'NONE', #394, #416 ) ;
#336 = CARTESIAN_POINT ( 'NONE',  ( 0.0000000000000000000, 0.0000000000000000000, -1.600000000000000089 ) ) ;
#337 = CARTESIAN_POINT ( 'NONE',  ( 2.449999999999999289, 0.6649999999999989253, -1.600000000000000089 ) ) ;
#338 = PLANE ( 'NONE',  #42 ) ;
#339 = LINE ( 'NONE', #910, #430 ) ;
#340 = MECHANICAL_DESIGN_GEOMETRIC_PRESENTATION_REPRESENTATION (  '', ( #208 ), #389 ) ;
#341 = VECTOR ( 'NONE', #500, 1000.000000000000000 ) ;
#342 = PLANE ( 'NONE',  #571 ) ;
#343 = CARTESIAN_POINT ( 'NONE',  ( -3.114999999999999769, 0.03499999999999964251, 1.600000000000000089 ) ) ;
#344 = ORIENTED_EDGE ( 'NONE', *, *, #233, .T. ) ;
#345 = ORIENTED_EDGE ( 'NONE', *, *, #233, .F. ) ;
#346 = LINE ( 'NONE', #883, #316 ) ;
#347 = ORIENTED_EDGE ( 'NONE', *, *, #909, .F. ) ;
#348 = DIRECTION ( 'NONE',  ( 1.612184395336183031E-16, 1.000000000000000000, 0.0000000000000000000 ) ) ;
#349 = EDGE_CURVE ( 'NONE', #65, #528, #749, .T. ) ;
#350 = VECTOR ( 'NONE', #247, 1000.000000000000000 ) ;
#351 = CARTESIAN_POINT ( 'NONE',  ( -2.450000000000000178, 0.6649999999999989253, 1.600000000000000089 ) ) ;
#352 = AXIS2_PLACEMENT_3D ( 'NONE', #806, #661, #894 ) ;
#353 = ORIENTED_EDGE ( 'NONE', *, *, #745, .F. ) ;
#354 = ORIENTED_EDGE ( 'NONE', *, *, #83, .T. ) ;
#355 = CARTESIAN_POINT ( 'NONE',  ( 3.114999999999999769, 0.6649999999999988143, 1.600000000000000089 ) ) ;
#356 = VERTEX_POINT ( 'NONE', #511 ) ;
#357 = DIRECTION ( 'NONE',  ( 1.000000000000000000, -1.770125995894701449E-16, 0.0000000000000000000 ) ) ;
#358 = AXIS2_PLACEMENT_3D ( 'NONE', #160, #29, #766 ) ;
#359 = CARTESIAN_POINT ( 'NONE',  ( 1.239088197126285887E-16, 0.6999999999999971800, 0.0000000000000000000 ) ) ;
#360 = SURFACE_STYLE_USAGE ( .BOTH. , #867 ) ;
#361 = LINE ( 'NONE', #634, #47 ) ;
#362 = ADVANCED_FACE ( 'NONE', ( #896 ), #583, .F. ) ;
#363 = PLANE ( 'NONE',  #770 ) ;
#364 = CARTESIAN_POINT ( 'NONE',  ( -3.114999999999999769, 0.6649999999999988143, -1.599999999999999867 ) ) ;
#365 = ORIENTED_EDGE ( 'NONE', *, *, #71, .T. ) ;
#366 = DIRECTION ( 'NONE',  ( -1.000000000000000000, -7.744301232039317668E-16, 0.0000000000000000000 ) ) ;
#367 = PRESENTATION_STYLE_ASSIGNMENT (( #449 ) ) ;
#368 = ORIENTED_EDGE ( 'NONE', *, *, #74, .T. ) ;
#369 = APPLICATION_CONTEXT ( 'automotive_design' ) ;
#370 = CLOSED_SHELL ( 'NONE', ( #478, #537, #510, #55, #726, #483 ) ) ;
#371 = EDGE_CURVE ( 'NONE', #523, #927, #685, .T. ) ;
#372 = AXIS2_PLACEMENT_3D ( 'NONE', #84, #151, #897 ) ;
#373 = DIRECTION ( 'NONE',  ( 1.000000000000000000, 1.087682757308893106E-18, 0.0000000000000000000 ) ) ;
#374 = PRODUCT_DEFINITION_SHAPE ( 'NONE', 'NONE',  #645 ) ;
#375 = SURFACE_SIDE_STYLE ('',( #164 ) ) ;
#376 = VECTOR ( 'NONE', #168, 1000.000000000000000 ) ;
#377 = CARTESIAN_POINT ( 'NONE',  ( -3.114999999999999769, 0.03499999999999964251, 1.600000000000000089 ) ) ;
#378 = EDGE_CURVE ( 'NONE', #711, #656, #603, .T. ) ;
#379 = ORIENTED_EDGE ( 'NONE', *, *, #207, .F. ) ;
#380 = ORIENTED_EDGE ( 'NONE', *, *, #954, .F. ) ;
#381 = DIRECTION ( 'NONE',  ( 0.0000000000000000000, 1.000000000000000000, 0.0000000000000000000 ) ) ;
#382 = LINE ( 'NONE', #434, #217 ) ;
#383 =( NAMED_UNIT ( * ) PLANE_ANGLE_UNIT ( ) SI_UNIT ( $, .RADIAN. ) );
#384 = EDGE_CURVE ( 'NONE', #230, #936, #939, .T. ) ;
#385 = SURFACE_SIDE_STYLE ('',( #179 ) ) ;
#386 = PLANE ( 'NONE',  #372 ) ;
#387 = CARTESIAN_POINT ( 'NONE',  ( 3.114999999999999769, 0.03499999999999964945, -7.861772911883662118 ) ) ;
#388 = ORIENTED_EDGE ( 'NONE', *, *, #816, .F. ) ;
#389 =( GEOMETRIC_REPRESENTATION_CONTEXT ( 3 ) GLOBAL_UNCERTAINTY_ASSIGNED_CONTEXT ( ( #145 ) ) GLOBAL_UNIT_ASSIGNED_CONTEXT ( ( #751, #223, #895 ) ) REPRESENTATION_CONTEXT ( 'NONE', 'WORKASPACE' ) );
#390 = CARTESIAN_POINT ( 'NONE',  ( 3.114999999999999769, 0.6649999999999988143, -1.600000000000000089 ) ) ;
#391 = ORIENTED_EDGE ( 'NONE', *, *, #861, .T. ) ;
#392 = EDGE_LOOP ( 'NONE', ( #460, #307, #4, #781 ) ) ;
#393 = DIRECTION ( 'NONE',  ( -0.0000000000000000000, -0.0000000000000000000, -1.000000000000000000 ) ) ;
#394 = CARTESIAN_POINT ( 'NONE',  ( -2.449999999999999289, 0.6649999999999989253, -1.600000000000000089 ) ) ;
#395 = VECTOR ( 'NONE', #98, 1000.000000000000000 ) ;
#396 = DIRECTION ( 'NONE',  ( 1.000000000000000000, -1.220666418214049308E-16, 0.0000000000000000000 ) ) ;
#397 = VECTOR ( 'NONE', #125, 1000.000000000000000 ) ;
#398 = ADVANCED_FACE ( 'NONE', ( #675 ), #342, .F. ) ;
#399 = CARTESIAN_POINT ( 'NONE',  ( -2.449999999999999289, 0.6999999999999976241, -1.600000000000000089 ) ) ;
#400 = VERTEX_POINT ( 'NONE', #35 ) ;
#401 = CARTESIAN_POINT ( 'NONE',  ( 3.114999999999999769, 0.6649999999999988143, 1.600000000000000089 ) ) ;
#402 = VERTEX_POINT ( 'NONE', #727 ) ;
#403 = LINE ( 'NONE', #598, #191 ) ;
#404 = DIRECTION ( 'NONE',  ( 0.0000000000000000000, 0.0000000000000000000, 1.000000000000000000 ) ) ;
#405 = FACE_OUTER_BOUND ( 'NONE', #611, .T. ) ;
#406 = CARTESIAN_POINT ( 'NONE',  ( 0.9499999999999994005, 0.0000000000000000000, -1.600000000000000089 ) ) ;
#407 = CARTESIAN_POINT ( 'NONE',  ( 0.9499999999999994005, 0.03499999999999990619, 1.600000000000000089 ) ) ;
#408 = PLANE ( 'NONE',  #609 ) ;
#409 = CARTESIAN_POINT ( 'NONE',  ( 0.0000000000000000000, 0.0000000000000000000, -1.600000000000000089 ) ) ;
#410 = CARTESIAN_POINT ( 'NONE',  ( 2.449999999999998401, -5.187349955359813691, 1.600000000000000089 ) ) ;
#411 = VECTOR ( 'NONE', #104, 1000.000000000000000 ) ;
#412 = PLANE ( 'NONE',  #203 ) ;
#413 = DIRECTION ( 'NONE',  ( 1.000000000000000000, 1.220666418214049308E-16, 0.0000000000000000000 ) ) ;
#414 = ORIENTED_EDGE ( 'NONE', *, *, #713, .F. ) ;
#415 = DIRECTION ( 'NONE',  ( 1.000000000000000000, 1.087682757308893106E-18, 0.0000000000000000000 ) ) ;
#416 = VECTOR ( 'NONE', #551, 1000.000000000000000 ) ;
#417 = PRESENTATION_LAYER_ASSIGNMENT (  '', '', ( #811 ) ) ;
#418 = ORIENTED_EDGE ( 'NONE', *, *, #293, .F. ) ;
#419 = DIRECTION ( 'NONE',  ( 1.000000000000000000, 0.0000000000000000000, 0.0000000000000000000 ) ) ;
#420 = DIRECTION ( 'NONE',  ( -1.000000000000000000, 0.0000000000000000000, 0.0000000000000000000 ) ) ;
#421 = ADVANCED_FACE ( 'NONE', ( #793 ), #849, .F. ) ;
#422 = EDGE_CURVE ( 'NONE', #927, #120, #961, .T. ) ;
#423 = EDGE_CURVE ( 'NONE', #34, #523, #382, .T. ) ;
#424 = ORIENTED_EDGE ( 'NONE', *, *, #775, .F. ) ;
#425 = ORIENTED_EDGE ( 'NONE', *, *, #880, .F. ) ;
#426 = VECTOR ( 'NONE', #165, 1000.000000000000000 ) ;
#427 = EDGE_CURVE ( 'NONE', #77, #731, #245, .T. ) ;
#428 = CARTESIAN_POINT ( 'NONE',  ( -3.114999999999999769, 0.03499999999999964251, 1.600000000000000089 ) ) ;
#429 = EDGE_CURVE ( 'NONE', #41, #230, #11, .T. ) ;
#430 = VECTOR ( 'NONE', #152, 1000.000000000000000 ) ;
#431 =( NAMED_UNIT ( * ) SI_UNIT ( $, .STERADIAN. ) SOLID_ANGLE_UNIT ( ) );
#432 =( GEOMETRIC_REPRESENTATION_CONTEXT ( 3 ) GLOBAL_UNCERTAINTY_ASSIGNED_CONTEXT ( ( #180 ) ) GLOBAL_UNIT_ASSIGNED_CONTEXT ( ( #607, #612, #689 ) ) REPRESENTATION_CONTEXT ( 'NONE', 'WORKASPACE' ) );
#433 = ORIENTED_EDGE ( 'NONE', *, *, #691, .T. ) ;
#434 = CARTESIAN_POINT ( 'NONE',  ( -0.9499999999999994005, 0.0000000000000000000, 1.600000000000000089 ) ) ;
#435 = ORIENTED_EDGE ( 'NONE', *, *, #378, .F. ) ;
#436 = ADVANCED_FACE ( 'NONE', ( #798 ), #925, .F. ) ;
#437 = DIRECTION ( 'NONE',  ( -1.000000000000000000, 1.753471553324619023E-16, 0.0000000000000000000 ) ) ;
#438 = LINE ( 'NONE', #96, #924 ) ;
#439 = ORIENTED_EDGE ( 'NONE', *, *, #585, .T. ) ;
#440 = DIRECTION ( 'NONE',  ( -1.000000000000000000, 0.0000000000000000000, -0.0000000000000000000 ) ) ;
#441 = ORIENTED_EDGE ( 'NONE', *, *, #427, .F. ) ;
#442 =( GEOMETRIC_REPRESENTATION_CONTEXT ( 3 ) GLOBAL_UNCERTAINTY_ASSIGNED_CONTEXT ( ( #906 ) ) GLOBAL_UNIT_ASSIGNED_CONTEXT ( ( #229, #671, #747 ) ) REPRESENTATION_CONTEXT ( 'NONE', 'WORKASPACE' ) );
#443 =( LENGTH_UNIT ( ) NAMED_UNIT ( * ) SI_UNIT ( .MILLI., .METRE. ) );
#444 = VECTOR ( 'NONE', #357, 1000.000000000000000 ) ;
#445 = VECTOR ( 'NONE', #960, 1000.000000000000000 ) ;
#446 = DIRECTION ( 'NONE',  ( 0.0000000000000000000, 1.000000000000000000, 0.0000000000000000000 ) ) ;
#447 = ORIENTED_EDGE ( 'NONE', *, *, #136, .F. ) ;
#448 = ORIENTED_EDGE ( 'NONE', *, *, #784, .F. ) ;
#449 = SURFACE_STYLE_USAGE ( .BOTH. , #375 ) ;
#450 = APPLICATION_PROTOCOL_DEFINITION ( 'draft international standard', 'automotive_design', 1998, #369 ) ;
#451 = VECTOR ( 'NONE', #404, 1000.000000000000000 ) ;
#452 = EDGE_CURVE ( 'NONE', #586, #868, #513, .T. ) ;
#453 = DIRECTION ( 'NONE',  ( 1.753471553324619270E-16, 1.000000000000000000, 0.0000000000000000000 ) ) ;
#454 = APPLICATION_PROTOCOL_DEFINITION ( 'draft international standard', 'automotive_design', 1998, #300 ) ;
#455 = LINE ( 'NONE', #355, #717 ) ;
#456 = VERTEX_POINT ( 'NONE', #25 ) ;
#457 = CARTESIAN_POINT ( 'NONE',  ( 3.114999999999999769, 0.6649999999999988143, -1.600000000000000089 ) ) ;
#458 = VERTEX_POINT ( 'NONE', #919 ) ;
#459 = LINE ( 'NONE', #390, #825 ) ;
#460 = ORIENTED_EDGE ( 'NONE', *, *, #222, .F. ) ;
#461 = DIRECTION ( 'NONE',  ( -0.0000000000000000000, -0.0000000000000000000, -1.000000000000000000 ) ) ;
#462 = ORIENTED_EDGE ( 'NONE', *, *, #169, .T. ) ;
#463 = STYLED_ITEM ( 'NONE', ( #325 ), #739 ) ;
#464 = SHAPE_DEFINITION_REPRESENTATION ( #374, #321 ) ;
#465 = PRESENTATION_STYLE_ASSIGNMENT (( #863 ) ) ;
#466 = VECTOR ( 'NONE', #577, 1000.000000000000000 ) ;
#467 = EDGE_CURVE ( 'NONE', #893, #552, #943, .T. ) ;
#468 = ORIENTED_EDGE ( 'NONE', *, *, #673, .T. ) ;
#469 = ORIENTED_EDGE ( 'NONE', *, *, #194, .F. ) ;
#470 = ADVANCED_FACE ( 'NONE', ( #761 ), #690, .T. ) ;
#471 = ORIENTED_EDGE ( 'NONE', *, *, #643, .T. ) ;
#472 = CARTESIAN_POINT ( 'NONE',  ( -3.114999999999999769, 0.03499999999999964251, -1.600000000000000089 ) ) ;
#473 = LINE ( 'NONE', #172, #721 ) ;
#474 = CARTESIAN_POINT ( 'NONE',  ( -3.114999999999999769, 0.6649999999999988143, 1.600000000000000089 ) ) ;
#475 = DIRECTION ( 'NONE',  ( 0.0000000000000000000, 1.000000000000000000, 0.0000000000000000000 ) ) ;
#476 = PLANE ( 'NONE',  #501 ) ;
#477 = EDGE_CURVE ( 'NONE', #662, #804, #237, .T. ) ;
#478 = ADVANCED_FACE ( 'NONE', ( #210 ), #628, .T. ) ;
#479 = DIRECTION ( 'NONE',  ( 0.0000000000000000000, 0.0000000000000000000, -1.000000000000000000 ) ) ;
#480 = LINE ( 'NONE', #213, #808 ) ;
#481 = ORIENTED_EDGE ( 'NONE', *, *, #371, .F. ) ;
#482 = DIRECTION ( 'NONE',  ( 0.0000000000000000000, 0.0000000000000000000, 1.000000000000000000 ) ) ;
#483 = ADVANCED_FACE ( 'NONE', ( #900 ), #688, .T. ) ;
#484 = ORIENTED_EDGE ( 'NONE', *, *, #724, .T. ) ;
#485 = AXIS2_PLACEMENT_3D ( 'NONE', #284, #722, #271 ) ;
#486 = LINE ( 'NONE', #505, #641 ) ;
#487 = CARTESIAN_POINT ( 'NONE',  ( 2.449999999999998401, 0.6999999999999967359, -1.600000000000000089 ) ) ;
#488 = DIRECTION ( 'NONE',  ( -0.0000000000000000000, 0.0000000000000000000, 1.000000000000000000 ) ) ;
#489 = ADVANCED_FACE ( 'NONE', ( #854 ), #697, .F. ) ;
#490 = FACE_OUTER_BOUND ( 'NONE', #581, .T. ) ;
#491 = DIRECTION ( 'NONE',  ( -1.000000000000000000, -1.220666418214049308E-16, 0.0000000000000000000 ) ) ;
#492 = PRESENTATION_STYLE_ASSIGNMENT (( #66 ) ) ;
#493 = CARTESIAN_POINT ( 'NONE',  ( -3.114999999999999769, 0.03499999999999964251, -1.600000000000000089 ) ) ;
#494 = ORIENTED_EDGE ( 'NONE', *, *, #423, .T. ) ;
#495 = CARTESIAN_POINT ( 'NONE',  ( -2.449999999999999289, 0.6999999999999990674, 1.600000000000000089 ) ) ;
#496 = ORIENTED_EDGE ( 'NONE', *, *, #944, .T. ) ;
#497 = LINE ( 'NONE', #410, #629 ) ;
#498 = EDGE_LOOP ( 'NONE', ( #780, #859, #81, #462 ) ) ;
#499 = EDGE_CURVE ( 'NONE', #870, #586, #589, .T. ) ;
#500 = DIRECTION ( 'NONE',  ( 1.000000000000000000, 1.753471553324619023E-16, -0.0000000000000000000 ) ) ;
#501 = AXIS2_PLACEMENT_3D ( 'NONE', #495, #760, #39 ) ;
#502 = VECTOR ( 'NONE', #743, 1000.000000000000000 ) ;
#503 = EDGE_LOOP ( 'NONE', ( #496, #779, #354, #8 ) ) ;
#504 = ORIENTED_EDGE ( 'NONE', *, *, #334, .F. ) ;
#505 = CARTESIAN_POINT ( 'NONE',  ( 2.449999999999999289, 0.6999999999999990674, -1.600000000000000089 ) ) ;
#506 = EDGE_LOOP ( 'NONE', ( #938, #159, #177, #87 ) ) ;
#507 = FACE_OUTER_BOUND ( 'NONE', #860, .T. ) ;
#508 = AXIS2_PLACEMENT_3D ( 'NONE', #851, #127, #440 ) ;
#509 = FILL_AREA_STYLE ('',( #276 ) ) ;
#510 = ADVANCED_FACE ( 'NONE', ( #312 ), #412, .T. ) ;
#511 = CARTESIAN_POINT ( 'NONE',  ( -3.149999999999999467, -3.857637417314162196E-16, -1.600000000000000089 ) ) ;
#512 = PRODUCT_DEFINITION_CONTEXT ( 'detailed design', #369, 'design' ) ;
#513 = LINE ( 'NONE', #102, #395 ) ;
#514 =( GEOMETRIC_REPRESENTATION_CONTEXT ( 3 ) GLOBAL_UNCERTAINTY_ASSIGNED_CONTEXT ( ( #211 ) ) GLOBAL_UNIT_ASSIGNED_CONTEXT ( ( #875, #795, #431 ) ) REPRESENTATION_CONTEXT ( 'NONE', 'WORKASPACE' ) );
#515 = CARTESIAN_POINT ( 'NONE',  ( 2.449999999999999289, 0.6999999999999990674, 1.600000000000000089 ) ) ;
#516 = ORIENTED_EDGE ( 'NONE', *, *, #176, .T. ) ;
#517 = EDGE_LOOP ( 'NONE', ( #181, #448, #582, #139 ) ) ;
#518 = ORIENTED_EDGE ( 'NONE', *, *, #116, .T. ) ;
#519 = FILL_AREA_STYLE ('',( #303 ) ) ;
#520 = EDGE_CURVE ( 'NONE', #907, #214, #877, .T. ) ;
#521 = CARTESIAN_POINT ( 'NONE',  ( 3.114999999999999769, 0.6649999999999988143, -7.861772911883662118 ) ) ;
#522 = VECTOR ( 'NONE', #396, 1000.000000000000000 ) ;
#523 = VERTEX_POINT ( 'NONE', #774 ) ;
#524 = ORIENTED_EDGE ( 'NONE', *, *, #128, .T. ) ;
#525 = CARTESIAN_POINT ( 'NONE',  ( -3.149999999999999467, -3.857637417314162196E-16, 1.600000000000000089 ) ) ;
#526 = VECTOR ( 'NONE', #588, 1000.000000000000000 ) ;
#527 = DIRECTION ( 'NONE',  ( -0.0000000000000000000, -1.000000000000000000, -0.0000000000000000000 ) ) ;
#528 = VERTEX_POINT ( 'NONE', #406 ) ;
#529 = EDGE_CURVE ( 'NONE', #163, #147, #828, .T. ) ;
#530 = DIRECTION ( 'NONE',  ( -1.000000000000000000, -0.0000000000000000000, -0.0000000000000000000 ) ) ;
#531 =( GEOMETRIC_REPRESENTATION_CONTEXT ( 3 ) GLOBAL_UNCERTAINTY_ASSIGNED_CONTEXT ( ( #677 ) ) GLOBAL_UNIT_ASSIGNED_CONTEXT ( ( #597, #667, #221 ) ) REPRESENTATION_CONTEXT ( 'NONE', 'WORKASPACE' ) );
#532 = FACE_OUTER_BOUND ( 'NONE', #64, .T. ) ;
#533 = AXIS2_PLACEMENT_3D ( 'NONE', #908, #23, #240 ) ;
#534 = CARTESIAN_POINT ( 'NONE',  ( 2.449999999999999289, 0.6999999999999990674, -1.600000000000000089 ) ) ;
#535 = UNCERTAINTY_MEASURE_WITH_UNIT (LENGTH_MEASURE( 1.000000000000000082E-05 ), #443, 'distance_accuracy_value', 'NONE');
#536 = CLOSED_SHELL ( 'NONE', ( #398, #323, #561, #170, #278, #702, #489, #800, #362, #547 ) ) ;
#537 = ADVANCED_FACE ( 'NONE', ( #599 ), #249, .F. ) ;
#538 = ORIENTED_EDGE ( 'NONE', *, *, #932, .F. ) ;
#539 = CARTESIAN_POINT ( 'NONE',  ( -2.449999999999999289, 0.6999999999999976241, -1.600000000000000089 ) ) ;
#540 = ORIENTED_EDGE ( 'NONE', *, *, #724, .F. ) ;
#541 = DIRECTION ( 'NONE',  ( 1.000000000000000000, 0.0000000000000000000, 0.0000000000000000000 ) ) ;
#542 = CARTESIAN_POINT ( 'NONE',  ( -2.450000000000000178, -5.187349955359812803, -1.600000000000000089 ) ) ;
#543 = VECTOR ( 'NONE', #491, 1000.000000000000000 ) ;
#544 = CARTESIAN_POINT ( 'NONE',  ( -2.449999999999999289, 0.6999999999999976241, -1.600000000000000089 ) ) ;
#545 = LINE ( 'NONE', #138, #212 ) ;
#546 = CARTESIAN_POINT ( 'NONE',  ( 3.114999999999999769, 0.03499999999999964945, -7.861772911883662118 ) ) ;
#547 = ADVANCED_FACE ( 'NONE', ( #490 ), #338, .T. ) ;
#548 = DIRECTION ( 'NONE',  ( 0.0000000000000000000, 0.0000000000000000000, 1.000000000000000000 ) ) ;
#549 = ORIENTED_EDGE ( 'NONE', *, *, #703, .F. ) ;
#550 = PRODUCT_DEFINITION_FORMATION_WITH_SPECIFIED_SOURCE ( 'ANY', '', #118, .NOT_KNOWN. ) ;
#551 = DIRECTION ( 'NONE',  ( 0.0000000000000000000, 0.0000000000000000000, -1.000000000000000000 ) ) ;
#552 = VERTEX_POINT ( 'NONE', #558 ) ;
#553 = CARTESIAN_POINT ( 'NONE',  ( -3.114999999999999769, 0.03499999999999964251, -7.861772911883662118 ) ) ;
#554 = LINE ( 'NONE', #297, #572 ) ;
#555 = LINE ( 'NONE', #17, #426 ) ;
#556 = ORIENTED_EDGE ( 'NONE', *, *, #270, .F. ) ;
#557 = PLANE ( 'NONE',  #754 ) ;
#558 = CARTESIAN_POINT ( 'NONE',  ( -0.9499999999999994005, 0.03499999999999990619, -1.600000000000000089 ) ) ;
#559 = DIRECTION ( 'NONE',  ( -1.000000000000000000, -1.630379206745118808E-16, 0.0000000000000000000 ) ) ;
#560 = PLANE ( 'NONE',  #260 ) ;
#561 = ADVANCED_FACE ( 'NONE', ( #137 ), #560, .F. ) ;
#562 = DIRECTION ( 'NONE',  ( 1.000000000000000000, -1.220666418214049308E-16, 0.0000000000000000000 ) ) ;
#563 = ORIENTED_EDGE ( 'NONE', *, *, #157, .F. ) ;
#564 = CARTESIAN_POINT ( 'NONE',  ( 3.114999999999999769, 0.6649999999999988143, 1.600000000000000089 ) ) ;
#565 = EDGE_LOOP ( 'NONE', ( #353, #344, #288, #28 ) ) ;
#566 = CARTESIAN_POINT ( 'NONE',  ( 2.449999999999999289, 0.6999999999999990674, 1.600000000000000089 ) ) ;
#567 = FACE_OUTER_BOUND ( 'NONE', #132, .T. ) ;
#568 = CARTESIAN_POINT ( 'NONE',  ( -3.149999999999999467, -3.857637417314162196E-16, 1.600000000000000089 ) ) ;
#569 = ORIENTED_EDGE ( 'NONE', *, *, #794, .T. ) ;
#570 = VERTEX_POINT ( 'NONE', #853 ) ;
#571 = AXIS2_PLACEMENT_3D ( 'NONE', #200, #48, #575 ) ;
#572 = VECTOR ( 'NONE', #133, 1000.000000000000000 ) ;
#573 = VECTOR ( 'NONE', #773, 1000.000000000000000 ) ;
#574 = DIRECTION ( 'NONE',  ( -1.000000000000000000, 0.0000000000000000000, 0.0000000000000000000 ) ) ;
#575 = DIRECTION ( 'NONE',  ( 0.0000000000000000000, 0.0000000000000000000, 1.000000000000000000 ) ) ;
#576 = EDGE_CURVE ( 'NONE', #552, #638, #776, .T. ) ;
#577 = DIRECTION ( 'NONE',  ( -1.000000000000000000, 7.744301232039316681E-16, 0.0000000000000000000 ) ) ;
#578 = AXIS2_PLACEMENT_3D ( 'NONE', #359, #715, #791 ) ;
#579 = FACE_OUTER_BOUND ( 'NONE', #801, .T. ) ;
#580 = PLANE ( 'NONE',  #847 ) ;
#581 = EDGE_LOOP ( 'NONE', ( #639, #388, #857, #931, #241, #239, #848, #232 ) ) ;
#582 = ORIENTED_EDGE ( 'NONE', *, *, #422, .F. ) ;
#583 = PLANE ( 'NONE',  #508 ) ;
#584 = CARTESIAN_POINT ( 'NONE',  ( -3.114999999999999769, 0.6649999999999988143, -1.599999999999999867 ) ) ;
#585 = EDGE_CURVE ( 'NONE', #868, #356, #361, .T. ) ;
#586 = VERTEX_POINT ( 'NONE', #33 ) ;
#587 =( NAMED_UNIT ( * ) SI_UNIT ( $, .STERADIAN. ) SOLID_ANGLE_UNIT ( ) );
#588 = DIRECTION ( 'NONE',  ( -0.0000000000000000000, -0.0000000000000000000, -1.000000000000000000 ) ) ;
#589 = LINE ( 'NONE', #92, #350 ) ;
#590 = ORIENTED_EDGE ( 'NONE', *, *, #887, .F. ) ;
#591 = ORIENTED_EDGE ( 'NONE', *, *, #324, .T. ) ;
#592 = PLANE ( 'NONE',  #855 ) ;
#593 = EDGE_CURVE ( 'NONE', #676, #112, #155, .T. ) ;
#594 = CARTESIAN_POINT ( 'NONE',  ( -3.149999999999999467, -3.857637417314162196E-16, 1.600000000000000089 ) ) ;
#595 = VECTOR ( 'NONE', #817, 1000.000000000000000 ) ;
#596 = MECHANICAL_DESIGN_GEOMETRIC_PRESENTATION_REPRESENTATION (  '', ( #463 ), #514 ) ;
#597 =( LENGTH_UNIT ( ) NAMED_UNIT ( * ) SI_UNIT ( .MILLI., .METRE. ) );
#598 = CARTESIAN_POINT ( 'NONE',  ( 2.449999999999999289, 0.6649999999999989253, 1.600000000000000089 ) ) ;
#599 = FACE_OUTER_BOUND ( 'NONE', #503, .T. ) ;
#600 = PLANE ( 'NONE',  #250 ) ;
#601 = ORIENTED_EDGE ( 'NONE', *, *, #194, .T. ) ;
#602 = CARTESIAN_POINT ( 'NONE',  ( 2.449999999999997957, -5.187349955359813691, -1.600000000000000089 ) ) ;
#603 = LINE ( 'NONE', #633, #815 ) ;
#604 = ORIENTED_EDGE ( 'NONE', *, *, #427, .T. ) ;
#605 = CARTESIAN_POINT ( 'NONE',  ( 3.149999999999999467, 0.6999999999999995115, 1.600000000000000089 ) ) ;
#606 = ADVANCED_FACE ( 'NONE', ( #2 ), #706, .F. ) ;
#607 =( LENGTH_UNIT ( ) NAMED_UNIT ( * ) SI_UNIT ( .MILLI., .METRE. ) );
#608 = LINE ( 'NONE', #733, #445 ) ;
#609 = AXIS2_PLACEMENT_3D ( 'NONE', #153, #687, #771 ) ;
#610 = PLANE ( 'NONE',  #533 ) ;
#611 = EDGE_LOOP ( 'NONE', ( #664, #884, #764, #315 ) ) ;
#612 =( NAMED_UNIT ( * ) PLANE_ANGLE_UNIT ( ) SI_UNIT ( $, .RADIAN. ) );
#613 = VERTEX_POINT ( 'NONE', #564 ) ;
#614 = COLOUR_RGB ( '',0.7921568627450980005, 0.8196078431372548767, 0.9333333333333333481 ) ;
#615 = CARTESIAN_POINT ( 'NONE',  ( -3.114999999999999769, 0.03499999999999964251, -7.861772911883662118 ) ) ;
#616 = VECTOR ( 'NONE', #836, 1000.000000000000000 ) ;
#617 = CARTESIAN_POINT ( 'NONE',  ( 3.114999999999999769, 0.03499999999999964251, 1.600000000000000089 ) ) ;
#618 = CARTESIAN_POINT ( 'NONE',  ( 0.9499999999999994005, 0.03499999999999990619, -1.600000000000000089 ) ) ;
#619 = EDGE_CURVE ( 'NONE', #402, #456, #678, .T. ) ;
#620 = PLANE ( 'NONE',  #930 ) ;
#621 = DIRECTION ( 'NONE',  ( 1.000000000000000000, -1.630379206745118808E-16, 0.0000000000000000000 ) ) ;
#622 = CARTESIAN_POINT ( 'NONE',  ( 3.114999999999999769, 0.03499999999999964945, 1.600000000000000089 ) ) ;
#623 = LINE ( 'NONE', #568, #226 ) ;
#624 = CARTESIAN_POINT ( 'NONE',  ( -3.114999999999999769, 0.6649999999999988143, 1.600000000000000089 ) ) ;
#625 = EDGE_CURVE ( 'NONE', #458, #950, #196, .T. ) ;
#626 = VERTEX_POINT ( 'NONE', #933 ) ;
#627 = EDGE_LOOP ( 'NONE', ( #682, #259, #82, #228 ) ) ;
#628 = PLANE ( 'NONE',  #45 ) ;
#629 = VECTOR ( 'NONE', #917, 1000.000000000000000 ) ;
#630 = ORIENTED_EDGE ( 'NONE', *, *, #520, .F. ) ;
#631 = CARTESIAN_POINT ( 'NONE',  ( -3.114999999999999769, 0.6649999999999988143, -1.600000000000000089 ) ) ;
#632 = EDGE_CURVE ( 'NONE', #790, #214, #955, .T. ) ;
#633 = CARTESIAN_POINT ( 'NONE',  ( 0.9499999999999994005, 0.03499999999999990619, -1.600000000000000089 ) ) ;
#634 = CARTESIAN_POINT ( 'NONE',  ( -3.149999999999999467, -3.857637417314162196E-16, -1.600000000000000089 ) ) ;
#635 = CARTESIAN_POINT ( 'NONE',  ( 2.449999999999999289, 0.6649999999999989253, -1.600000000000000089 ) ) ;
#636 = SURFACE_STYLE_FILL_AREA ( #184 ) ;
#637 = LINE ( 'NONE', #117, #265 ) ;
#638 = VERTEX_POINT ( 'NONE', #493 ) ;
#639 = ORIENTED_EDGE ( 'NONE', *, *, #467, .F. ) ;
#640 = LINE ( 'NONE', #76, #814 ) ;
#641 = VECTOR ( 'NONE', #655, 1000.000000000000000 ) ;
#642 = DIRECTION ( 'NONE',  ( 0.0000000000000000000, -1.000000000000000000, -0.0000000000000000000 ) ) ;
#643 = EDGE_CURVE ( 'NONE', #77, #626, #339, .T. ) ;
#644 = DIRECTION ( 'NONE',  ( 0.0000000000000000000, 1.000000000000000000, 0.0000000000000000000 ) ) ;
#645 = PRODUCT_DEFINITION ( 'UNKNOWN', '', #550, #512 ) ;
#646 = LINE ( 'NONE', #162, #888 ) ;
#647 = VERTEX_POINT ( 'NONE', #635 ) ;
#648 = DIRECTION ( 'NONE',  ( -1.000000000000000000, 1.753471553324619023E-16, 0.0000000000000000000 ) ) ;
#649 = ORIENTED_EDGE ( 'NONE', *, *, #243, .F. ) ;
#650 = AXIS2_PLACEMENT_3D ( 'NONE', #401, #913, #621 ) ;
#651 = CARTESIAN_POINT ( 'NONE',  ( 2.449999999999998401, 0.6649999999999989253, -1.600000000000000089 ) ) ;
#652 = LINE ( 'NONE', #525, #53 ) ;
#653 = LINE ( 'NONE', #842, #573 ) ;
#654 = EDGE_LOOP ( 'NONE', ( #85, #433, #314, #345 ) ) ;
#655 = DIRECTION ( 'NONE',  ( 1.000000000000000000, 7.744301232039316681E-16, 0.0000000000000000000 ) ) ;
#656 = VERTEX_POINT ( 'NONE', #20 ) ;
#657 = ADVANCED_FACE ( 'NONE', ( #567 ), #692, .F. ) ;
#658 = STYLED_ITEM ( 'NONE', ( #492 ), #321 ) ;
#659 = VECTOR ( 'NONE', #348, 1000.000000000000000 ) ;
#660 = LINE ( 'NONE', #428, #890 ) ;
#661 = DIRECTION ( 'NONE',  ( 0.0000000000000000000, 0.0000000000000000000, 1.000000000000000000 ) ) ;
#662 = VERTEX_POINT ( 'NONE', #248 ) ;
#663 = EDGE_CURVE ( 'NONE', #638, #402, #728, .T. ) ;
#664 = ORIENTED_EDGE ( 'NONE', *, *, #619, .T. ) ;
#665 = CARTESIAN_POINT ( 'NONE',  ( -2.449999999999999289, 0.6999999999999976241, 1.600000000000000089 ) ) ;
#666 = ORIENTED_EDGE ( 'NONE', *, *, #334, .T. ) ;
#667 =( NAMED_UNIT ( * ) PLANE_ANGLE_UNIT ( ) SI_UNIT ( $, .RADIAN. ) );
#668 = LINE ( 'NONE', #521, #956 ) ;
#669 = CARTESIAN_POINT ( 'NONE',  ( -3.114999999999999769, 0.6649999999999988143, 1.600000000000000089 ) ) ;
#670 = ORIENTED_EDGE ( 'NONE', *, *, #349, .F. ) ;
#671 =( NAMED_UNIT ( * ) PLANE_ANGLE_UNIT ( ) SI_UNIT ( $, .RADIAN. ) );
#672 = ORIENTED_EDGE ( 'NONE', *, *, #891, .F. ) ;
#673 = EDGE_CURVE ( 'NONE', #907, #149, #741, .T. ) ;
#674 = SURFACE_STYLE_USAGE ( .BOTH. , #385 ) ;
#675 = FACE_OUTER_BOUND ( 'NONE', #205, .T. ) ;
#676 = VERTEX_POINT ( 'NONE', #566 ) ;
#677 = UNCERTAINTY_MEASURE_WITH_UNIT (LENGTH_MEASURE( 1.000000000000000082E-05 ), #597, 'distance_accuracy_value', 'NONE');
#678 = LINE ( 'NONE', #631, #286 ) ;
#679 = MECHANICAL_DESIGN_GEOMETRIC_PRESENTATION_REPRESENTATION (  '', ( #732 ), #442 ) ;
#680 = CARTESIAN_POINT ( 'NONE',  ( 3.114999999999999769, 0.03499999999999964945, 1.600000000000000089 ) ) ;
#681 = SURFACE_STYLE_FILL_AREA ( #818 ) ;
#682 = ORIENTED_EDGE ( 'NONE', *, *, #816, .T. ) ;
#683 = VERTEX_POINT ( 'NONE', #831 ) ;
#684 = DIRECTION ( 'NONE',  ( 1.000000000000000000, 0.0000000000000000000, -0.0000000000000000000 ) ) ;
#685 = LINE ( 'NONE', #255, #281 ) ;
#686 = ORIENTED_EDGE ( 'NONE', *, *, #759, .F. ) ;
#687 = DIRECTION ( 'NONE',  ( -1.000000000000000000, 0.0000000000000000000, 0.0000000000000000000 ) ) ;
#688 = PLANE ( 'NONE',  #358 ) ;
#689 =( NAMED_UNIT ( * ) SI_UNIT ( $, .STERADIAN. ) SOLID_ANGLE_UNIT ( ) );
#690 = PLANE ( 'NONE',  #922 ) ;
#691 = EDGE_CURVE ( 'NONE', #750, #277, #934, .T. ) ;
#692 = PLANE ( 'NONE',  #796 ) ;
#693 = LINE ( 'NONE', #651, #935 ) ;
#694 = ADVANCED_FACE ( 'NONE', ( #579 ), #838, .F. ) ;
#695 = DIRECTION ( 'NONE',  ( -1.000000000000000000, 0.0000000000000000000, -0.0000000000000000000 ) ) ;
#696 = ORIENTED_EDGE ( 'NONE', *, *, #499, .T. ) ;
#697 = PLANE ( 'NONE',  #911 ) ;
#698 = VERTEX_POINT ( 'NONE', #91 ) ;
#699 = VECTOR ( 'NONE', #234, 1000.000000000000000 ) ;
#700 = ORIENTED_EDGE ( 'NONE', *, *, #954, .T. ) ;
#701 = DIRECTION ( 'NONE',  ( 0.0000000000000000000, 0.0000000000000000000, -1.000000000000000000 ) ) ;
#702 = ADVANCED_FACE ( 'NONE', ( #532 ), #476, .F. ) ;
#703 = EDGE_CURVE ( 'NONE', #34, #356, #623, .T. ) ;
#704 = DIRECTION ( 'NONE',  ( -1.000000000000000000, 0.0000000000000000000, -0.0000000000000000000 ) ) ;
#705 = CARTESIAN_POINT ( 'NONE',  ( -2.449999999999999289, 0.6999999999999976241, 1.600000000000000089 ) ) ;
#706 = PLANE ( 'NONE',  #310 ) ;
#707 = MANIFOLD_SOLID_BREP ( 'Boss-Extrude1', #536 ) ;
#708 = MECHANICAL_DESIGN_GEOMETRIC_PRESENTATION_REPRESENTATION (  '', ( #658 ), #864 ) ;
#709 = ORIENTED_EDGE ( 'NONE', *, *, #274, .F. ) ;
#710 = FACE_OUTER_BOUND ( 'NONE', #134, .T. ) ;
#711 = VERTEX_POINT ( 'NONE', #618 ) ;
#712 = ORIENTED_EDGE ( 'NONE', *, *, #90, .T. ) ;
#713 = EDGE_CURVE ( 'NONE', #400, #458, #646, .T. ) ;
#714 = DIRECTION ( 'NONE',  ( -1.000000000000000000, 0.0000000000000000000, 0.0000000000000000000 ) ) ;
#715 = DIRECTION ( 'NONE',  ( 1.770125995894701449E-16, 1.000000000000000000, -0.0000000000000000000 ) ) ;
#716 = LINE ( 'NONE', #407, #522 ) ;
#717 = VECTOR ( 'NONE', #202, 1000.000000000000000 ) ;
#718 = AXIS2_PLACEMENT_3D ( 'NONE', #124, #173, #279 ) ;
#719 = ORIENTED_EDGE ( 'NONE', *, *, #691, .F. ) ;
#720 = ORIENTED_EDGE ( 'NONE', *, *, #593, .T. ) ;
#721 = VECTOR ( 'NONE', #251, 1000.000000000000000 ) ;
#722 = DIRECTION ( 'NONE',  ( 0.0000000000000000000, 1.000000000000000000, 0.0000000000000000000 ) ) ;
#723 = DIRECTION ( 'NONE',  ( 1.220666418214049308E-16, -1.000000000000000000, 0.0000000000000000000 ) ) ;
#724 = EDGE_CURVE ( 'NONE', #950, #662, #716, .T. ) ;
#725 = AXIS2_PLACEMENT_3D ( 'NONE', #242, #479, #333 ) ;
#726 = ADVANCED_FACE ( 'NONE', ( #75 ), #729, .T. ) ;
#727 = CARTESIAN_POINT ( 'NONE',  ( -3.114999999999999769, 0.6649999999999988143, -1.600000000000000089 ) ) ;
#728 = LINE ( 'NONE', #472, #146 ) ;
#729 = PLANE ( 'NONE',  #485 ) ;
#730 = LINE ( 'NONE', #947, #866 ) ;
#731 = VERTEX_POINT ( 'NONE', #763 ) ;
#732 = STYLED_ITEM ( 'NONE', ( #367 ), #73 ) ;
#733 = CARTESIAN_POINT ( 'NONE',  ( -2.450000000000000178, -5.187349955359812803, 1.600000000000000089 ) ) ;
#734 = FACE_OUTER_BOUND ( 'NONE', #565, .T. ) ;
#735 = ORIENTED_EDGE ( 'NONE', *, *, #452, .T. ) ;
#736 = LINE ( 'NONE', #287, #526 ) ;
#737 = ORIENTED_EDGE ( 'NONE', *, *, #243, .T. ) ;
#738 = SURFACE_SIDE_STYLE ('',( #681 ) ) ;
#739 = MANIFOLD_SOLID_BREP ( 'Boss-Extrude2', #370 ) ;
#740 = DIRECTION ( 'NONE',  ( 1.000000000000000000, -0.0000000000000000000, 0.0000000000000000000 ) ) ;
#741 = LINE ( 'NONE', #319, #926 ) ;
#742 = VECTOR ( 'NONE', #119, 1000.000000000000000 ) ;
#743 = DIRECTION ( 'NONE',  ( 0.0000000000000000000, 1.000000000000000000, 0.0000000000000000000 ) ) ;
#744 = ORIENTED_EDGE ( 'NONE', *, *, #833, .F. ) ;
#745 = EDGE_CURVE ( 'NONE', #570, #683, #693, .T. ) ;
#746 = EDGE_LOOP ( 'NONE', ( #425, #918, #604, #22 ) ) ;
#747 =( NAMED_UNIT ( * ) SI_UNIT ( $, .STERADIAN. ) SOLID_ANGLE_UNIT ( ) );
#748 = CARTESIAN_POINT ( 'NONE',  ( -0.9499999999999994005, 0.0000000000000000000, -1.600000000000000089 ) ) ;
#749 = LINE ( 'NONE', #261, #256 ) ;
#750 = VERTEX_POINT ( 'NONE', #865 ) ;
#751 =( LENGTH_UNIT ( ) NAMED_UNIT ( * ) SI_UNIT ( .MILLI., .METRE. ) );
#752 = PLANE ( 'NONE',  #150 ) ;
#753 = DIRECTION ( 'NONE',  ( 1.000000000000000000, 0.0000000000000000000, 0.0000000000000000000 ) ) ;
#754 = AXIS2_PLACEMENT_3D ( 'NONE', #912, #331, #695 ) ;
#755 = CARTESIAN_POINT ( 'NONE',  ( 3.114999999999999769, 0.03499999999999964251, 1.600000000000000089 ) ) ;
#756 = EDGE_LOOP ( 'NONE', ( #167, #347, #822, #789 ) ) ;
#757 = EDGE_LOOP ( 'NONE', ( #504, #254, #365, #720 ) ) ;
#758 = ORIENTED_EDGE ( 'NONE', *, *, #673, .F. ) ;
#759 = EDGE_CURVE ( 'NONE', #804, #121, #94, .T. ) ;
#760 = DIRECTION ( 'NONE',  ( -7.744301232039317668E-16, -1.000000000000000000, 0.0000000000000000000 ) ) ;
#761 = FACE_OUTER_BOUND ( 'NONE', #292, .T. ) ;
#762 = CARTESIAN_POINT ( 'NONE',  ( 0.9499999999999994005, 0.0000000000000000000, 1.600000000000000089 ) ) ;
#763 = CARTESIAN_POINT ( 'NONE',  ( -3.114999999999999769, 0.6649999999999988143, 1.600000000000000089 ) ) ;
#764 = ORIENTED_EDGE ( 'NONE', *, *, #529, .F. ) ;
#765 = ORIENTED_EDGE ( 'NONE', *, *, #625, .F. ) ;
#766 = DIRECTION ( 'NONE',  ( 0.0000000000000000000, 0.0000000000000000000, 1.000000000000000000 ) ) ;
#767 = LINE ( 'NONE', #680, #845 ) ;
#768 = SURFACE_SIDE_STYLE ('',( #636 ) ) ;
#769 = VECTOR ( 'NONE', #797, 1000.000000000000000 ) ;
#770 = AXIS2_PLACEMENT_3D ( 'NONE', #129, #723, #413 ) ;
#771 = DIRECTION ( 'NONE',  ( 0.0000000000000000000, 0.0000000000000000000, 1.000000000000000000 ) ) ;
#772 = DIRECTION ( 'NONE',  ( -0.0000000000000000000, 1.000000000000000000, -0.0000000000000000000 ) ) ;
#773 = DIRECTION ( 'NONE',  ( 0.0000000000000000000, -0.0000000000000000000, -1.000000000000000000 ) ) ;
#774 = CARTESIAN_POINT ( 'NONE',  ( -0.9499999999999994005, 0.0000000000000000000, 1.600000000000000089 ) ) ;
#775 = EDGE_CURVE ( 'NONE', #149, #77, #13, .T. ) ;
#776 = LINE ( 'NONE', #928, #543 ) ;
#777 = AXIS2_PLACEMENT_3D ( 'NONE', #44, #60, #56 ) ;
#778 = CARTESIAN_POINT ( 'NONE',  ( -3.114999999999999769, 0.6649999999999988143, -7.861772911883662118 ) ) ;
#779 = ORIENTED_EDGE ( 'NONE', *, *, #632, .T. ) ;
#780 = ORIENTED_EDGE ( 'NONE', *, *, #274, .T. ) ;
#781 = ORIENTED_EDGE ( 'NONE', *, *, #632, .F. ) ;
#782 = PRESENTATION_STYLE_ASSIGNMENT (( #674 ) ) ;
#783 = ORIENTED_EDGE ( 'NONE', *, *, #794, .F. ) ;
#784 = EDGE_CURVE ( 'NONE', #120, #638, #660, .T. ) ;
#785 = CARTESIAN_POINT ( 'NONE',  ( 0.9499999999999994005, 0.03499999999999990619, 1.600000000000000089 ) ) ;
#786 = VECTOR ( 'NONE', #475, 1000.000000000000000 ) ;
#787 = VECTOR ( 'NONE', #381, 1000.000000000000000 ) ;
#788 = DIRECTION ( 'NONE',  ( 0.0000000000000000000, 1.000000000000000000, 0.0000000000000000000 ) ) ;
#789 = ORIENTED_EDGE ( 'NONE', *, *, #784, .T. ) ;
#790 = VERTEX_POINT ( 'NONE', #942 ) ;
#791 = DIRECTION ( 'NONE',  ( -1.000000000000000000, 1.770125995894701449E-16, 0.0000000000000000000 ) ) ;
#792 = VECTOR ( 'NONE', #530, 1000.000000000000000 ) ;
#793 = FACE_OUTER_BOUND ( 'NONE', #812, .T. ) ;
#794 = EDGE_CURVE ( 'NONE', #804, #698, #455, .T. ) ;
#795 =( NAMED_UNIT ( * ) PLANE_ANGLE_UNIT ( ) SI_UNIT ( $, .RADIAN. ) );
#796 = AXIS2_PLACEMENT_3D ( 'NONE', #183, #684, #548 ) ;
#797 = DIRECTION ( 'NONE',  ( -1.000000000000000000, -1.220666418214049308E-16, 0.0000000000000000000 ) ) ;
#798 = FACE_OUTER_BOUND ( 'NONE', #301, .T. ) ;
#799 = ORIENTED_EDGE ( 'NONE', *, *, #837, .F. ) ;
#800 = ADVANCED_FACE ( 'NONE', ( #38 ), #50, .F. ) ;
#801 = EDGE_LOOP ( 'NONE', ( #435, #469, #484, #827 ) ) ;
#802 = CARTESIAN_POINT ( 'NONE',  ( -2.450000000000000178, -5.187349955359812803, 1.600000000000000089 ) ) ;
#803 = LINE ( 'NONE', #27, #291 ) ;
#804 = VERTEX_POINT ( 'NONE', #940 ) ;
#805 = ORIENTED_EDGE ( 'NONE', *, *, #643, .F. ) ;
#806 = CARTESIAN_POINT ( 'NONE',  ( 0.0000000000000000000, 0.0000000000000000000, 0.0000000000000000000 ) ) ;
#807 = DIRECTION ( 'NONE',  ( 1.000000000000000000, -1.753471553324619270E-16, 0.0000000000000000000 ) ) ;
#808 = VECTOR ( 'NONE', #131, 1000.000000000000000 ) ;
#809 = EDGE_CURVE ( 'NONE', #120, #163, #730, .T. ) ;
#810 = ORIENTED_EDGE ( 'NONE', *, *, #713, .T. ) ;
#811 = STYLED_ITEM ( 'NONE', ( #465 ), #707 ) ;
#812 = EDGE_LOOP ( 'NONE', ( #765, #414, #649, #379, #140, #783, #275, #540 ) ) ;
#813 = CARTESIAN_POINT ( 'NONE',  ( 0.9499999999999994005, 0.03499999999999990619, 1.600000000000000089 ) ) ;
#814 = VECTOR ( 'NONE', #63, 1000.000000000000000 ) ;
#815 = VECTOR ( 'NONE', #562, 1000.000000000000000 ) ;
#816 = EDGE_CURVE ( 'NONE', #356, #893, #298, .T. ) ;
#817 = DIRECTION ( 'NONE',  ( -1.000000000000000000, 1.770125995894702188E-16, -0.0000000000000000000 ) ) ;
#818 = FILL_AREA_STYLE ('',( #881 ) ) ;
#819 = CARTESIAN_POINT ( 'NONE',  ( 3.149999999999999467, -3.857637417314162196E-16, -1.600000000000000089 ) ) ;
#820 = DIRECTION ( 'NONE',  ( 0.0000000000000000000, -0.0000000000000000000, -1.000000000000000000 ) ) ;
#821 = CLOSED_SHELL ( 'NONE', ( #470, #197, #107, #311, #852, #178 ) ) ;
#822 = ORIENTED_EDGE ( 'NONE', *, *, #809, .F. ) ;
#823 = CARTESIAN_POINT ( 'NONE',  ( 2.449999999999999289, 0.6649999999999989253, 1.600000000000000089 ) ) ;
#824 = ADVANCED_FACE ( 'NONE', ( #272 ), #195, .T. ) ;
#825 = VECTOR ( 'NONE', #148, 1000.000000000000000 ) ;
#826 = ORIENTED_EDGE ( 'NONE', *, *, #809, .T. ) ;
#827 = ORIENTED_EDGE ( 'NONE', *, *, #187, .T. ) ;
#828 = LINE ( 'NONE', #624, #376 ) ;
#829 = LINE ( 'NONE', #889, #787 ) ;
#830 = ORIENTED_EDGE ( 'NONE', *, *, #625, .T. ) ;
#831 = CARTESIAN_POINT ( 'NONE',  ( 2.449999999999999289, 0.6649999999999989253, 1.600000000000000089 ) ) ;
#832 = EDGE_LOOP ( 'NONE', ( #670, #418, #810, #49 ) ) ;
#833 = EDGE_CURVE ( 'NONE', #949, #65, #637, .T. ) ;
#834 = FACE_OUTER_BOUND ( 'NONE', #188, .T. ) ;
#835 = CARTESIAN_POINT ( 'NONE',  ( 0.9499999999999994005, 0.03499999999999990619, 1.600000000000000089 ) ) ;
#836 = DIRECTION ( 'NONE',  ( 1.000000000000000000, 7.744301232039316681E-16, 0.0000000000000000000 ) ) ;
#837 = EDGE_CURVE ( 'NONE', #870, #903, #327, .T. ) ;
#838 = PLANE ( 'NONE',  #952 ) ;
#839 = DIRECTION ( 'NONE',  ( 0.0000000000000000000, -1.000000000000000000, -0.0000000000000000000 ) ) ;
#840 = FACE_OUTER_BOUND ( 'NONE', #832, .T. ) ;
#841 = ORIENTED_EDGE ( 'NONE', *, *, #293, .T. ) ;
#842 = CARTESIAN_POINT ( 'NONE',  ( 0.9499999999999994005, 0.03499999999999990619, 1.600000000000000089 ) ) ;
#843 = ORIENTED_EDGE ( 'NONE', *, *, #262, .F. ) ;
#844 = DIRECTION ( 'NONE',  ( 0.0000000000000000000, 0.0000000000000000000, -1.000000000000000000 ) ) ;
#845 = VECTOR ( 'NONE', #313, 1000.000000000000000 ) ;
#846 = VECTOR ( 'NONE', #88, 1000.000000000000000 ) ;
#847 = AXIS2_PLACEMENT_3D ( 'NONE', #802, #488, #419 ) ;
#848 = ORIENTED_EDGE ( 'NONE', *, *, #663, .F. ) ;
#849 = PLANE ( 'NONE',  #718 ) ;
#850 = DIRECTION ( 'NONE',  ( 1.087682757308893106E-18, -1.000000000000000000, 0.0000000000000000000 ) ) ;
#851 = CARTESIAN_POINT ( 'NONE',  ( 0.0000000000000000000, 0.0000000000000000000, 1.600000000000000089 ) ) ;
#852 = ADVANCED_FACE ( 'NONE', ( #902 ), #189, .T. ) ;
#853 = CARTESIAN_POINT ( 'NONE',  ( 2.449999999999998401, 0.6649999999999989253, -1.600000000000000089 ) ) ;
#854 = FACE_OUTER_BOUND ( 'NONE', #257, .T. ) ;
#855 = AXIS2_PLACEMENT_3D ( 'NONE', #141, #453, #807 ) ;
#856 = COLOUR_RGB ( '',0.7921568627450980005, 0.8196078431372548767, 0.9333333333333333481 ) ;
#857 = ORIENTED_EDGE ( 'NONE', *, *, #585, .F. ) ;
#858 = DIRECTION ( 'NONE',  ( -1.220666418214049308E-16, -1.000000000000000000, 0.0000000000000000000 ) ) ;
#859 = ORIENTED_EDGE ( 'NONE', *, *, #429, .T. ) ;
#860 = EDGE_LOOP ( 'NONE', ( #6, #86, #114, #380 ) ) ;
#861 = EDGE_CURVE ( 'NONE', #683, #266, #130, .T. ) ;
#862 = LINE ( 'NONE', #220, #43 ) ;
#863 = SURFACE_STYLE_USAGE ( .BOTH. , #768 ) ;
#864 =( GEOMETRIC_REPRESENTATION_CONTEXT ( 3 ) GLOBAL_UNCERTAINTY_ASSIGNED_CONTEXT ( ( #535 ) ) GLOBAL_UNIT_ASSIGNED_CONTEXT ( ( #443, #383, #587 ) ) REPRESENTATION_CONTEXT ( 'NONE', 'WORKASPACE' ) );
#865 = CARTESIAN_POINT ( 'NONE',  ( -2.450000000000000178, 0.6649999999999989253, -1.600000000000000089 ) ) ;
#866 = VECTOR ( 'NONE', #644, 1000.000000000000000 ) ;
#867 = SURFACE_SIDE_STYLE ('',( #914 ) ) ;
#868 = VERTEX_POINT ( 'NONE', #72 ) ;
#869 = DIRECTION ( 'NONE',  ( 0.0000000000000000000, 1.000000000000000000, 0.0000000000000000000 ) ) ;
#870 = VERTEX_POINT ( 'NONE', #953 ) ;
#871 = CARTESIAN_POINT ( 'NONE',  ( -2.449999999999999289, 0.6999999999999990674, 1.600000000000000089 ) ) ;
#872 = FACE_OUTER_BOUND ( 'NONE', #757, .T. ) ;
#873 = ORIENTED_EDGE ( 'NONE', *, *, #759, .T. ) ;
#874 = ADVANCED_FACE ( 'NONE', ( #840 ), #592, .F. ) ;
#875 =( LENGTH_UNIT ( ) NAMED_UNIT ( * ) SI_UNIT ( .MILLI., .METRE. ) );
#876 = DIRECTION ( 'NONE',  ( -1.000000000000000000, -1.753471553324619270E-16, 0.0000000000000000000 ) ) ;
#877 = LINE ( 'NONE', #546, #105 ) ;
#878 = FILL_AREA_STYLE_COLOUR ( '', #244 ) ;
#879 = LINE ( 'NONE', #377, #186 ) ;
#880 = EDGE_CURVE ( 'NONE', #149, #613, #668, .T. ) ;
#881 = FILL_AREA_STYLE_COLOUR ( '', #856 ) ;
#882 = ORIENTED_EDGE ( 'NONE', *, *, #83, .F. ) ;
#883 = CARTESIAN_POINT ( 'NONE',  ( -2.450000000000000178, 0.6649999999999989253, -1.600000000000000089 ) ) ;
#884 = ORIENTED_EDGE ( 'NONE', *, *, #128, .F. ) ;
#885 = CARTESIAN_POINT ( 'NONE',  ( 3.149999999999999467, 0.6999999999999995115, -1.600000000000000089 ) ) ;
#886 = LINE ( 'NONE', #399, #231 ) ;
#887 = EDGE_CURVE ( 'NONE', #528, #711, #62, .T. ) ;
#888 = VECTOR ( 'NONE', #437, 1000.000000000000000 ) ;
#889 = CARTESIAN_POINT ( 'NONE',  ( -2.449999999999999289, 0.6649999999999989253, 1.600000000000000089 ) ) ;
#890 = VECTOR ( 'NONE', #122, 1000.000000000000000 ) ;
#891 = EDGE_CURVE ( 'NONE', #626, #907, #545, .T. ) ;
#892 = ORIENTED_EDGE ( 'NONE', *, *, #378, .T. ) ;
#893 = VERTEX_POINT ( 'NONE', #748 ) ;
#894 = DIRECTION ( 'NONE',  ( 1.000000000000000000, 0.0000000000000000000, 0.0000000000000000000 ) ) ;
#895 =( NAMED_UNIT ( * ) SI_UNIT ( $, .STERADIAN. ) SOLID_ANGLE_UNIT ( ) );
#896 = FACE_OUTER_BOUND ( 'NONE', #267, .T. ) ;
#897 = DIRECTION ( 'NONE',  ( 0.0000000000000000000, 0.0000000000000000000, 1.000000000000000000 ) ) ;
#898 = AXIS2_PLACEMENT_3D ( 'NONE', #387, #753, #227 ) ;
#899 = DIRECTION ( 'NONE',  ( -0.0000000000000000000, -1.000000000000000000, -0.0000000000000000000 ) ) ;
#900 = FACE_OUTER_BOUND ( 'NONE', #99, .T. ) ;
#901 = DIRECTION ( 'NONE',  ( -2.710505431213761085E-16, 0.0000000000000000000, -1.000000000000000000 ) ) ;
#902 = FACE_OUTER_BOUND ( 'NONE', #498, .T. ) ;
#903 = VERTEX_POINT ( 'NONE', #218 ) ;
#904 = CARTESIAN_POINT ( 'NONE',  ( -3.114999999999999769, 0.6649999999999988143, 1.600000000000000089 ) ) ;
#905 = ORIENTED_EDGE ( 'NONE', *, *, #833, .T. ) ;
#906 = UNCERTAINTY_MEASURE_WITH_UNIT (LENGTH_MEASURE( 1.000000000000000082E-05 ), #229, 'distance_accuracy_value', 'NONE');
#907 = VERTEX_POINT ( 'NONE', #289 ) ;
#908 = CARTESIAN_POINT ( 'NONE',  ( -3.114999999999999769, 0.6649999999999988143, -7.861772911883662118 ) ) ;
#909 = EDGE_CURVE ( 'NONE', #163, #402, #480, .T. ) ;
#910 = CARTESIAN_POINT ( 'NONE',  ( -3.114999999999999769, 0.03499999999999964251, -1.599999999999999867 ) ) ;
#911 = AXIS2_PLACEMENT_3D ( 'NONE', #258, #541, #844 ) ;
#912 = CARTESIAN_POINT ( 'NONE',  ( -2.450000000000000178, -5.187349955359812803, -1.600000000000000089 ) ) ;
#913 = DIRECTION ( 'NONE',  ( 1.630379206745118808E-16, 1.000000000000000000, 0.0000000000000000000 ) ) ;
#914 = SURFACE_STYLE_FILL_AREA ( #509 ) ;
#915 = DIRECTION ( 'NONE',  ( -1.000000000000000000, 1.220666418214049308E-16, 0.0000000000000000000 ) ) ;
#916 = VECTOR ( 'NONE', #574, 1000.000000000000000 ) ;
#917 = DIRECTION ( 'NONE',  ( 1.612184395336183031E-16, 1.000000000000000000, 0.0000000000000000000 ) ) ;
#918 = ORIENTED_EDGE ( 'NONE', *, *, #775, .T. ) ;
#919 = CARTESIAN_POINT ( 'NONE',  ( 0.9499999999999994005, 0.0000000000000000000, 1.600000000000000089 ) ) ;
#920 = DIRECTION ( 'NONE',  ( 1.000000000000000000, 1.087682757308893106E-18, 0.0000000000000000000 ) ) ;
#921 = ORIENTED_EDGE ( 'NONE', *, *, #15, .F. ) ;
#922 = AXIS2_PLACEMENT_3D ( 'NONE', #154, #322, #328 ) ;
#923 = CARTESIAN_POINT ( 'NONE',  ( 2.449999999999999289, 0.6999999999999967359, 1.600000000000000089 ) ) ;
#924 = VECTOR ( 'NONE', #839, 1000.000000000000000 ) ;
#925 = PLANE ( 'NONE',  #650 ) ;
#926 = VECTOR ( 'NONE', #329, 1000.000000000000000 ) ;
#927 = VERTEX_POINT ( 'NONE', #295 ) ;
#928 = CARTESIAN_POINT ( 'NONE',  ( -0.9499999999999994005, 0.03499999999999990619, -1.600000000000000089 ) ) ;
#929 = ORIENTED_EDGE ( 'NONE', *, *, #136, .T. ) ;
#930 = AXIS2_PLACEMENT_3D ( 'NONE', #474, #326, #559 ) ;
#931 = ORIENTED_EDGE ( 'NONE', *, *, #452, .F. ) ;
#932 = EDGE_CURVE ( 'NONE', #147, #870, #829, .T. ) ;
#933 = CARTESIAN_POINT ( 'NONE',  ( -3.114999999999999769, 0.03499999999999964251, -1.599999999999999867 ) ) ;
#934 = LINE ( 'NONE', #542, #659 ) ;
#935 = VECTOR ( 'NONE', #198, 1000.000000000000000 ) ;
#936 = VERTEX_POINT ( 'NONE', #1 ) ;
#937 = CARTESIAN_POINT ( 'NONE',  ( 3.114999999999999769, 0.6649999999999988143, 1.600000000000000089 ) ) ;
#938 = ORIENTED_EDGE ( 'NONE', *, *, #324, .F. ) ;
#939 = LINE ( 'NONE', #487, #21 ) ;
#940 = CARTESIAN_POINT ( 'NONE',  ( 3.114999999999999769, 0.6649999999999988143, 1.600000000000000089 ) ) ;
#941 = PRESENTATION_LAYER_ASSIGNMENT (  '', '', ( #463 ) ) ;
#942 = CARTESIAN_POINT ( 'NONE',  ( -3.114999999999999769, 0.03499999999999964251, 1.600000000000000089 ) ) ;
#943 = LINE ( 'NONE', #175, #263 ) ;
#944 = EDGE_CURVE ( 'NONE', #731, #790, #879, .T. ) ;
#945 = CARTESIAN_POINT ( 'NONE',  ( -0.9499999999999994005, 0.0000000000000000000, 1.600000000000000089 ) ) ;
#946 = ORIENTED_EDGE ( 'NONE', *, *, #349, .T. ) ;
#947 = CARTESIAN_POINT ( 'NONE',  ( -3.114999999999999769, 0.03499999999999964251, 1.600000000000000089 ) ) ;
#948 = LINE ( 'NONE', #10, #280 ) ;
#949 = VERTEX_POINT ( 'NONE', #885 ) ;
#950 = VERTEX_POINT ( 'NONE', #813 ) ;
#951 = CARTESIAN_POINT ( 'NONE',  ( 0.9499999999999994005, 0.03499999999999990619, -1.600000000000000089 ) ) ;
#952 = AXIS2_PLACEMENT_3D ( 'NONE', #785, #858, #915 ) ;
#953 = CARTESIAN_POINT ( 'NONE',  ( -2.449999999999999289, 0.6999999999999990674, 1.600000000000000089 ) ) ;
#954 = EDGE_CURVE ( 'NONE', #266, #41, #608, .T. ) ;
#955 = LINE ( 'NONE', #110, #37 ) ;
#956 = VECTOR ( 'NONE', #206, 1000.000000000000000 ) ;
#957 = EDGE_LOOP ( 'NONE', ( #744, #921, #737, #841 ) ) ;
#958 = ORIENTED_EDGE ( 'NONE', *, *, #887, .T. ) ;
#959 = FACE_OUTER_BOUND ( 'NONE', #302, .T. ) ;
#960 = DIRECTION ( 'NONE',  ( 1.612184395336183031E-16, 1.000000000000000000, 0.0000000000000000000 ) ) ;
#961 = LINE ( 'NONE', #193, #769 ) ;
ENDSEC;
END-ISO-10303-21;
